<svg width="199.6" height="189.45" xmlns="http://www.w3.org/2000/svg">
 <defs>
  <radialGradient cx="0" cy="0" gradientTransform="matrix(0.1221, -0.0447, 0.0452, 0.1236, 109.4, 106.1)" gradientUnits="userSpaceOnUse" id="gradient0" r="819.2" spreadMethod="pad">
   <stop offset="0" stop-color="#ff55cd" stop-opacity="0.06275"/>
   <stop offset="1" stop-color="#ff88d0" stop-opacity="0.01961"/>
  </radialGradient>
  <radialGradient cx="0" cy="0" gradientTransform="matrix(0.1221, -0.0447, 0.0452, 0.1236, 109.4, 106.1)" gradientUnits="userSpaceOnUse" id="gradient1" r="819.2" spreadMethod="pad">
   <stop offset="0" stop-color="#ff55cd" stop-opacity="0.12941"/>
   <stop offset="1" stop-color="#ff88d0" stop-opacity="0.03922"/>
  </radialGradient>
  <radialGradient cx="0" cy="0" gradientTransform="matrix(0.1221, -0.0447, 0.0452, 0.1236, 109.4, 106.1)" gradientUnits="userSpaceOnUse" id="gradient2" r="819.2" spreadMethod="pad">
   <stop offset="0" stop-color="#ff55cd" stop-opacity="0.19608"/>
   <stop offset="1" stop-color="#ff88d0" stop-opacity="0.05882"/>
  </radialGradient>
  <radialGradient cx="0" cy="0" gradientTransform="matrix(0.1221, -0.0447, 0.0452, 0.1236, 109.4, 106.1)" gradientUnits="userSpaceOnUse" id="gradient3" r="819.2" spreadMethod="pad">
   <stop offset="0" stop-color="#ff55cd" stop-opacity="0.26275"/>
   <stop offset="1" stop-color="#ff88d0" stop-opacity="0.08235"/>
  </radialGradient>
  <radialGradient cx="0" cy="0" gradientTransform="matrix(0.1221, -0.0447, 0.0452, 0.1236, 109.4, 106.1)" gradientUnits="userSpaceOnUse" id="gradient4" r="819.2" spreadMethod="pad">
   <stop offset="0" stop-color="#ff55cd" stop-opacity="0.32941"/>
   <stop offset="1" stop-color="#ff88d0" stop-opacity="0.10196"/>
  </radialGradient>
  <radialGradient cx="0" cy="0" gradientTransform="matrix(0.1221, -0.0447, 0.0452, 0.1236, 109.4, 106.1)" gradientUnits="userSpaceOnUse" id="gradient5" r="819.2" spreadMethod="pad">
   <stop offset="0" stop-color="#ff55cd" stop-opacity="0.39608"/>
   <stop offset="1" stop-color="#ff88d0" stop-opacity="0.12157"/>
  </radialGradient>
  <radialGradient cx="0" cy="0" gradientTransform="matrix(0.1221, -0.0447, 0.0452, 0.1236, 109.4, 106.1)" gradientUnits="userSpaceOnUse" id="gradient6" r="819.2" spreadMethod="pad">
   <stop offset="0" stop-color="#ff55cd" stop-opacity="0.46275"/>
   <stop offset="1" stop-color="#ff88d0" stop-opacity="0.1451"/>
  </radialGradient>
  <radialGradient cx="0" cy="0" gradientTransform="matrix(0.1221, -0.0447, 0.0452, 0.1236, 109.4, 106.1)" gradientUnits="userSpaceOnUse" id="gradient7" r="819.2" spreadMethod="pad">
   <stop offset="0" stop-color="#ff55cd" stop-opacity="0.59608"/>
   <stop offset="1" stop-color="#ff88d0" stop-opacity="0.18431"/>
  </radialGradient>
  <radialGradient cx="0" cy="0" gradientTransform="matrix(0.1221, -0.0447, 0.0452, 0.1236, 109.4, 106.1)" gradientUnits="userSpaceOnUse" id="gradient8" r="819.2" spreadMethod="pad">
   <stop offset="0" stop-color="#ff55cd" stop-opacity="0.66275"/>
   <stop offset="1" stop-color="#ff88d0" stop-opacity="0.20784"/>
  </radialGradient>
  <radialGradient cx="0" cy="0" gradientTransform="matrix(0.1221, -0.0447, 0.0452, 0.1236, 109.4, 106.1)" gradientUnits="userSpaceOnUse" id="gradient9" r="819.2" spreadMethod="pad">
   <stop offset="0" stop-color="#ff55cd" stop-opacity="0.72941"/>
   <stop offset="1" stop-color="#ff88d0" stop-opacity="0.22745"/>
  </radialGradient>
  <radialGradient cx="0" cy="0" gradientTransform="matrix(0.1221, -0.0447, 0.0452, 0.1236, 109.4, 106.1)" gradientUnits="userSpaceOnUse" id="gradient10" r="819.2" spreadMethod="pad">
   <stop offset="0" stop-color="#ff55cd" stop-opacity="0.79608"/>
   <stop offset="1" stop-color="#ff88d0" stop-opacity="0.24706"/>
  </radialGradient>
  <radialGradient cx="0" cy="0" gradientTransform="matrix(0.1221, -0.0447, 0.0452, 0.1236, 109.4, 106.1)" gradientUnits="userSpaceOnUse" id="gradient11" r="819.2" spreadMethod="pad">
   <stop offset="0" stop-color="#ff55cd" stop-opacity="0.52941"/>
   <stop offset="1" stop-color="#ff88d0" stop-opacity="0.16471"/>
  </radialGradient>
  <radialGradient cx="0" cy="0" gradientTransform="matrix(0.1221, -0.0447, 0.0452, 0.1236, 109.4, 106.1)" gradientUnits="userSpaceOnUse" id="gradient12" r="819.2" spreadMethod="pad">
   <stop offset="0" stop-color="#ff55cd" stop-opacity="0.86275"/>
   <stop offset="1" stop-color="#ff88d0" stop-opacity="0.27059"/>
  </radialGradient>
  <radialGradient cx="0" cy="0" gradientTransform="matrix(0.1221, -0.0447, 0.0452, 0.1236, 109.4, 106.1)" gradientUnits="userSpaceOnUse" id="gradient13" r="819.2" spreadMethod="pad">
   <stop offset="0" stop-color="#ff55cd" stop-opacity="0.92941"/>
   <stop offset="1" stop-color="#ff88d0" stop-opacity="0.2902"/>
  </radialGradient>
  <radialGradient cx="0" cy="0" gradientTransform="matrix(0.1221, -0.0447, 0.0452, 0.1236, 109.4, 106.1)" gradientUnits="userSpaceOnUse" id="gradient14" r="819.2" spreadMethod="pad">
   <stop offset="0" stop-color="#ff55cd"/>
   <stop offset="1" stop-color="#ff88d0" stop-opacity="0.31373"/>
  </radialGradient>
 </defs>
 <g>
  <title>background</title>
  <rect x="-1" y="-1" width="201.6" height="191.45" id="canvas_background" fill="none"/>
 </g>
 <g>
  <title>Layer 1</title>
  <g id="svg_1">
   <path d="m196.75,45.25q5.4,14 0.65,39.35q-3.75,20.1 -13.4,44.4q-8.6,21.6 -18.35,38.3q-11.5,19.5 -18.2,21.05q-7.65,3.55 -42.8,-4.6l0.05,0q-32.7,-7.6 -51.75,-16.25q-19.75,-9.1 -31,-20.2l-0.05,0q-10.8,-10.65 -16.25,-25.25q-5.6,-13.9 -5.65,-28.3q-0.1,-31.05 28,-41.2q30.2,-11.05 55.6,3.55l0.1,0l5.2,3.25q0.05,-6.05 1.45,-11.4l0.05,-0.05q5.05,-21.9 34.45,-43.2q0.65,-0.45 1.4,-0.75q26.25,-11.7 50.05,11.05q7.5,7.2 13.75,17.25q4.75,7.55 6.7,13m-0.45,0.2q-1.95,-5.4 -6.7,-13q-6.2,-9.95 -13.65,-17.1q-23.55,-22.45 -49.45,-10.95q-0.7,0.25 -1.35,0.75q-29.2,21.1 -34.35,42.9q-1.4,5.8 -1.35,12.3q-2.9,-2 -6,-3.8l-0.05,0q-25.2,-14.55 -55.2,-3.55q-27.75,10.1 -27.7,40.75l0,0.05q0.05,14.25 5.65,28.1q5.35,14.4 16.15,25.05q11.2,11.05 30.8,20.05q19.05,8.7 51.7,16.2q34.9,8.15 42.45,4.65q6.6,-1.5 17.95,-20.85q9.8,-16.65 18.35,-38.2q9.6,-24.25 13.35,-44.3q4.75,-25.2 -0.6,-39.05" fill="url(#gradient0)" fill-rule="evenodd" id="svg_2"/>
   <path d="m175.55,15.8l0.05,-0.05q-23.25,-22.25 -48.9,-10.9q-0.65,0.25 -1.25,0.7q-29,21 -34.1,42.6l0.05,0.05q-1.6,6.15 -1.5,13.15l-6.75,-4.4q-25.05,-14.35 -54.8,-3.45q-27.35,9.95 -27.35,40.25q0.05,14.2 5.6,27.9q5.3,14.35 16.05,24.9l0,0.05q11.15,11 30.7,19.9q18.95,8.7 51.55,16.2q34.7,8.05 42.2,4.65q6.45,-1.6 17.65,-20.6q9.75,-16.6 18.35,-38.1q9.6,-24.25 13.3,-44.25q4.7,-25 -0.6,-38.8q-1.9,-5.35 -6.6,-12.85q-6.2,-9.95 -13.65,-16.95m20.75,29.65q5.35,13.85 0.6,39.05q-3.75,20.05 -13.35,44.3q-8.55,21.55 -18.35,38.2q-11.35,19.35 -17.95,20.85q-7.55,3.5 -42.45,-4.65q-32.65,-7.5 -51.7,-16.2q-19.6,-9 -30.8,-20.05q-10.8,-10.65 -16.15,-25.05q-5.6,-13.85 -5.65,-28.1l0,-0.05q-0.05,-30.65 27.7,-40.75q30,-11 55.2,3.55l0.05,0q3.1,1.8 6,3.8q-0.05,-6.5 1.35,-12.3q5.15,-21.8 34.35,-42.9q0.65,-0.5 1.35,-0.75q25.9,-11.5 49.45,10.95q7.45,7.15 13.65,17.1q4.75,7.6 6.7,13" fill="url(#gradient1)" fill-rule="evenodd" id="svg_3"/>
   <path d="m175.55,15.8q7.45,7 13.65,16.95q4.7,7.5 6.6,12.85q5.3,13.8 0.6,38.8q-3.7,20 -13.3,44.25q-8.6,21.5 -18.35,38.1q-11.2,19 -17.65,20.6q-7.5,3.4 -42.2,-4.65q-32.6,-7.5 -51.55,-16.2q-19.55,-8.9 -30.7,-19.9l0,-0.05q-10.75,-10.55 -16.05,-24.9q-5.55,-13.7 -5.6,-27.9q0,-30.3 27.35,-40.25q29.75,-10.9 54.8,3.45l6.75,4.4q-0.1,-7 1.5,-13.15l-0.05,-0.05q5.1,-21.6 34.1,-42.6q0.6,-0.45 1.25,-0.7q25.65,-11.35 48.9,10.9l-0.05,0.05m19.8,30q-1.95,-5.3 -6.6,-12.75q-6.1,-9.85 -13.5,-16.9q-23.05,-22.05 -48.35,-10.85l-1.2,0.7q-28.8,20.8 -33.8,42.3q-1.75,6.55 -1.45,14.1q-3.55,-2.65 -7.5,-4.95q-24.9,-14.25 -54.4,-3.45q-27.1,9.85 -27,39.75l0,0.05q0,14.1 5.55,27.7q5.25,14.25 15.9,24.7q11.1,10.95 30.55,19.85q18.95,8.65 51.45,16.15q34.45,8 41.9,4.7q6.35,-1.6 17.4,-20.45q9.7,-16.6 18.3,-38q9.6,-24.2 13.35,-44.15q4.65,-24.85 -0.6,-38.5" fill="url(#gradient2)" fill-rule="evenodd" id="svg_4"/>
   <path d="m174.85,16.5l0.05,0.05q-22.8,-21.85 -47.85,-10.75l-1,0.6q-28.65,20.75 -33.75,42.05q-1.8,6.95 -1.3,15q-3.9,-3.05 -8.3,-5.55q-24.7,-14.15 -54,-3.45q-26.7,9.75 -26.65,39.35q0,14 5.55,27.5q5.15,14.15 15.75,24.5q11.05,10.95 30.4,19.8l0.05,0q18.9,8.6 51.3,16.1q34.2,7.95 41.6,4.7q6.25,-1.6 17.2,-20.2l-0.05,0.05q9.75,-16.55 18.3,-38q9.55,-24.15 13.3,-44.05q4.6,-24.65 -0.6,-38.25q-1.9,-5.3 -6.5,-12.65q-6.1,-9.8 -13.5,-16.8m20.5,29.3q5.25,13.65 0.6,38.5q-3.75,19.95 -13.35,44.15q-8.6,21.4 -18.3,38q-11.05,18.85 -17.4,20.45q-7.45,3.3 -41.9,-4.7q-32.5,-7.5 -51.45,-16.15q-19.45,-8.9 -30.55,-19.85q-10.65,-10.45 -15.9,-24.7q-5.55,-13.6 -5.55,-27.7l0,-0.05q-0.1,-29.9 27,-39.75q29.5,-10.8 54.4,3.45q3.95,2.3 7.5,4.95q-0.3,-7.55 1.45,-14.1q5,-21.5 33.8,-42.3l1.2,-0.7q25.3,-11.2 48.35,10.85q7.4,7.05 13.5,16.9q4.65,7.45 6.6,12.75" fill="url(#gradient3)" fill-rule="evenodd" id="svg_5"/>
   <path d="m174.85,16.5q7.4,7 13.5,16.8q4.6,7.35 6.5,12.65q5.2,13.6 0.6,38.25q-3.75,19.9 -13.3,44.05q-8.55,21.45 -18.3,38l0.05,-0.05q-10.95,18.6 -17.2,20.2q-7.4,3.25 -41.6,-4.7q-32.4,-7.5 -51.3,-16.1l-0.05,0q-19.35,-8.85 -30.4,-19.8q-10.6,-10.35 -15.75,-24.5q-5.55,-13.5 -5.55,-27.5q-0.05,-29.6 26.65,-39.35q29.3,-10.7 54,3.45q4.4,2.5 8.3,5.55q-0.5,-8.05 1.3,-15q5.1,-21.3 33.75,-42.05l1,-0.6q25.05,-11.1 47.85,10.75l-0.05,-0.05m19.5,29.65q-1.9,-5.25 -6.5,-12.6q-6,-9.75 -13.3,-16.7q-22.5,-21.5 -47.25,-10.6l-1,0.55q-28.45,20.65 -33.45,41.8q-1.9,7.4 -1.2,15.95q-4.3,-3.45 -9.25,-6.2q-24.45,-14.05 -53.5,-3.4q-26.45,9.6 -26.35,38.8l0,0.05q0.05,13.85 5.5,27.35q5.15,14.05 15.65,24.3q11,10.9 30.25,19.65l0.05,0q18.85,8.6 51.2,16.1q33.95,7.9 41.35,4.7q6.1,-1.6 16.9,-19.95q9.65,-16.55 18.25,-37.9l-0.05,-0.05q9.55,-24 13.3,-43.9q4.55,-24.45 -0.6,-37.95" fill="url(#gradient4)" fill-rule="evenodd" id="svg_6"/>
   <path d="m193.9,46.3q-1.85,-5.2 -6.4,-12.45q-6.1,-9.7 -13.3,-16.6q-22.25,-21.3 -46.7,-10.55l-0.85,0.55q-28.3,20.4 -33.3,41.45q-2,7.9 -1.1,17.05q-4.65,-3.9 -10.1,-6.95q-24.25,-13.9 -53.1,-3.35q-26.05,9.5 -26.05,38.3q0.1,13.85 5.5,27.15q5.15,13.95 15.55,24.2q10.95,10.8 30.1,19.55q18.9,8.55 51.2,16.1q33.7,7.8 41,4.7q6,-1.7 16.65,-19.75q9.7,-16.5 18.2,-37.85q9.55,-24 13.2,-43.85q4.55,-24.3 -0.5,-37.7m0.45,-0.15q5.15,13.5 0.6,37.95q-3.75,19.9 -13.3,43.9l0.05,0.05q-8.6,21.35 -18.25,37.9q-10.8,18.35 -16.9,19.95q-7.4,3.2 -41.35,-4.7q-32.35,-7.5 -51.2,-16.1l-0.05,0q-19.25,-8.75 -30.25,-19.65q-10.5,-10.25 -15.65,-24.3q-5.45,-13.5 -5.5,-27.35l0,-0.05q-0.1,-29.2 26.35,-38.8q29.05,-10.65 53.5,3.4q4.95,2.75 9.25,6.2q-0.7,-8.55 1.2,-15.95q5,-21.15 33.45,-41.8l1,-0.55q24.75,-10.9 47.25,10.6q7.3,6.95 13.3,16.7q4.6,7.35 6.5,12.6" fill="url(#gradient5)" fill-rule="evenodd" id="svg_7"/>
   <path d="m193.4,46.5q-1.9,-5.15 -6.35,-12.35q-6,-9.65 -13.25,-16.55q-21.95,-21 -46.1,-10.4l-0.8,0.45q-28.05,20.35 -33.05,41.15q-2.05,7.95 -1.05,17.2l-0.05,0.05l0.1,0.9q-4.95,-4.3 -10.9,-7.7q-24.1,-13.75 -52.7,-3.3q-25.7,9.35 -25.7,37.8l0.05,0.05q0,13.6 5.3,26.8l0.05,0.15q5.15,13.8 15.5,23.95q10.85,10.8 29.95,19.45q18.8,8.6 51.05,16.1q33.5,7.75 40.75,4.7q5.85,-1.65 16.4,-19.55q9.6,-16.45 18.1,-37.7q9.5,-24 13.2,-43.8q4.5,-24.15 -0.5,-37.4m0.5,-0.2q5.05,13.4 0.5,37.7q-3.65,19.85 -13.2,43.85q-8.5,21.35 -18.2,37.85q-10.65,18.05 -16.65,19.75q-7.3,3.1 -41,-4.7q-32.3,-7.55 -51.2,-16.1q-19.15,-8.75 -30.1,-19.55q-10.4,-10.25 -15.55,-24.2q-5.4,-13.3 -5.5,-27.15q0,-28.8 26.05,-38.3q28.85,-10.55 53.1,3.35q5.45,3.05 10.1,6.95q-0.9,-9.15 1.1,-17.05q5,-21.05 33.3,-41.45l0.85,-0.55q24.45,-10.75 46.7,10.55q7.2,6.9 13.3,16.6q4.55,7.25 6.4,12.45" fill="url(#gradient6)" fill-rule="evenodd" id="svg_8"/>
   <path d="m192.45,46.85q-1.85,-5.1 -6.25,-12.15q-5.95,-9.6 -13.1,-16.35q-21.45,-20.55 -45,-10.2l-0.55,0.35q-27.7,20.05 -32.7,40.55q-2,7.75 -1.05,16.85l0,0.05l0.55,3.65q-5.75,-5.35 -12.9,-9.45l-0.05,-0.05q-23.65,-13.5 -51.8,-3.2q-25.05,9.1 -25,36.9q0.05,13.45 5.25,26.45l0.05,0.1q5.05,13.65 15.25,23.65q10.8,10.6 29.65,19.2q18.75,8.55 50.85,16.05q33.05,7.65 40.2,4.7q5.6,-1.65 15.8,-19.05q9.65,-16.4 18.1,-37.6q9.45,-23.9 13.15,-43.6q4.45,-23.75 -0.45,-36.85m0.5,-0.15q4.95,13.2 0.5,37.1q-3.75,19.8 -13.2,43.65q-8.5,21.25 -18.1,37.7q-10.4,17.65 -16.15,19.3q-7.2,2.95 -40.45,-4.7q-32.2,-7.5 -50.95,-16.05q-19,-8.65 -29.85,-19.3q-10.2,-10.15 -15.3,-23.9l-0.05,-0.1q-5.3,-13.05 -5.3,-26.6q-0.1,-28.15 25.3,-37.4q28.35,-10.4 52.25,3.25q6.6,3.75 11.95,8.6l-0.3,-2.25l0,-0.1q-0.95,-9.1 1.05,-16.95q4.95,-20.7 32.9,-40.85l0.65,-0.4q23.85,-10.5 45.6,10.3q7.15,6.8 13.1,16.35q4.45,7.2 6.35,12.35" fill="url(#gradient7)" fill-rule="evenodd" id="svg_9"/>
   <path d="m192.45,46.85q4.9,13.1 0.45,36.85q-3.7,19.7 -13.15,43.6q-8.45,21.2 -18.1,37.6q-10.2,17.4 -15.8,19.05q-7.15,2.95 -40.2,-4.7q-32.1,-7.5 -50.85,-16.05q-18.85,-8.6 -29.65,-19.2q-10.2,-10 -15.25,-23.65l-0.05,-0.1q-5.2,-13 -5.25,-26.45q-0.05,-27.8 25,-36.9q28.15,-10.3 51.8,3.2l0.05,0.05q7.15,4.1 12.9,9.45l-0.55,-3.65l0,-0.05q-0.95,-9.1 1.05,-16.85q5,-20.5 32.7,-40.55l0.55,-0.35q23.55,-10.35 45,10.2q7.15,6.75 13.1,16.35q4.4,7.05 6.25,12.15m-0.45,0.2q-1.85,-5 -6.25,-12.1q-5.9,-9.45 -13,-16.2q-21.15,-20.3 -44.4,-10.1l-0.55,0.25q-27.5,19.9 -32.45,40.3q-1.95,7.65 -1.05,16.65l0,0.05l0.8,5.2q-6.1,-6.05 -13.9,-10.5q-23.55,-13.4 -51.45,-3.2q-24.7,9 -24.65,36.4q0,13.35 5.25,26.25l0.05,0.1q5,13.55 15.1,23.45q10.7,10.55 29.5,19.15q18.65,8.5 50.75,15.95q32.85,7.6 39.9,4.8q5.5,-1.75 15.55,-18.85q9.6,-16.4 18.1,-37.55q9.4,-23.85 13.1,-43.5q4.4,-23.6 -0.4,-36.55" fill="url(#gradient8)" fill-rule="evenodd" id="svg_10"/>
   <path d="m191.5,47.2q-1.85,-5 -6.2,-12q-5.85,-9.4 -12.9,-16.05q-20.9,-20.1 -43.9,-10q-0.2,0.05 -0.35,0.2q-27.35,19.75 -32.35,40q-1.9,7.6 -1.05,16.45l0.05,0l1.1,6.8q-6.5,-6.7 -14.95,-11.6q-23.35,-13.3 -51,-3.15q-24.4,8.9 -24.4,35.95q0.1,13.25 5.3,26.1l0.05,0.05q4.9,13.45 14.95,23.3q10.7,10.5 29.35,19.05l0,0.05q18.65,8.4 50.65,15.85q32.6,7.6 39.65,4.8q5.35,-1.7 15.3,-18.65q9.6,-16.35 18,-37.45q9.4,-23.75 13.1,-43.4q4.4,-23.45 -0.4,-36.3m0.5,-0.15q4.8,12.95 0.4,36.55q-3.7,19.65 -13.1,43.5q-8.5,21.15 -18.1,37.55q-10.05,17.1 -15.55,18.85q-7.05,2.8 -39.9,-4.8q-32.1,-7.45 -50.75,-15.95q-18.8,-8.6 -29.5,-19.15q-10.1,-9.9 -15.1,-23.45l-0.05,-0.1q-5.25,-12.9 -5.25,-26.25q-0.05,-27.4 24.65,-36.4q27.9,-10.2 51.45,3.2q7.8,4.45 13.9,10.5l-0.8,-5.2l0,-0.05q-0.9,-9 1.05,-16.65q4.95,-20.4 32.45,-40.3l0.55,-0.25q23.25,-10.2 44.4,10.1q7.1,6.75 13,16.2q4.4,7.1 6.25,12.1" fill="url(#gradient9)" fill-rule="evenodd" id="svg_11"/>
   <path d="m191.5,47.2q4.8,12.85 0.4,36.3q-3.7,19.65 -13.1,43.4q-8.4,21.1 -18,37.45q-9.95,16.95 -15.3,18.65q-7.05,2.8 -39.65,-4.8q-32,-7.45 -50.65,-15.85l0,-0.05q-18.65,-8.55 -29.35,-19.05q-10.05,-9.85 -14.95,-23.3l-0.05,-0.05q-5.2,-12.85 -5.3,-26.1q0,-27.05 24.4,-35.95q27.65,-10.15 51,3.15q8.45,4.9 14.95,11.6l-1.1,-6.8l-0.05,0q-0.85,-8.85 1.05,-16.45q5,-20.25 32.35,-40q0.15,-0.15 0.35,-0.2q23,-10.1 43.9,10q7.05,6.65 12.9,16.05q4.35,7 6.2,12m-0.5,0.2q-1.8,-4.95 -6.1,-11.9q-5.8,-9.35 -12.8,-16q-20.65,-19.8 -43.35,-9.95q-0.15,0.05 -0.3,0.25q-27.15,19.6 -32.15,39.7q-1.85,7.5 -1,16.25l-0.05,0.05l1.45,8.45q-6.8,-7.5 -16,-12.75q-23.1,-13.2 -50.55,-3.15q-24.05,8.8 -24,35.45q0,13.2 5.15,25.9l0.05,0.05q4.85,13.35 14.85,23.15q10.6,10.4 29.2,18.9q18.65,8.5 50.55,15.9q32.4,7.5 39.35,4.8q5.2,-1.7 15.1,-18.4q9.55,-16.3 17.95,-37.4q9.4,-23.7 13.05,-43.3q4.4,-23.25 -0.4,-36" fill="url(#gradient10)" fill-rule="evenodd" id="svg_12"/>
   <path d="m193.4,46.5q5,13.25 0.5,37.4q-3.7,19.8 -13.2,43.8q-8.5,21.25 -18.1,37.7q-10.55,17.9 -16.4,19.55q-7.25,3.05 -40.75,-4.7q-32.25,-7.5 -51.05,-16.1q-19.1,-8.65 -29.95,-19.45q-10.35,-10.15 -15.5,-23.95l-0.05,-0.15q-5.3,-13.2 -5.3,-26.8l-0.05,-0.05q0,-28.45 25.7,-37.8q28.6,-10.45 52.7,3.3q5.95,3.4 10.9,7.7l-0.1,-0.9l0.05,-0.05q-1,-9.25 1.05,-17.2q5,-20.8 33.05,-41.15l0.8,-0.45q24.15,-10.6 46.1,10.4q7.25,6.9 13.25,16.55q4.45,7.2 6.35,12.35m-0.45,0.2q-1.9,-5.15 -6.35,-12.35q-5.95,-9.55 -13.1,-16.35q-21.75,-20.8 -45.6,-10.3l-0.65,0.4q-27.95,20.15 -32.9,40.85q-2,7.85 -1.05,16.95l0,0.1l0.3,2.25q-5.35,-4.85 -11.95,-8.6q-23.9,-13.65 -52.25,-3.25q-25.4,9.25 -25.3,37.4q0,13.55 5.3,26.6l0.05,0.1q5.1,13.75 15.3,23.9q10.85,10.65 29.85,19.3q18.75,8.55 50.95,16.05q33.25,7.65 40.45,4.7q5.75,-1.65 16.15,-19.3q9.6,-16.45 18.1,-37.7q9.45,-23.85 13.2,-43.65q4.45,-23.9 -0.5,-37.1" fill="url(#gradient11)" fill-rule="evenodd" id="svg_13"/>
   <path d="m190.55,47.55q-1.8,-4.9 -6.1,-11.8q-5.75,-9.25 -12.7,-15.85q-20.45,-19.55 -42.85,-9.85l-0.15,0.15q-27,19.5 -31.95,39.45q-1.9,7.4 -1,16.05q0.2,2 1.75,10.2q-7.15,-8.3 -17.15,-13.95q-22.9,-13.05 -50.1,-3.1q-23.75,8.7 -23.65,34.9q0,13.1 5.15,25.8l0,0.05q4.9,13.25 14.8,22.95q10.5,10.35 29.05,18.8q18.55,8.5 50.45,15.85q32.1,7.45 39.05,4.85q5.1,-1.75 14.8,-18.25q9.5,-16.25 17.95,-37.3q9.35,-23.65 13.05,-43.2q4.3,-23 -0.4,-35.75m0.45,-0.15q4.8,12.75 0.4,36q-3.65,19.6 -13.05,43.3q-8.4,21.1 -17.95,37.4q-9.9,16.7 -15.1,18.4q-6.95,2.7 -39.35,-4.8q-31.9,-7.4 -50.55,-15.9q-18.6,-8.5 -29.2,-18.9q-10,-9.8 -14.85,-23.15l-0.05,-0.05q-5.15,-12.7 -5.15,-25.9q-0.05,-26.65 24,-35.45q27.45,-10.05 50.55,3.15q9.2,5.25 16,12.75l-1.45,-8.45l0.05,-0.05q-0.85,-8.75 1,-16.25q5,-20.1 32.15,-39.7q0.15,-0.2 0.3,-0.25q22.7,-9.85 43.35,9.95q7,6.65 12.8,16q4.3,6.95 6.1,11.9" fill="url(#gradient12)" fill-rule="evenodd" id="svg_14"/>
   <path d="m190.05,47.75q-1.8,-4.85 -6.05,-11.7q-5.75,-9.25 -12.6,-15.85q-20.15,-19.25 -42.25,-9.65l-0.1,0.05q-26.8,19.4 -31.7,39.15q-1.9,7.3 -1.05,15.9l2.1,12.1q-7.45,-9.25 -18.2,-15.4q-22.75,-12.9 -49.7,-3.05q-23.4,8.55 -23.35,34.5q0,13.05 5.1,25.55l0,0.05q4.85,13.1 14.65,22.75q10.5,10.3 28.9,18.75q18.55,8.4 50.4,15.8q31.85,7.4 38.75,4.85q5,-1.8 14.5,-18q9.55,-16.25 17.95,-37.25q9.3,-23.6 13,-43.1q4.25,-22.85 -0.35,-35.45m0.5,-0.2q4.7,12.75 0.4,35.75q-3.7,19.55 -13.05,43.2q-8.45,21.05 -17.95,37.3q-9.7,16.5 -14.8,18.25q-6.95,2.6 -39.05,-4.85q-31.9,-7.35 -50.45,-15.85q-18.55,-8.45 -29.05,-18.8q-9.9,-9.7 -14.8,-22.95l0,-0.05q-5.15,-12.7 -5.15,-25.8q-0.1,-26.2 23.65,-34.9q27.2,-9.95 50.1,3.1q10,5.65 17.15,13.95q-1.55,-8.2 -1.75,-10.2q-0.9,-8.65 1,-16.05q4.95,-19.95 31.95,-39.45l0.15,-0.15q22.4,-9.7 42.85,9.85q6.95,6.6 12.7,15.85q4.3,6.9 6.1,11.8" fill="url(#gradient13)" fill-rule="evenodd" id="svg_15"/>
   <path d="m190.05,47.75q4.6,12.6 0.35,35.45q-3.7,19.5 -13,43.1q-8.4,21 -17.95,37.25q-9.5,16.2 -14.5,18q-6.9,2.55 -38.75,-4.85q-31.85,-7.4 -50.4,-15.8q-18.4,-8.45 -28.9,-18.75q-9.8,-9.65 -14.65,-22.75l0,-0.05q-5.1,-12.5 -5.1,-25.55q-0.05,-25.95 23.35,-34.5q26.95,-9.85 49.7,3.05q10.75,6.15 18.2,15.4l-2.1,-12.1q-0.85,-8.6 1.05,-15.9q4.9,-19.75 31.7,-39.15l0.1,-0.05q22.1,-9.6 42.25,9.65q6.85,6.6 12.6,15.85q4.25,6.85 6.05,11.7" fill="url(#gradient14)" fill-rule="evenodd" id="svg_16"/>
  </g>
 </g>
</svg>