<?xml version="1.0" encoding="UTF-8" standalone="no"?>
<svg xmlns:xlink="http://www.w3.org/1999/xlink" height="128.9px" width="157.3px" xmlns="http://www.w3.org/2000/svg">
  <g transform="matrix(1.0, 0.0, 0.0, 1.0, 79.75, 85.95)">
    <path d="M75.35 -33.25 Q74.2 -34.0 74.7 -35.25 75.5 -36.4 76.75 -35.9 77.9 -35.1 77.35 -33.85 76.6 -32.7 75.35 -33.25" fill="#ffffff" fill-rule="evenodd" stroke="none"/>
    <path d="M46.3 -15.65 Q45.15 -16.4 45.65 -17.65 46.45 -18.8 47.7 -18.3 48.85 -17.5 48.3 -16.25 47.55 -15.1 46.3 -15.65" fill="#ffffff" fill-rule="evenodd" stroke="none"/>
    <path d="M45.0 -58.1 Q43.85 -58.85 44.35 -60.1 45.15 -61.25 46.4 -60.75 47.55 -59.95 47.0 -58.7 46.25 -57.55 45.0 -58.1" fill="#ffffff" fill-rule="evenodd" stroke="none"/>
    <path d="M26.15 -68.0 Q25.0 -68.75 25.5 -70.0 26.3 -71.15 27.55 -70.65 28.7 -69.85 28.15 -68.6 27.4 -67.45 26.15 -68.0" fill="#ffffff" fill-rule="evenodd" stroke="none"/>
    <path d="M20.6 -83.15 Q19.45 -83.9 19.95 -85.15 20.75 -86.3 22.0 -85.8 23.15 -85.0 22.6 -83.75 21.85 -82.6 20.6 -83.15" fill="#ffffff" fill-rule="evenodd" stroke="none"/>
    <path d="M68.0 -24.9 Q66.85 -25.65 67.35 -26.9 68.15 -28.05 69.4 -27.55 70.55 -26.75 70.0 -25.5 69.25 -24.35 68.0 -24.9" fill="#ffffff" fill-rule="evenodd" stroke="none"/>
    <path d="M60.85 -44.85 Q64.7 -42.35 62.95 -38.05 60.4 -34.2 56.15 -35.95 52.25 -38.5 54.05 -42.75 56.55 -46.65 60.85 -44.85" fill="#ffffff" fill-rule="evenodd" stroke="none"/>
    <path d="M22.3 -71.05 Q26.15 -68.55 24.4 -64.25 21.85 -60.4 17.6 -62.15 13.7 -64.7 15.5 -68.95 18.0 -72.85 22.3 -71.05" fill="#ffffff" fill-rule="evenodd" stroke="none"/>
    <path d="M-17.9 28.1 Q-11.85 32.05 -14.6 38.8 -18.55 44.85 -25.25 42.1 -31.35 38.15 -28.6 31.4 -24.6 25.35 -17.9 28.1" fill="#ffffff" fill-rule="evenodd" stroke="none"/>
    <path d="M25.5 -14.55 Q29.35 -12.05 27.6 -7.75 25.05 -3.9 20.8 -5.65 16.9 -8.2 18.7 -12.45 21.2 -16.35 25.5 -14.55" fill="#ffffff" fill-rule="evenodd" stroke="none"/>
    <path d="M12.95 27.75 Q16.8 30.25 15.05 34.55 12.5 38.4 8.25 36.65 4.35 34.1 6.15 29.85 8.65 25.95 12.95 27.75" fill="#ffffff" fill-rule="evenodd" stroke="none"/>
    <path d="M-17.35 2.35 Q-14.85 -1.55 -10.55 0.25 -6.7 2.75 -8.45 7.05 -11.0 10.9 -15.25 9.15 -19.15 6.6 -17.35 2.35" fill="#ffffff" fill-rule="evenodd" stroke="none"/>
    <path d="M58.05 -22.75 Q60.2 -21.3 59.25 -18.95 57.8 -16.8 55.45 -17.75 53.3 -19.2 54.25 -21.55 55.7 -23.7 58.05 -22.75" fill="#ffffff" fill-rule="evenodd" stroke="none"/>
    <path d="M53.5 -63.1 Q55.65 -61.65 54.7 -59.3 53.25 -57.15 50.9 -58.1 48.75 -59.55 49.7 -61.9 51.15 -64.05 53.5 -63.1" fill="#ffffff" fill-rule="evenodd" stroke="none"/>
    <path d="M15.6 -78.4 Q17.75 -76.95 16.8 -74.6 15.35 -72.45 13.0 -73.4 10.85 -74.85 11.8 -77.2 13.25 -79.35 15.6 -78.4" fill="#ffffff" fill-rule="evenodd" stroke="none"/>
    <path d="M24.25 -48.75 Q25.7 -50.9 28.05 -49.95 30.2 -48.5 29.25 -46.15 27.8 -44.0 25.45 -44.95 23.3 -46.4 24.25 -48.75" fill="#ffffff" fill-rule="evenodd" stroke="none"/>
    <path d="M-7.6 -55.15 Q-5.45 -53.7 -6.4 -51.35 -7.85 -49.2 -10.2 -50.15 -12.35 -51.6 -11.4 -53.95 -9.95 -56.1 -7.6 -55.15" fill="#ffffff" fill-rule="evenodd" stroke="none"/>
    <path d="M29.75 3.7 Q31.9 5.15 30.95 7.5 29.5 9.65 27.15 8.7 25.0 7.25 25.95 4.9 27.4 2.75 29.75 3.7" fill="#ffffff" fill-rule="evenodd" stroke="none"/>
    <path d="M38.9 -26.5 Q41.05 -25.05 40.1 -22.7 38.65 -20.55 36.3 -21.5 34.15 -22.95 35.1 -25.3 36.55 -27.45 38.9 -26.5" fill="#ffffff" fill-rule="evenodd" stroke="none"/>
    <path d="M2.8 -11.1 Q1.35 -8.95 -1.0 -9.9 -3.15 -11.35 -2.2 -13.7 -0.75 -15.85 1.6 -14.9 3.75 -13.45 2.8 -11.1" fill="#ffffff" fill-rule="evenodd" stroke="none"/>
    <path d="M-56.1 25.6 Q-56.75 26.8 -58.05 26.45 -59.3 25.8 -58.9 24.5 -58.3 23.3 -56.95 23.65 -55.75 24.25 -56.1 25.6" fill="#ffffff" fill-rule="evenodd" stroke="none"/>
    <path d="M-76.85 -1.3 Q-77.5 -0.1 -78.8 -0.45 -80.0 -1.1 -79.65 -2.4 -79.05 -3.6 -77.7 -3.25 -76.5 -2.65 -76.85 -1.3" fill="#ffffff" fill-rule="evenodd" stroke="none"/>
    <path d="M-34.8 -7.35 Q-35.45 -6.15 -36.75 -6.5 -37.95 -7.15 -37.6 -8.45 -37.0 -9.65 -35.65 -9.3 -34.45 -8.7 -34.8 -7.35" fill="#ffffff" fill-rule="evenodd" stroke="none"/>
    <path d="M-27.1 -27.15 Q-27.75 -25.95 -29.05 -26.3 -30.25 -26.95 -29.9 -28.25 -29.3 -29.45 -27.95 -29.1 -26.75 -28.5 -27.1 -27.15" fill="#ffffff" fill-rule="evenodd" stroke="none"/>
    <path d="M-12.65 -34.35 Q-13.3 -33.15 -14.6 -33.5 -15.8 -34.15 -15.45 -35.45 -14.85 -36.65 -13.5 -36.3 -12.3 -35.7 -12.65 -34.35" fill="#ffffff" fill-rule="evenodd" stroke="none"/>
    <path d="M-65.25 19.25 Q-65.9 20.45 -67.2 20.1 -68.4 19.45 -68.05 18.15 -67.45 16.95 -66.1 17.3 -64.9 17.9 -65.25 19.25" fill="#ffffff" fill-rule="evenodd" stroke="none"/>
    <path d="M-48.95 8.75 Q-51.05 12.9 -55.5 11.65 -59.65 9.55 -58.35 5.1 -56.25 1.0 -51.85 2.25 -47.7 4.35 -48.95 8.75" fill="#ffffff" fill-rule="evenodd" stroke="none"/>
    <path d="M-27.25 -32.4 Q-29.35 -28.3 -33.8 -29.55 -37.95 -31.65 -36.65 -36.1 -34.55 -40.25 -30.15 -38.95 -26.0 -36.85 -27.25 -32.4" fill="#ffffff" fill-rule="evenodd" stroke="none"/>
    <path d="M-71.3 8.45 Q-72.45 10.75 -74.9 10.05 -77.2 8.9 -76.5 6.45 -75.35 4.15 -72.9 4.85 -70.6 6.0 -71.3 8.45" fill="#ffffff" fill-rule="evenodd" stroke="none"/>
    <path d="M-31.7 -0.55 Q-32.85 1.75 -35.3 1.05 -37.6 -0.1 -36.9 -2.55 -35.75 -4.85 -33.3 -4.15 -31.0 -3.0 -31.7 -0.55" fill="#ffffff" fill-rule="evenodd" stroke="none"/>
    <path d="M-20.75 -39.9 Q-21.9 -37.6 -24.35 -38.3 -26.65 -39.45 -25.95 -41.9 -24.8 -44.2 -22.35 -43.5 -20.05 -42.35 -20.75 -39.9" fill="#ffffff" fill-rule="evenodd" stroke="none"/>
    <path d="M-47.65 -24.4 Q-48.8 -22.1 -51.25 -22.8 -53.55 -23.95 -52.85 -26.4 -51.7 -28.7 -49.25 -28.0 -46.95 -26.85 -47.65 -24.4" fill="#ffffff" fill-rule="evenodd" stroke="none"/>
    <path d="M-46.4 -60.35 Q-47.55 -58.05 -50.0 -58.75 -52.3 -59.9 -51.6 -62.35 -50.45 -64.65 -48.0 -63.95 -45.7 -62.8 -46.4 -60.35" fill="#ffffff" fill-rule="evenodd" stroke="none"/>
    <path d="M-69.7 -10.95 Q-70.85 -8.65 -73.3 -9.35 -75.6 -10.5 -74.9 -12.95 -73.75 -15.25 -71.3 -14.55 -69.0 -13.4 -69.7 -10.95" fill="#ffffff" fill-rule="evenodd" stroke="none"/>
  </g>
</svg>
