<?xml version="1.0" encoding="UTF-8" standalone="no"?>
<svg xmlns:xlink="http://www.w3.org/1999/xlink" height="38.3px" width="22.6px" xmlns="http://www.w3.org/2000/svg">
  <g transform="matrix(1.0, 0.0, 0.0, 1.0, 0.5, 0.5)">
    <path d="M14.0 16.4 Q13.25 19.0 13.5 22.05 13.6 23.65 14.0 24.95 14.35 26.3 15.5 27.4 16.6 28.5 19.1 29.45 20.15 29.9 20.85 31.0 21.5 32.05 21.6 33.4 21.7 34.8 21.1 36.05 20.65 36.75 18.8 37.0 L14.4 37.3 9.7 37.1 6.35 36.6 Q4.45 35.95 3.2 32.75 1.95 29.55 1.85 24.85 1.75 20.1 3.3 14.9 L4.25 12.1 5.1 8.4 5.75 8.8 Q6.15 9.15 7.2 9.55 L10.3 10.35 16.1 10.95 Q14.8 13.85 14.0 16.4" fill="#ffffff" fill-rule="evenodd" stroke="none"/>
    <path d="M14.0 16.4 Q13.25 19.0 13.5 22.05 13.6 23.65 14.0 24.95 14.35 26.3 15.5 27.4 16.6 28.5 19.1 29.45 20.15 29.9 20.85 31.0 21.5 32.05 21.6 33.4 21.7 34.8 21.1 36.05 20.65 36.75 18.8 37.0 L14.4 37.3 9.7 37.1 6.35 36.6 Q4.45 35.95 3.2 32.75 1.95 29.55 1.85 24.85 1.75 20.1 3.3 14.9 L4.25 12.1 5.1 8.4 5.75 8.8 Q6.15 9.15 7.2 9.55 L10.3 10.35 16.1 10.95 Q14.8 13.85 14.0 16.4 Z" fill="none" stroke="#877a7e" stroke-linecap="round" stroke-linejoin="round" stroke-width="1.0"/>
    <path d="M11.55 3.65 L13.2 4.2 Q13.25 5.15 14.0 5.75 L15.6 6.9 Q16.45 7.5 16.7 8.45 L16.4 10.45 15.6 13.2 Q15.15 14.55 15.2 15.1 L15.1 17.1 14.65 19.95 14.35 21.95 Q14.25 23.4 14.55 24.0 L15.25 25.0 15.95 26.0 Q16.25 26.65 16.15 28.05 L13.4 28.5 9.55 28.7 5.7 28.6 2.95 28.1 Q1.05 27.25 0.7 25.3 0.4 23.3 0.65 21.1 L0.8 17.25 Q0.75 16.75 1.05 16.4 L1.7 15.8 Q2.0 15.5 1.9 15.1 L0.8 14.2 Q0.7 13.75 1.1 13.3 L1.45 12.35 1.35 10.2 1.6 7.1 1.95 3.95 2.3 1.8 Q2.4 0.9 1.85 0.5 L0.8 0.05 1.05 0.05 Q2.5 0.1 4.4 0.95 L8.2 2.7 Q10.1 3.6 11.55 3.65" fill="#106189" fill-rule="evenodd" stroke="none"/>
    <path d="M13.2 4.2 Q13.25 5.15 14.0 5.75 L15.6 6.9 Q16.45 7.5 16.7 8.45 L16.4 10.45 15.6 13.2 Q15.15 14.55 15.2 15.1 L15.1 17.1 14.65 19.95 14.35 21.95 Q14.25 23.4 14.55 24.0 L15.25 25.0 15.95 26.0 Q16.25 26.65 16.15 28.05 L13.4 28.5 9.55 28.7 5.7 28.6 2.95 28.1 Q1.05 27.25 0.7 25.3 0.4 23.3 0.65 21.1 L0.8 17.25 Q0.75 16.75 1.05 16.4 L1.7 15.8 Q2.0 15.5 1.9 15.1 L0.8 14.2 Q0.7 13.75 1.1 13.3 L1.45 12.35 1.35 10.2 1.6 7.1 1.95 3.95 2.3 1.8 Q2.4 0.9 1.85 0.5 L0.8 0.05 0.7 0.05 0.0 0.0 M0.8 0.05 L1.05 0.05 Q2.5 0.1 4.4 0.95 L8.2 2.7 Q10.1 3.6 11.55 3.65" fill="none" stroke="#6c91ad" stroke-linecap="round" stroke-linejoin="round" stroke-width="1.0"/>
    <path d="M11.45 25.45 L11.85 25.85 Q12.5 26.1 13.05 26.8 13.6 27.5 13.6 28.25 L13.45 29.1 Q13.3 29.3 12.95 29.35 L12.05 29.7 9.3 31.05 6.35 31.2 Q5.55 30.9 4.9 29.95 4.25 29.0 4.1 27.9 4.0 26.85 4.8 26.15 5.55 25.65 6.75 25.8 L9.2 26.05 Q10.45 26.15 11.45 25.45" fill="#ffffff" fill-rule="evenodd" stroke="none"/>
    <path d="M11.45 25.45 Q10.45 26.15 9.2 26.05 L6.75 25.8 Q5.55 25.65 4.8 26.15 4.0 26.85 4.1 27.9 4.25 29.0 4.9 29.95 5.55 30.9 6.35 31.2 L9.3 31.05 12.05 29.7 12.95 29.35 Q13.3 29.3 13.45 29.1 L13.6 28.25 Q13.6 27.5 13.05 26.8 12.5 26.1 11.85 25.85" fill="none" stroke="#877a7e" stroke-linecap="round" stroke-linejoin="round" stroke-width="1.0"/>
    <path d="M16.45 25.6 Q17.85 24.6 18.75 25.2 19.65 25.85 19.55 27.05 19.45 28.25 17.9 29.0" fill="none" stroke="#877a7e" stroke-linecap="round" stroke-linejoin="round" stroke-width="1.0"/>
  </g>
</svg>
