<?xml version="1.0" encoding="UTF-8" standalone="no"?>
<svg xmlns:xlink="http://www.w3.org/1999/xlink" height="69.75px" width="35.85px" xmlns="http://www.w3.org/2000/svg">
  <g transform="matrix(1.0, 0.0, 0.0, 1.0, -61.5, -368.0)">
    <path d="M67.35 368.5 Q71.95 370.85 75.95 374.0 79.95 377.1 82.9 381.0 85.8 384.9 87.2 389.55 88.2 393.2 88.25 397.15 L88.35 405.0 Q88.4 408.9 89.55 412.4 90.15 414.0 91.15 414.8 L93.25 416.2 95.2 417.45 Q96.1 418.15 96.55 419.55 97.45 423.1 95.6 426.5 93.75 429.85 90.25 432.7 86.25 435.95 81.3 436.85 76.35 437.7 71.3 436.65 66.25 435.6 62.0 433.05 L67.35 368.5" fill="#fff7f3" fill-rule="evenodd" stroke="none"/>
    <path d="M67.35 368.5 Q71.95 370.85 75.95 374.0 79.95 377.1 82.9 381.0 85.8 384.9 87.2 389.55 88.2 393.2 88.25 397.15 L88.35 405.0 Q88.4 408.9 89.55 412.4 90.15 414.0 91.15 414.8 L93.25 416.2 95.2 417.45 Q96.1 418.15 96.55 419.55 97.45 423.1 95.6 426.5 93.75 429.85 90.25 432.7 86.25 435.95 81.3 436.85 76.35 437.7 71.3 436.65 66.25 435.6 62.0 433.05" fill="none" stroke="#7f5c40" stroke-linecap="round" stroke-linejoin="round" stroke-width="1.0"/>
  </g>
</svg>
