<?xml version="1.0" encoding="UTF-8" standalone="no"?>
<svg xmlns:xlink="http://www.w3.org/1999/xlink" height="16.05px" width="18.1px" xmlns="http://www.w3.org/2000/svg">
  <g transform="matrix(1.0, 0.0, 0.0, 1.0, 0.0, 0.0)">
    <path d="M13.85 3.55 Q15.6 5.15 15.6 6.9 15.6 8.55 14.6 10.05 L12.45 12.25 12.4 12.25 Q10.05 13.8 8.05 13.45 6.1 13.15 4.7 11.75 3.3 10.35 2.8 8.65 2.3 6.85 3.0 5.4 3.65 3.8 5.95 3.6 L6.45 3.7 6.65 3.9 8.1 3.25 8.15 3.25 Q9.45 2.65 10.85 2.55 12.4 2.45 13.75 3.5 L13.85 3.55" fill="#ffc7d8" fill-rule="evenodd" stroke="none"/>
    <path d="M15.55 1.65 Q18.2 4.1 18.1 6.8 L18.1 6.9 Q18.15 9.3 16.7 11.45 15.45 13.2 13.9 14.3 L13.85 14.35 Q10.55 16.5 7.7 15.95 L7.65 15.95 Q4.85 15.55 2.9 13.6 L2.85 13.55 Q1.1 11.7 0.4 9.45 L0.35 9.35 Q-0.45 6.55 0.7 4.35 L0.7 4.3 Q1.8 1.45 5.7 1.1 L6.65 1.1 7.15 0.9 7.2 0.85 Q8.9 0.15 10.7 0.0 13.1 -0.2 15.3 1.5 L15.55 1.65 M14.8 2.2 Q12.9 0.7 10.75 0.85 9.1 1.0 7.5 1.65 L6.7 2.0 5.8 1.95 Q2.4 2.25 1.45 4.65 L1.45 4.7 Q0.5 6.65 1.2 9.15 L1.2 9.2 Q1.85 11.25 3.45 12.95 L3.5 13.0 Q5.25 14.75 7.8 15.15 10.35 15.6 13.35 13.65 14.85 12.6 16.0 10.95 17.25 9.05 17.25 6.9 L17.25 6.8 Q17.3 4.45 15.0 2.3 L14.8 2.2" fill="#ffc7d8" fill-opacity="0.24705882" fill-rule="evenodd" stroke="none"/>
    <path d="M14.8 2.2 L15.0 2.3 Q17.3 4.45 17.25 6.8 L17.25 6.9 Q17.25 9.05 16.0 10.95 14.85 12.6 13.35 13.65 10.35 15.6 7.8 15.15 5.25 14.75 3.5 13.0 L3.45 12.95 Q1.85 11.25 1.2 9.2 L1.2 9.15 Q0.5 6.65 1.45 4.7 L1.45 4.65 Q2.4 2.25 5.8 1.95 L6.7 2.0 7.5 1.65 Q9.1 1.0 10.75 0.85 12.9 0.7 14.8 2.2 M14.4 2.95 L14.3 2.85 Q12.65 1.6 10.8 1.7 9.3 1.8 7.8 2.45 L6.75 2.9 5.85 2.75 Q3.05 3.05 2.2 5.0 1.35 6.7 2.0 8.9 2.55 10.85 4.05 12.35 L4.1 12.4 Q5.65 13.95 7.9 14.3 10.2 14.7 12.85 12.95 L12.9 12.9 Q14.25 12.0 15.3 10.5 16.4 8.8 16.4 6.9 L16.4 6.85 Q16.45 4.8 14.4 2.95" fill="#ffc7d8" fill-opacity="0.49803922" fill-rule="evenodd" stroke="none"/>
    <path d="M14.4 2.95 Q16.45 4.8 16.4 6.85 L16.4 6.9 Q16.4 8.8 15.3 10.5 14.25 12.0 12.9 12.9 L12.85 12.95 Q10.2 14.7 7.9 14.3 5.65 13.95 4.1 12.4 L4.05 12.35 Q2.55 10.85 2.0 8.9 1.35 6.7 2.2 5.0 3.05 3.05 5.85 2.75 L6.75 2.9 7.8 2.45 Q9.3 1.8 10.8 1.7 12.65 1.6 14.3 2.85 L14.4 2.95 M13.85 3.55 L13.75 3.5 Q12.4 2.45 10.85 2.55 9.45 2.65 8.15 3.25 L8.1 3.25 6.65 3.9 6.45 3.7 5.95 3.6 Q3.65 3.8 3.0 5.4 2.3 6.85 2.8 8.65 3.3 10.35 4.7 11.75 6.1 13.15 8.05 13.45 10.05 13.8 12.4 12.25 L12.45 12.25 14.6 10.05 Q15.6 8.55 15.6 6.9 15.6 5.15 13.85 3.55" fill="#ffc7d8" fill-opacity="0.7490196" fill-rule="evenodd" stroke="none"/>
  </g>
</svg>
