<?xml version="1.0" encoding="UTF-8" standalone="no"?>
<svg xmlns:xlink="http://www.w3.org/1999/xlink" height="23.25px" width="18.05px" xmlns="http://www.w3.org/2000/svg">
  <g transform="matrix(1.0, 0.0, 0.0, 1.0, 0.0, 0.0)">
    <path d="M18.05 6.8 Q17.7 9.5 16.25 12.6 14.85 15.75 12.45 18.4 10.1 21.05 6.95 22.4 3.8 23.75 0.0 22.95 1.9 17.45 2.2 12.35 2.45 7.25 2.05 1.5 L4.35 5.6 8.55 4.6 Q10.65 4.0 12.4 2.95 14.1 1.85 15.05 0.0 14.55 2.95 12.85 5.25 11.15 7.55 8.45 9.45 10.95 9.55 13.4 8.65 L18.05 6.8" fill="#4f260b" fill-rule="evenodd" stroke="none"/>
  </g>
</svg>
