<?xml version="1.0" encoding="UTF-8" standalone="no"?>
<svg xmlns:xlink="http://www.w3.org/1999/xlink" height="31.15px" width="32.25px" xmlns="http://www.w3.org/2000/svg">
  <g transform="matrix(1.0, 0.0, 0.0, 1.0, 0.0, 0.0)">
    <path d="M24.65 2.9 Q28.15 5.45 29.8 9.2 31.45 12.95 31.1 17.0 30.75 21.05 28.25 24.65 25.7 28.15 21.95 29.8 18.2 31.45 14.15 31.1 10.1 30.75 6.5 28.25 3.0 25.7 1.35 21.95 -0.3 18.2 0.05 14.15 0.4 10.1 2.9 6.5 5.45 3.0 9.2 1.35 12.95 -0.3 17.0 0.05 21.05 0.4 24.65 2.9" fill="#106189" fill-rule="evenodd" stroke="none"/>
    <path d="M25.8 4.6 Q29.0 6.95 30.55 10.4 32.05 13.8 31.7 17.55 31.4 21.3 29.1 24.55 26.75 27.75 23.35 29.3 19.9 30.8 16.2 30.45 12.45 30.15 9.2 27.85 5.95 25.5 4.45 22.1 2.95 18.65 3.25 14.95 3.55 11.2 5.85 7.95 8.2 4.7 11.65 3.2 15.05 1.7 18.8 2.0 22.55 2.3 25.8 4.6" fill="#ffffff" fill-rule="evenodd" stroke="none"/>
    <path d="M25.8 4.6 Q22.55 2.3 18.8 2.0 15.05 1.7 11.65 3.2 8.2 4.7 5.85 7.95 3.55 11.2 3.25 14.95 2.95 18.65 4.45 22.1 5.95 25.5 9.2 27.85 12.45 30.15 16.2 30.45 19.9 30.8 23.35 29.3 26.75 27.75 29.1 24.55 31.4 21.3 31.7 17.55 32.05 13.8 30.55 10.4 29.0 6.95 25.8 4.6 Z" fill="none" stroke="#999999" stroke-linecap="round" stroke-linejoin="round" stroke-width="1.0"/>
    <path d="M28.2 18.5 L21.65 20.95 19.95 27.7 15.65 22.25 8.7 22.7 12.55 16.9 9.95 10.45 16.65 12.3 22.0 7.85 22.3 14.8 28.2 18.5" fill="#000000" fill-rule="evenodd" stroke="none"/>
  </g>
</svg>
