<?xml version="1.0" encoding="UTF-8" standalone="no"?>
<svg xmlns:xlink="http://www.w3.org/1999/xlink" height="189.45px" width="199.6px" xmlns="http://www.w3.org/2000/svg">
  <g transform="matrix(1.0, 0.0, 0.0, 1.0, 0.0, 0.0)">
    <path d="M196.75 45.25 Q202.15 59.25 197.4 84.6 193.65 104.7 184.0 129.0 175.4 150.6 165.65 167.3 154.15 186.8 147.45 188.35 139.8 191.9 104.65 183.75 L104.7 183.75 Q72.0 176.15 52.95 167.5 33.2 158.4 21.95 147.3 L21.9 147.3 Q11.1 136.65 5.65 122.05 0.05 108.15 0.0 93.75 -0.1 62.7 28.0 52.55 58.2 41.5 83.6 56.1 L83.7 56.1 88.9 59.35 Q88.95 53.3 90.35 47.95 L90.4 47.9 Q95.45 26.0 124.85 4.7 125.5 4.25 126.25 3.95 152.5 -7.75 176.3 15.0 183.8 22.2 190.05 32.25 194.8 39.8 196.75 45.25 M196.3 45.45 Q194.35 40.05 189.6 32.45 183.4 22.5 175.95 15.35 152.4 -7.1 126.5 4.4 125.8 4.65 125.15 5.15 95.95 26.25 90.8 48.05 89.4 53.85 89.45 60.35 86.55 58.35 83.45 56.55 L83.4 56.55 Q58.2 42.0 28.2 53.0 0.45 63.1 0.5 93.75 L0.5 93.8 Q0.55 108.05 6.15 121.9 11.5 136.3 22.3 146.95 33.5 158.0 53.1 167.0 72.15 175.7 104.8 183.2 139.7 191.35 147.25 187.85 153.85 186.35 165.2 167.0 175.0 150.35 183.55 128.8 193.15 104.55 196.9 84.5 201.65 59.3 196.3 45.45" fill="url(#gradient0)" fill-rule="evenodd" stroke="none"/>
    <path d="M175.55 15.8 L175.6 15.75 Q152.35 -6.5 126.7 4.85 126.05 5.1 125.45 5.55 96.45 26.55 91.35 48.15 L91.4 48.2 Q89.8 54.35 89.9 61.35 L83.15 56.95 Q58.1 42.6 28.35 53.5 1.0 63.45 1.0 93.75 1.05 107.95 6.6 121.65 11.9 136.0 22.65 146.55 L22.65 146.6 Q33.8 157.6 53.35 166.5 72.3 175.2 104.9 182.7 139.6 190.75 147.1 187.35 153.55 185.75 164.75 166.75 174.5 150.15 183.1 128.65 192.7 104.4 196.4 84.4 201.1 59.4 195.8 45.6 193.9 40.25 189.2 32.75 183.0 22.8 175.55 15.8 M196.3 45.45 Q201.65 59.3 196.9 84.5 193.15 104.55 183.55 128.8 175.0 150.35 165.2 167.0 153.85 186.35 147.25 187.85 139.7 191.35 104.8 183.2 72.15 175.7 53.1 167.0 33.5 158.0 22.3 146.95 11.5 136.3 6.15 121.9 0.55 108.05 0.5 93.8 L0.5 93.75 Q0.45 63.1 28.2 53.0 58.2 42.0 83.4 56.55 L83.45 56.55 Q86.55 58.35 89.45 60.35 89.4 53.85 90.8 48.05 95.95 26.25 125.15 5.15 125.8 4.65 126.5 4.4 152.4 -7.1 175.95 15.35 183.4 22.5 189.6 32.45 194.35 40.05 196.3 45.45" fill="url(#gradient1)" fill-rule="evenodd" stroke="none"/>
    <path d="M175.55 15.8 Q183.0 22.8 189.2 32.75 193.9 40.25 195.8 45.6 201.1 59.4 196.4 84.4 192.7 104.4 183.1 128.65 174.5 150.15 164.75 166.75 153.55 185.75 147.1 187.35 139.6 190.75 104.9 182.7 72.3 175.2 53.35 166.5 33.8 157.6 22.65 146.6 L22.65 146.55 Q11.9 136.0 6.6 121.65 1.05 107.95 1.0 93.75 1.0 63.45 28.35 53.5 58.1 42.6 83.15 56.95 L89.9 61.35 Q89.8 54.35 91.4 48.2 L91.35 48.15 Q96.45 26.55 125.45 5.55 126.05 5.1 126.7 4.85 152.35 -6.5 175.6 15.75 L175.55 15.8 M195.35 45.8 Q193.4 40.5 188.75 33.05 182.65 23.2 175.25 16.15 152.2 -5.9 126.9 5.3 L125.7 6.0 Q96.9 26.8 91.9 48.3 90.15 54.85 90.45 62.4 86.9 59.75 82.95 57.45 58.05 43.2 28.55 54.0 1.45 63.85 1.55 93.75 L1.55 93.8 Q1.55 107.9 7.1 121.5 12.35 135.75 23.0 146.2 34.1 157.15 53.55 166.05 72.5 174.7 105.0 182.2 139.45 190.2 146.9 186.9 153.25 185.3 164.3 166.45 174.0 149.85 182.6 128.45 192.2 104.25 195.95 84.3 200.6 59.45 195.35 45.8" fill="url(#gradient2)" fill-rule="evenodd" stroke="none"/>
    <path d="M174.85 16.5 L174.9 16.55 Q152.1 -5.3 127.05 5.8 L126.05 6.4 Q97.4 27.15 92.3 48.45 90.5 55.4 91.0 63.45 87.1 60.4 82.7 57.9 58.0 43.75 28.7 54.45 2.0 64.2 2.05 93.8 2.05 107.8 7.6 121.3 12.75 135.45 23.35 145.8 34.4 156.75 53.75 165.6 L53.8 165.6 Q72.7 174.2 105.1 181.7 139.3 189.65 146.7 186.4 152.95 184.8 163.9 166.2 L163.85 166.25 Q173.6 149.7 182.15 128.25 191.7 104.1 195.45 84.2 200.05 59.55 194.85 45.95 192.95 40.65 188.35 33.3 182.25 23.5 174.85 16.5 M195.35 45.8 Q200.6 59.45 195.95 84.3 192.2 104.25 182.6 128.45 174.0 149.85 164.3 166.45 153.25 185.3 146.9 186.9 139.45 190.2 105.0 182.2 72.5 174.7 53.55 166.05 34.1 157.15 23.0 146.2 12.35 135.75 7.1 121.5 1.55 107.9 1.55 93.8 L1.55 93.75 Q1.45 63.85 28.55 54.0 58.05 43.2 82.95 57.45 86.9 59.75 90.45 62.4 90.15 54.85 91.9 48.3 96.9 26.8 125.7 6.0 L126.9 5.3 Q152.2 -5.9 175.25 16.15 182.65 23.2 188.75 33.05 193.4 40.5 195.35 45.8" fill="url(#gradient3)" fill-rule="evenodd" stroke="none"/>
    <path d="M174.85 16.5 Q182.25 23.5 188.35 33.3 192.95 40.65 194.85 45.95 200.05 59.55 195.45 84.2 191.7 104.1 182.15 128.25 173.6 149.7 163.85 166.25 L163.9 166.2 Q152.95 184.8 146.7 186.4 139.3 189.65 105.1 181.7 72.7 174.2 53.8 165.6 L53.75 165.6 Q34.4 156.75 23.35 145.8 12.75 135.45 7.6 121.3 2.05 107.8 2.05 93.8 2.0 64.2 28.7 54.45 58.0 43.75 82.7 57.9 87.1 60.4 91.0 63.45 90.5 55.4 92.3 48.45 97.4 27.15 126.05 6.4 L127.05 5.8 Q152.1 -5.3 174.9 16.55 L174.85 16.5 M194.35 46.15 Q192.45 40.9 187.85 33.55 181.85 23.8 174.55 16.85 152.05 -4.65 127.3 6.25 L126.3 6.8 Q97.85 27.45 92.85 48.6 90.95 56.0 91.65 64.55 87.35 61.1 82.4 58.35 57.95 44.3 28.9 54.95 2.45 64.55 2.55 93.75 L2.55 93.8 Q2.6 107.65 8.05 121.15 13.2 135.2 23.7 145.45 34.7 156.35 53.95 165.1 L54.0 165.1 Q72.85 173.7 105.2 181.2 139.15 189.1 146.55 185.9 152.65 184.3 163.45 165.95 173.1 149.4 181.7 128.05 L181.65 128.0 Q191.2 104.0 194.95 84.1 199.5 59.65 194.35 46.15" fill="url(#gradient4)" fill-rule="evenodd" stroke="none"/>
    <path d="M193.9 46.3 Q192.05 41.1 187.5 33.85 181.4 24.15 174.2 17.25 151.95 -4.05 127.5 6.7 L126.65 7.25 Q98.35 27.65 93.35 48.7 91.35 56.6 92.25 65.75 87.6 61.85 82.15 58.8 57.9 44.9 29.05 55.45 3.0 64.95 3.0 93.75 3.1 107.6 8.5 120.9 13.65 134.85 24.05 145.1 35.0 155.9 54.15 164.65 73.05 173.2 105.35 180.75 139.05 188.55 146.35 185.45 152.35 183.75 163.0 165.7 172.7 149.2 181.2 127.85 190.75 103.85 194.4 84.0 198.95 59.7 193.9 46.3 M194.35 46.15 Q199.5 59.65 194.95 84.1 191.2 104.0 181.65 128.0 L181.7 128.05 Q173.1 149.4 163.45 165.95 152.65 184.3 146.55 185.9 139.15 189.1 105.2 181.2 72.85 173.7 54.0 165.1 L53.95 165.1 Q34.7 156.35 23.7 145.45 13.2 135.2 8.05 121.15 2.6 107.65 2.55 93.8 L2.55 93.75 Q2.45 64.55 28.9 54.95 57.95 44.3 82.4 58.35 87.35 61.1 91.65 64.55 90.95 56.0 92.85 48.6 97.85 27.45 126.3 6.8 L127.3 6.25 Q152.05 -4.65 174.55 16.85 181.85 23.8 187.85 33.55 192.45 40.9 194.35 46.15" fill="url(#gradient5)" fill-rule="evenodd" stroke="none"/>
    <path d="M193.4 46.5 Q191.5 41.35 187.05 34.15 181.05 24.5 173.8 17.6 151.85 -3.4 127.7 7.2 L126.9 7.65 Q98.85 28.0 93.85 48.8 91.8 56.75 92.8 66.0 L92.75 66.05 92.85 66.95 Q87.9 62.65 81.95 59.25 57.85 45.5 29.25 55.95 3.55 65.3 3.55 93.75 L3.6 93.8 Q3.6 107.4 8.9 120.6 L8.95 120.75 Q14.1 134.55 24.45 144.7 35.3 155.5 54.4 164.15 73.2 172.75 105.45 180.25 138.95 188.0 146.2 184.95 152.05 183.3 162.6 165.4 172.2 148.95 180.7 127.7 190.2 103.7 193.9 83.9 198.4 59.75 193.4 46.5 M193.9 46.3 Q198.95 59.7 194.4 84.0 190.75 103.85 181.2 127.85 172.7 149.2 163.0 165.7 152.35 183.75 146.35 185.45 139.05 188.55 105.35 180.75 73.05 173.2 54.15 164.65 35.0 155.9 24.05 145.1 13.65 134.85 8.5 120.9 3.1 107.6 3.0 93.75 3.0 64.95 29.05 55.45 57.9 44.9 82.15 58.8 87.6 61.85 92.25 65.75 91.35 56.6 93.35 48.7 98.35 27.65 126.65 7.25 L127.5 6.7 Q151.95 -4.05 174.2 17.25 181.4 24.15 187.5 33.85 192.05 41.1 193.9 46.3" fill="url(#gradient6)" fill-rule="evenodd" stroke="none"/>
    <path d="M192.45 46.85 Q190.6 41.75 186.2 34.7 180.25 25.1 173.1 18.35 151.65 -2.2 128.1 8.15 L127.55 8.5 Q99.85 28.55 94.85 49.05 92.85 56.8 93.8 65.9 L93.8 65.95 94.35 69.6 Q88.6 64.25 81.45 60.15 L81.4 60.1 Q57.75 46.6 29.6 56.9 4.55 66.0 4.6 93.8 4.65 107.25 9.85 120.25 L9.9 120.35 Q14.95 134.0 25.15 144.0 35.95 154.6 54.8 163.2 73.55 171.75 105.65 179.25 138.7 186.9 145.85 183.95 151.45 182.3 161.65 164.9 171.3 148.5 179.75 127.3 189.2 103.4 192.9 83.7 197.35 59.95 192.45 46.85 M192.95 46.7 Q197.9 59.9 193.45 83.8 189.7 103.6 180.25 127.45 171.75 148.7 162.15 165.15 151.75 182.8 146.0 184.45 138.8 187.4 105.55 179.75 73.35 172.25 54.6 163.7 35.6 155.05 24.75 144.4 14.55 134.25 9.45 120.5 L9.4 120.4 Q4.1 107.35 4.1 93.8 4.0 65.65 29.4 56.4 57.75 46.0 81.65 59.65 88.25 63.4 93.6 68.25 L93.3 66.0 93.3 65.9 Q92.35 56.8 94.35 48.95 99.3 28.25 127.25 8.1 L127.9 7.7 Q151.75 -2.8 173.5 18.0 180.65 24.8 186.6 34.35 191.05 41.55 192.95 46.7" fill="url(#gradient7)" fill-rule="evenodd" stroke="none"/>
    <path d="M192.45 46.85 Q197.35 59.95 192.9 83.7 189.2 103.4 179.75 127.3 171.3 148.5 161.65 164.9 151.45 182.3 145.85 183.95 138.7 186.9 105.65 179.25 73.55 171.75 54.8 163.2 35.95 154.6 25.15 144.0 14.95 134.0 9.9 120.35 L9.85 120.25 Q4.65 107.25 4.6 93.8 4.55 66.0 29.6 56.9 57.75 46.6 81.4 60.1 L81.45 60.15 Q88.6 64.25 94.35 69.6 L93.8 65.95 93.8 65.9 Q92.85 56.8 94.85 49.05 99.85 28.55 127.55 8.5 L128.1 8.15 Q151.65 -2.2 173.1 18.35 180.25 25.1 186.2 34.7 190.6 41.75 192.45 46.85 M192.0 47.05 Q190.15 42.05 185.75 34.95 179.85 25.5 172.75 18.75 151.6 -1.55 128.35 8.65 L127.8 8.9 Q100.3 28.8 95.35 49.2 93.4 56.85 94.3 65.85 L94.3 65.9 95.1 71.1 Q89.0 65.05 81.2 60.6 57.65 47.2 29.75 57.4 5.05 66.4 5.1 93.8 5.1 107.15 10.35 120.05 L10.4 120.15 Q15.4 133.7 25.5 143.6 36.2 154.15 55.0 162.75 73.65 171.25 105.75 178.7 138.6 186.3 145.65 183.5 151.15 181.75 161.2 164.65 170.8 148.25 179.3 127.1 188.7 103.25 192.4 83.6 196.8 60.0 192.0 47.05" fill="url(#gradient8)" fill-rule="evenodd" stroke="none"/>
    <path d="M191.5 47.2 Q189.65 42.2 185.3 35.2 179.45 25.8 172.4 19.15 151.5 -0.95 128.5 9.15 128.3 9.2 128.15 9.35 100.8 29.1 95.8 49.35 93.9 56.95 94.75 65.8 L94.8 65.8 95.9 72.6 Q89.4 65.9 80.95 61.0 57.6 47.7 29.95 57.85 5.55 66.75 5.55 93.8 5.65 107.05 10.85 119.9 L10.9 119.95 Q15.8 133.4 25.85 143.25 36.55 153.75 55.2 162.3 L55.2 162.35 Q73.85 170.75 105.85 178.2 138.45 185.8 145.5 183.0 150.85 181.3 160.8 164.35 170.4 148.0 178.8 126.9 188.2 103.15 191.9 83.5 196.3 60.05 191.5 47.2 M192.0 47.05 Q196.8 60.0 192.4 83.6 188.7 103.25 179.3 127.1 170.8 148.25 161.2 164.65 151.15 181.75 145.65 183.5 138.6 186.3 105.75 178.7 73.65 171.25 55.0 162.75 36.2 154.15 25.5 143.6 15.4 133.7 10.4 120.15 L10.35 120.05 Q5.1 107.15 5.1 93.8 5.05 66.4 29.75 57.4 57.65 47.2 81.2 60.6 89.0 65.05 95.1 71.1 L94.3 65.9 94.3 65.85 Q93.4 56.85 95.35 49.2 100.3 28.8 127.8 8.9 L128.35 8.65 Q151.6 -1.55 172.75 18.75 179.85 25.5 185.75 34.95 190.15 42.05 192.0 47.05" fill="url(#gradient9)" fill-rule="evenodd" stroke="none"/>
    <path d="M191.5 47.2 Q196.3 60.05 191.9 83.5 188.2 103.15 178.8 126.9 170.4 148.0 160.8 164.35 150.85 181.3 145.5 183.0 138.45 185.8 105.85 178.2 73.85 170.75 55.2 162.35 L55.2 162.3 Q36.55 153.75 25.85 143.25 15.8 133.4 10.9 119.95 L10.85 119.9 Q5.65 107.05 5.55 93.8 5.55 66.75 29.95 57.85 57.6 47.7 80.95 61.0 89.4 65.9 95.9 72.6 L94.8 65.8 94.75 65.8 Q93.9 56.95 95.8 49.35 100.8 29.1 128.15 9.35 128.3 9.2 128.5 9.15 151.5 -0.95 172.4 19.15 179.45 25.8 185.3 35.2 189.65 42.2 191.5 47.2 M191.0 47.4 Q189.2 42.45 184.9 35.5 179.1 26.15 172.1 19.5 151.45 -0.3 128.75 9.55 128.6 9.6 128.45 9.8 101.3 29.4 96.3 49.5 94.45 57.0 95.3 65.75 L95.25 65.8 96.7 74.25 Q89.9 66.75 80.7 61.5 57.6 48.3 30.15 58.35 6.1 67.15 6.15 93.8 6.15 107.0 11.3 119.7 L11.35 119.75 Q16.2 133.1 26.2 142.9 36.8 153.3 55.4 161.8 74.05 170.3 105.95 177.7 138.35 185.2 145.3 182.5 150.5 180.8 160.4 164.1 169.95 147.8 178.35 126.7 187.75 103.0 191.4 83.4 195.8 60.15 191.0 47.4" fill="url(#gradient10)" fill-rule="evenodd" stroke="none"/>
    <path d="M193.4 46.5 Q198.4 59.75 193.9 83.9 190.2 103.7 180.7 127.7 172.2 148.95 162.6 165.4 152.05 183.3 146.2 184.95 138.95 188.0 105.45 180.25 73.2 172.75 54.4 164.15 35.3 155.5 24.45 144.7 14.1 134.55 8.95 120.75 L8.9 120.6 Q3.6 107.4 3.6 93.8 L3.55 93.75 Q3.55 65.3 29.25 55.95 57.85 45.5 81.95 59.25 87.9 62.65 92.85 66.95 L92.75 66.05 92.8 66.0 Q91.8 56.75 93.85 48.8 98.85 28.0 126.9 7.65 L127.7 7.2 Q151.85 -3.4 173.8 17.6 181.05 24.5 187.05 34.15 191.5 41.35 193.4 46.5 M192.95 46.7 Q191.05 41.55 186.6 34.35 180.65 24.8 173.5 18.0 151.75 -2.8 127.9 7.7 L127.25 8.1 Q99.3 28.25 94.35 48.95 92.35 56.8 93.3 65.9 L93.3 66.0 93.6 68.25 Q88.25 63.4 81.65 59.65 57.75 46.0 29.4 56.4 4.0 65.65 4.1 93.8 4.1 107.35 9.4 120.4 L9.45 120.5 Q14.55 134.25 24.75 144.4 35.6 155.05 54.6 163.7 73.35 172.25 105.55 179.75 138.8 187.4 146.0 184.45 151.75 182.8 162.15 165.15 171.75 148.7 180.25 127.45 189.7 103.6 193.45 83.8 197.9 59.9 192.95 46.7" fill="url(#gradient11)" fill-rule="evenodd" stroke="none"/>
    <path d="M190.55 47.55 Q188.75 42.65 184.45 35.75 178.7 26.5 171.75 19.9 151.3 0.35 128.9 10.05 L128.75 10.2 Q101.75 29.7 96.8 49.65 94.9 57.05 95.8 65.7 96.0 67.7 97.55 75.9 90.4 67.6 80.4 61.95 57.5 48.9 30.3 58.85 6.55 67.55 6.65 93.75 6.65 106.85 11.8 119.55 L11.8 119.6 Q16.7 132.85 26.6 142.55 37.1 152.9 55.65 161.35 74.2 169.85 106.1 177.2 138.2 184.65 145.15 182.05 150.25 180.3 159.95 163.8 169.45 147.55 177.9 126.5 187.25 102.85 190.95 83.3 195.25 60.3 190.55 47.55 M191.0 47.4 Q195.8 60.15 191.4 83.4 187.75 103.0 178.35 126.7 169.95 147.8 160.4 164.1 150.5 180.8 145.3 182.5 138.35 185.2 105.95 177.7 74.05 170.3 55.4 161.8 36.8 153.3 26.2 142.9 16.2 133.1 11.35 119.75 L11.3 119.7 Q6.15 107.0 6.15 93.8 6.1 67.15 30.15 58.35 57.6 48.3 80.7 61.5 89.9 66.75 96.7 74.25 L95.25 65.8 95.3 65.75 Q94.45 57.0 96.3 49.5 101.3 29.4 128.45 9.8 128.6 9.6 128.75 9.55 151.45 -0.3 172.1 19.5 179.1 26.15 184.9 35.5 189.2 42.45 191.0 47.4" fill="url(#gradient12)" fill-rule="evenodd" stroke="none"/>
    <path d="M190.05 47.75 Q188.25 42.9 184.0 36.05 178.25 26.8 171.4 20.2 151.25 0.95 129.15 10.55 L129.05 10.6 Q102.25 30.0 97.35 49.75 95.45 57.05 96.3 65.65 L98.4 77.75 Q90.95 68.5 80.2 62.35 57.45 49.45 30.5 59.3 7.1 67.85 7.15 93.8 7.15 106.85 12.25 119.35 L12.25 119.4 Q17.1 132.5 26.9 142.15 37.4 152.45 55.8 160.9 74.35 169.3 106.2 176.7 138.05 184.1 144.95 181.55 149.95 179.75 159.45 163.55 169.0 147.3 177.4 126.3 186.7 102.7 190.4 83.2 194.65 60.35 190.05 47.75 M190.55 47.55 Q195.25 60.3 190.95 83.3 187.25 102.85 177.9 126.5 169.45 147.55 159.95 163.8 150.25 180.3 145.15 182.05 138.2 184.65 106.1 177.2 74.2 169.85 55.65 161.35 37.1 152.9 26.6 142.55 16.7 132.85 11.8 119.6 L11.8 119.55 Q6.65 106.85 6.65 93.75 6.55 67.55 30.3 58.85 57.5 48.9 80.4 61.95 90.4 67.6 97.55 75.9 96.0 67.7 95.8 65.7 94.9 57.05 96.8 49.65 101.75 29.7 128.75 10.2 L128.9 10.05 Q151.3 0.35 171.75 19.9 178.7 26.5 184.45 35.75 188.75 42.65 190.55 47.55" fill="url(#gradient13)" fill-rule="evenodd" stroke="none"/>
    <path d="M190.05 47.75 Q194.65 60.35 190.4 83.2 186.7 102.7 177.4 126.3 169.0 147.3 159.45 163.55 149.95 179.75 144.95 181.55 138.05 184.1 106.2 176.7 74.35 169.3 55.8 160.9 37.4 152.45 26.9 142.15 17.1 132.5 12.25 119.4 L12.25 119.35 Q7.15 106.85 7.15 93.8 7.1 67.85 30.5 59.3 57.45 49.45 80.2 62.35 90.95 68.5 98.4 77.75 L96.3 65.65 Q95.45 57.05 97.35 49.75 102.25 30.0 129.05 10.6 L129.15 10.55 Q151.25 0.95 171.4 20.2 178.25 26.8 184.0 36.05 188.25 42.9 190.05 47.75" fill="url(#gradient14)" fill-rule="evenodd" stroke="none"/>
  </g>
  <defs>
    <radialGradient cx="0" cy="0" gradientTransform="matrix(0.1221, -0.0447, 0.0452, 0.1236, 109.4, 106.1)" gradientUnits="userSpaceOnUse" id="gradient0" r="819.2" spreadMethod="pad">
      <stop offset="0.0" stop-color="#fdaccd" stop-opacity="0.0627451"/>
      <stop offset="1.0" stop-color="#fdb1d0" stop-opacity="0.019607844"/>
    </radialGradient>
    <radialGradient cx="0" cy="0" gradientTransform="matrix(0.1221, -0.0447, 0.0452, 0.1236, 109.4, 106.1)" gradientUnits="userSpaceOnUse" id="gradient1" r="819.2" spreadMethod="pad">
      <stop offset="0.0" stop-color="#fdaccd" stop-opacity="0.12941177"/>
      <stop offset="1.0" stop-color="#fdb1d0" stop-opacity="0.039215688"/>
    </radialGradient>
    <radialGradient cx="0" cy="0" gradientTransform="matrix(0.1221, -0.0447, 0.0452, 0.1236, 109.4, 106.1)" gradientUnits="userSpaceOnUse" id="gradient2" r="819.2" spreadMethod="pad">
      <stop offset="0.0" stop-color="#fdaccd" stop-opacity="0.19607843"/>
      <stop offset="1.0" stop-color="#fdb1d0" stop-opacity="0.05882353"/>
    </radialGradient>
    <radialGradient cx="0" cy="0" gradientTransform="matrix(0.1221, -0.0447, 0.0452, 0.1236, 109.4, 106.1)" gradientUnits="userSpaceOnUse" id="gradient3" r="819.2" spreadMethod="pad">
      <stop offset="0.0" stop-color="#fdaccd" stop-opacity="0.2627451"/>
      <stop offset="1.0" stop-color="#fdb1d0" stop-opacity="0.08235294"/>
    </radialGradient>
    <radialGradient cx="0" cy="0" gradientTransform="matrix(0.1221, -0.0447, 0.0452, 0.1236, 109.4, 106.1)" gradientUnits="userSpaceOnUse" id="gradient4" r="819.2" spreadMethod="pad">
      <stop offset="0.0" stop-color="#fdaccd" stop-opacity="0.32941177"/>
      <stop offset="1.0" stop-color="#fdb1d0" stop-opacity="0.101960786"/>
    </radialGradient>
    <radialGradient cx="0" cy="0" gradientTransform="matrix(0.1221, -0.0447, 0.0452, 0.1236, 109.4, 106.1)" gradientUnits="userSpaceOnUse" id="gradient5" r="819.2" spreadMethod="pad">
      <stop offset="0.0" stop-color="#fdaccd" stop-opacity="0.39607844"/>
      <stop offset="1.0" stop-color="#fdb1d0" stop-opacity="0.12156863"/>
    </radialGradient>
    <radialGradient cx="0" cy="0" gradientTransform="matrix(0.1221, -0.0447, 0.0452, 0.1236, 109.4, 106.1)" gradientUnits="userSpaceOnUse" id="gradient6" r="819.2" spreadMethod="pad">
      <stop offset="0.0" stop-color="#fdaccd" stop-opacity="0.4627451"/>
      <stop offset="1.0" stop-color="#fdb1d0" stop-opacity="0.14509805"/>
    </radialGradient>
    <radialGradient cx="0" cy="0" gradientTransform="matrix(0.1221, -0.0447, 0.0452, 0.1236, 109.4, 106.1)" gradientUnits="userSpaceOnUse" id="gradient7" r="819.2" spreadMethod="pad">
      <stop offset="0.0" stop-color="#fdaccd" stop-opacity="0.59607846"/>
      <stop offset="1.0" stop-color="#fdb1d0" stop-opacity="0.18431373"/>
    </radialGradient>
    <radialGradient cx="0" cy="0" gradientTransform="matrix(0.1221, -0.0447, 0.0452, 0.1236, 109.4, 106.1)" gradientUnits="userSpaceOnUse" id="gradient8" r="819.2" spreadMethod="pad">
      <stop offset="0.0" stop-color="#fdaccd" stop-opacity="0.6627451"/>
      <stop offset="1.0" stop-color="#fdb1d0" stop-opacity="0.20784314"/>
    </radialGradient>
    <radialGradient cx="0" cy="0" gradientTransform="matrix(0.1221, -0.0447, 0.0452, 0.1236, 109.4, 106.1)" gradientUnits="userSpaceOnUse" id="gradient9" r="819.2" spreadMethod="pad">
      <stop offset="0.0" stop-color="#fdaccd" stop-opacity="0.7294118"/>
      <stop offset="1.0" stop-color="#fdb1d0" stop-opacity="0.22745098"/>
    </radialGradient>
    <radialGradient cx="0" cy="0" gradientTransform="matrix(0.1221, -0.0447, 0.0452, 0.1236, 109.4, 106.1)" gradientUnits="userSpaceOnUse" id="gradient10" r="819.2" spreadMethod="pad">
      <stop offset="0.0" stop-color="#fdaccd" stop-opacity="0.79607844"/>
      <stop offset="1.0" stop-color="#fdb1d0" stop-opacity="0.24705882"/>
    </radialGradient>
    <radialGradient cx="0" cy="0" gradientTransform="matrix(0.1221, -0.0447, 0.0452, 0.1236, 109.4, 106.1)" gradientUnits="userSpaceOnUse" id="gradient11" r="819.2" spreadMethod="pad">
      <stop offset="0.0" stop-color="#fdaccd" stop-opacity="0.5294118"/>
      <stop offset="1.0" stop-color="#fdb1d0" stop-opacity="0.16470589"/>
    </radialGradient>
    <radialGradient cx="0" cy="0" gradientTransform="matrix(0.1221, -0.0447, 0.0452, 0.1236, 109.4, 106.1)" gradientUnits="userSpaceOnUse" id="gradient12" r="819.2" spreadMethod="pad">
      <stop offset="0.0" stop-color="#fdaccd" stop-opacity="0.8627451"/>
      <stop offset="1.0" stop-color="#fdb1d0" stop-opacity="0.27058825"/>
    </radialGradient>
    <radialGradient cx="0" cy="0" gradientTransform="matrix(0.1221, -0.0447, 0.0452, 0.1236, 109.4, 106.1)" gradientUnits="userSpaceOnUse" id="gradient13" r="819.2" spreadMethod="pad">
      <stop offset="0.0" stop-color="#fdaccd" stop-opacity="0.92941177"/>
      <stop offset="1.0" stop-color="#fdb1d0" stop-opacity="0.2901961"/>
    </radialGradient>
    <radialGradient cx="0" cy="0" gradientTransform="matrix(0.1221, -0.0447, 0.0452, 0.1236, 109.4, 106.1)" gradientUnits="userSpaceOnUse" id="gradient14" r="819.2" spreadMethod="pad">
      <stop offset="0.0" stop-color="#fdaccd"/>
      <stop offset="1.0" stop-color="#fdb1d0" stop-opacity="0.3137255"/>
    </radialGradient>
  </defs>
</svg>
