<?xml version="1.0" encoding="UTF-8" standalone="no"?>
<svg xmlns:xlink="http://www.w3.org/1999/xlink" height="8.7px" width="5.7px" xmlns="http://www.w3.org/2000/svg">
  <g transform="matrix(1.0, 0.0, 0.0, 1.0, 0.0, 0.0)">
    <path d="M5.25 3.2 L5.6 4.95 Q5.9 6.5 5.4 7.4 4.9 8.25 3.25 8.6 1.2 8.95 0.7 7.7 0.2 6.5 0.7 4.7 1.15 2.9 2.0 1.6 2.85 0.25 3.45 0.45 L3.45 0.1 Q4.2 0.45 4.6 1.3 L5.25 3.2" fill="#000000" fill-rule="evenodd" stroke="none"/>
    <path d="M3.25 0.65 L3.6 1.95 2.1 1.85 Q1.25 1.7 0.6 1.25 0.0 0.8 0.0 0.0 L1.6 0.65 Q2.35 0.95 3.25 0.65" fill="#000000" fill-rule="evenodd" stroke="none"/>
    <path d="M3.0 3.65 L2.75 4.75 2.2 5.2 Q1.85 5.2 1.6 4.75 1.35 4.3 1.35 3.65 1.35 2.95 1.6 2.5 1.85 2.05 2.2 2.05 L2.75 2.5 3.0 3.65" fill="#ffffff" fill-rule="evenodd" stroke="none"/>
  </g>
</svg>
