<?xml version="1.0" encoding="UTF-8" standalone="no"?>
<svg xmlns:xlink="http://www.w3.org/1999/xlink" height="42.25px" width="18.75px" xmlns="http://www.w3.org/2000/svg">
  <g transform="matrix(1.0, 0.0, 0.0, 1.0, 0.2, 0.5)">
    <path d="M15.75 2.25 Q15.25 4.35 15.5 7.5 15.7 10.6 16.25 13.75 16.85 16.85 17.6 18.95 18.0 20.1 18.05 22.5 L17.95 27.85 17.25 33.6 16.0 38.35 Q15.25 40.3 14.2 40.65 L11.05 41.1 6.75 41.25 2.75 40.85 Q1.05 40.55 0.65 39.85 -0.1 38.05 0.75 37.4 1.6 36.7 3.2 36.2 5.45 35.25 6.4 33.45 7.4 31.65 7.65 29.6 L8.05 25.95 Q8.35 22.9 7.7 20.3 L5.95 14.75 4.9 11.75 3.35 7.4 1.9 3.0 Q1.3 1.0 1.25 0.0 L15.75 2.25" fill="#fff7f3" fill-rule="evenodd" stroke="none"/>
    <path d="M1.25 0.0 Q1.3 1.0 1.9 3.0 L3.35 7.4 4.9 11.75 5.95 14.75 7.7 20.3 Q8.35 22.9 8.05 25.95 L7.65 29.6 Q7.4 31.65 6.4 33.45 5.45 35.25 3.2 36.2 1.6 36.7 0.75 37.4 -0.1 38.05 0.65 39.85 1.05 40.55 2.75 40.85 L6.75 41.25 11.05 41.1 14.2 40.65 Q15.25 40.3 16.0 38.35 L17.25 33.6 17.95 27.85 18.05 22.5 Q18.0 20.1 17.6 18.95 16.85 16.85 16.25 13.75 15.7 10.6 15.5 7.5 15.25 4.35 15.75 2.25" fill="none" stroke="#7f5c40" stroke-linecap="round" stroke-linejoin="round" stroke-width="1.0"/>
    <path d="M12.8 16.9 Q14.8 16.55 15.5 16.1 L16.4 15.6 16.95 18.95 17.6 21.55 Q18.65 26.3 18.3 30.55 17.9 34.8 16.55 37.6 15.25 40.35 13.5 40.8 L10.45 41.05 6.2 40.95 2.3 40.4 Q0.65 40.05 0.3 39.4 -0.35 37.75 0.5 37.2 1.35 36.65 2.9 36.25 5.15 35.5 6.15 33.95 7.15 32.4 7.5 30.6 L8.0 27.3 Q8.45 24.6 7.9 22.25 7.35 19.85 6.4 17.2 L12.8 16.9" fill="#000000" fill-rule="evenodd" stroke="none"/>
    <path d="M6.15 19.3 L7.55 19.55 10.75 19.85 14.4 19.4 Q16.15 18.9 17.05 17.4" fill="none" stroke="#a3a3a3" stroke-linecap="round" stroke-linejoin="round" stroke-width="1.5"/>
    <path d="M6.8 23.25 L8.2 23.55 11.45 23.85 15.1 23.4 Q16.85 22.85 17.75 21.4" fill="none" stroke="#a3a3a3" stroke-linecap="round" stroke-linejoin="round" stroke-width="1.0"/>
  </g>
</svg>
