<?xml version="1.0" encoding="UTF-8" standalone="no"?>
<svg xmlns:xlink="http://www.w3.org/1999/xlink" height="71.35px" width="30.7px" xmlns="http://www.w3.org/2000/svg">
  <g transform="matrix(1.0, 0.0, 0.0, 1.0, -2.55, -2.9)">
    <path d="M32.75 73.75 Q30.65 70.35 28.7 68.7 26.85 67.0 24.9 66.35 L20.95 65.6 16.75 65.1 Q14.55 64.65 12.0 63.4 9.4 62.05 6.4 59.25 4.75 57.6 3.95 55.05 3.1 52.5 3.05 50.0 2.95 47.55 3.5 46.1 3.9 44.95 4.7 44.65 L6.35 43.85 Q7.25 43.3 8.15 41.4 9.0 39.35 8.95 37.45 L8.8 33.35 Q8.7 31.15 9.3 28.35 9.9 25.6 12.0 21.8 15.35 15.95 20.45 11.15 25.6 6.4 32.4 3.4 L32.75 73.75" fill="#fff7f3" fill-rule="evenodd" stroke="none"/>
    <path d="M32.4 3.4 Q25.6 6.4 20.45 11.15 15.35 15.95 12.0 21.8 9.9 25.6 9.3 28.35 8.7 31.15 8.8 33.35 L8.95 37.45 Q9.0 39.35 8.15 41.4 7.25 43.3 6.35 43.85 L4.7 44.65 Q3.9 44.95 3.5 46.1 2.95 47.55 3.05 50.0 3.1 52.5 3.95 55.05 4.75 57.6 6.4 59.25 9.4 62.05 12.0 63.4 14.55 64.65 16.75 65.1 L20.95 65.6 24.9 66.35 Q26.85 67.0 28.7 68.7 30.65 70.35 32.75 73.75" fill="none" stroke="#7f5c40" stroke-linecap="round" stroke-linejoin="round" stroke-width="1.0"/>
  </g>
</svg>
