<?xml version="1.0" encoding="UTF-8" standalone="no"?>
<svg xmlns:xlink="http://www.w3.org/1999/xlink" height="63.9px" width="61.85px" xmlns="http://www.w3.org/2000/svg">
  <g transform="matrix(1.0, 0.0, 0.0, 1.0, -107.15, -379.95)">
    <path d="M109.95 392.55 Q110.55 390.4 111.45 389.2 L113.4 387.05 110.95 388.3 Q108.65 389.45 107.15 389.7 109.5 386.3 112.75 384.35 116.0 382.35 119.3 381.45 122.6 380.5 125.1 380.25 L129.4 379.95 134.05 380.25 Q136.3 380.55 138.0 381.45 139.6 382.3 140.55 382.55 L142.6 382.95 145.45 383.35 Q148.85 383.95 151.5 385.45 154.1 386.95 156.45 389.35 158.75 391.75 161.3 395.0 162.8 396.85 164.05 397.8 L166.25 399.85 Q167.2 400.95 167.7 403.15 L168.45 406.85 168.95 411.0 Q169.1 413.1 168.8 414.75 168.2 417.3 166.1 419.4 L161.55 423.35 Q159.05 425.2 157.2 426.95 L150.85 433.15 Q147.65 436.25 144.9 439.55 142.8 441.9 140.4 442.45 L136.2 442.75 134.35 442.4 133.1 443.05 129.5 443.8 Q127.15 444.05 123.65 443.15 120.2 442.3 115.7 439.55 L118.75 439.2 120.5 438.45 122.75 436.4 123.45 435.6 Q122.1 436.4 120.7 437.15 118.2 438.35 115.65 438.75 113.15 439.15 111.2 438.3 115.85 437.35 118.65 435.6 121.4 433.9 122.8 431.55 124.2 429.2 124.65 426.4 125.15 423.6 125.15 420.45 123.65 411.9 124.15 406.1 122.95 407.55 122.5 408.75 122.05 409.95 123.1 411.3 121.65 410.45 120.15 408.2 118.7 405.9 117.75 403.0 116.75 400.1 116.7 397.45 116.7 394.75 118.05 393.2 116.95 394.35 115.85 396.2 114.75 398.05 114.0 400.1 113.3 402.15 113.3 403.9 113.35 405.6 114.45 406.5 112.45 406.75 111.25 405.45 110.1 404.15 109.65 401.95 109.15 399.75 109.25 397.25 109.4 394.75 109.95 392.55" fill="#85411e" fill-rule="evenodd" stroke="none"/>
  </g>
</svg>
