<?xml version="1.0" encoding="UTF-8" standalone="no"?>
<svg xmlns:xlink="http://www.w3.org/1999/xlink" height="61.65px" width="136.15px" xmlns="http://www.w3.org/2000/svg">
  <g transform="matrix(1.0, 0.0, 0.0, 1.0, 5.3, 31.8)">
    <path d="M28.5 -14.5 Q28.5 -13.25 27.25 -13.25 26.4 -13.25 26.1 -13.85 L26.0 -14.5 Q26.0 -15.75 27.25 -15.75 28.3 -15.75 28.5 -14.5 M28.6 -4.25 L28.5 -3.75 Q28.6 -3.55 28.0 -3.55 27.85 -3.55 27.4 -3.9 L27.35 -4.3 Q27.35 -4.65 28.0 -4.8 28.6 -4.75 28.6 -4.25 M53.75 -31.8 Q54.35 -31.75 54.35 -31.25 L54.25 -30.75 Q54.35 -30.55 53.75 -30.55 53.6 -30.55 53.15 -30.9 L53.1 -31.3 Q53.1 -31.65 53.75 -31.8 M56.25 -5.8 Q56.85 -5.75 56.85 -5.25 L56.75 -4.75 Q56.85 -4.55 56.25 -4.55 56.1 -4.55 55.65 -4.9 L55.6 -5.3 Q55.6 -5.65 56.25 -5.8 M85.85 -13.25 Q85.55 -12.55 85.25 -12.55 L83.85 -13.25 Q83.85 -14.05 84.5 -14.05 85.45 -14.05 85.85 -13.25 M130.85 11.85 L130.65 12.4 Q130.85 12.6 130.25 12.6 129.95 12.6 129.65 12.25 L129.6 11.9 Q129.6 11.5 130.25 11.35 130.75 11.65 130.85 11.85 M113.5 0.0 L114.0 -0.05 Q114.6 0.0 114.6 0.4 L114.5 0.9 114.0 1.1 Q113.35 0.95 113.35 0.4 L113.5 0.0 M118.25 15.25 Q119.3 15.25 119.5 16.45 119.5 17.75 118.25 17.75 117.4 17.75 117.1 17.15 L117.0 16.45 Q117.0 15.25 118.25 15.25 M113.0 24.1 Q113.5 24.4 113.6 24.6 L113.4 25.15 Q113.6 25.35 113.0 25.35 112.7 25.35 112.4 25.0 L112.35 24.65 Q112.35 24.25 113.0 24.1 M87.6 6.15 L87.5 5.45 Q87.5 4.25 88.75 4.25 89.8 4.25 90.0 5.45 90.0 6.75 88.75 6.75 87.9 6.75 87.6 6.15 M98.6 18.1 L98.4 18.65 Q98.6 18.85 98.0 18.85 L97.4 18.5 97.35 18.15 Q97.35 17.75 98.0 17.6 98.5 17.9 98.6 18.1 M90.15 25.65 Q90.35 25.85 89.75 25.85 89.45 25.85 89.15 25.5 L89.1 25.15 Q89.1 24.75 89.75 24.6 90.25 24.9 90.35 25.1 L90.15 25.65 M80.1 1.85 L79.9 2.4 Q80.1 2.6 79.5 2.6 L78.9 2.25 78.85 1.9 Q78.85 1.5 79.5 1.35 80.0 1.65 80.1 1.85 M69.1 9.4 L69.0 8.7 Q69.0 7.5 70.25 7.5 71.3 7.5 71.5 8.7 71.5 10.0 70.25 10.0 69.4 10.0 69.1 9.4 M62.85 15.1 L62.65 15.65 Q62.85 15.85 62.25 15.85 61.95 15.85 61.65 15.5 L61.6 15.15 Q61.6 14.75 62.25 14.6 62.75 14.9 62.85 15.1 M70.35 21.15 Q70.35 20.75 71.0 20.6 71.5 20.9 71.6 21.1 L71.4 21.65 Q71.6 21.85 71.0 21.85 70.7 21.85 70.4 21.5 L70.35 21.15 M44.35 7.4 L44.25 6.7 Q44.25 5.5 45.5 5.5 46.55 5.5 46.75 6.7 46.75 8.0 45.5 8.0 44.65 8.0 44.35 7.4 M43.35 17.6 L43.15 18.15 Q43.35 18.35 42.75 18.35 42.45 18.35 42.15 18.0 L42.1 17.65 Q42.1 17.25 42.75 17.1 43.25 17.4 43.35 17.6 M20.25 10.6 Q19.95 10.6 19.65 10.25 L19.6 9.9 Q19.6 9.5 20.25 9.35 20.75 9.65 20.85 9.85 L20.65 10.4 Q20.85 10.6 20.25 10.6 M6.5 3.75 Q7.55 3.75 7.75 4.95 7.75 6.25 6.5 6.25 5.15 6.25 5.25 4.95 5.25 3.75 6.5 3.75 M5.6 13.6 L5.4 14.15 Q5.6 14.35 5.0 14.35 L4.4 14.0 4.35 13.65 Q4.35 13.25 5.0 13.1 5.5 13.4 5.6 13.6 M-5.15 5.65 L-4.75 5.6 Q-4.05 5.8 -4.05 6.15 L-4.15 6.65 -4.75 6.85 Q-5.3 6.65 -5.3 6.15 L-5.15 5.65 M-3.3 29.15 L-3.4 29.65 -4.0 29.85 Q-4.55 29.65 -4.55 29.15 L-4.4 28.65 -4.0 28.6 Q-3.3 28.8 -3.3 29.15" fill="#ffffff" fill-rule="evenodd" stroke="none"/>
  </g>
</svg>
