<?xml version="1.0" encoding="UTF-8" standalone="no"?>
<svg xmlns:xlink="http://www.w3.org/1999/xlink" height="27.0px" width="34.6px" xmlns="http://www.w3.org/2000/svg">
  <g transform="matrix(1.0, 0.0, 0.0, 1.0, -21.55, -92.3)">
    <path d="M23.6 96.65 Q25.8 94.6 29.15 93.65 32.5 92.75 36.05 92.8 L42.1 93.45 Q44.85 94.1 46.15 95.5 47.55 96.95 48.1 98.8 L49.25 102.9 Q49.8 105.15 50.85 107.35 51.8 109.6 54.05 111.6 52.0 113.45 48.75 115.05 45.55 116.65 41.6 117.65 L33.9 118.8 Q30.1 118.95 26.95 117.85 23.85 116.8 22.05 114.3 23.9 112.15 24.8 110.0 25.6 107.75 25.75 105.25 L25.6 99.35 23.6 96.65" fill="#106189" fill-rule="evenodd" stroke="none"/>
    <path d="M25.6 99.35 L25.75 105.25 Q25.6 107.75 24.8 110.0 23.9 112.15 22.05 114.3 23.85 116.8 26.95 117.85 30.1 118.95 33.9 118.8 L41.6 117.65 Q45.55 116.65 48.75 115.05 52.0 113.45 54.05 111.6 51.8 109.6 50.85 107.35 49.8 105.15 49.25 102.9 L48.1 98.8 Q47.55 96.95 46.15 95.5 44.85 94.1 42.1 93.45 L36.05 92.8 Q32.5 92.75 29.15 93.65 25.8 94.6 23.6 96.65" fill="none" stroke="#6c91ad" stroke-linecap="round" stroke-linejoin="round" stroke-width="1.0"/>
    <path d="M45.05 111.65 Q46.85 111.3 47.75 110.65 L48.8 109.95 50.45 109.7 Q49.95 111.3 48.65 112.0 47.35 112.8 45.45 112.95 43.65 113.15 41.55 112.95 39.9 112.8 38.0 112.05 L34.65 110.15 Q33.2 109.0 32.8 107.75 L35.45 108.45 Q38.3 110.85 40.75 111.45 L45.05 111.65" fill="#6c91ad" fill-rule="evenodd" stroke="none"/>
    <path d="M55.65 106.0 Q52.8 107.3 48.85 107.85 L40.5 108.5 31.95 108.4 24.6 108.05 Q23.75 105.95 24.0 104.05 24.2 102.7 24.95 101.75 L31.4 101.15 38.95 100.35 Q42.8 100.05 46.25 100.3 49.75 100.6 52.25 101.9 54.7 103.2 55.65 106.0" fill="#ffffff" fill-rule="evenodd" stroke="none"/>
    <path d="M55.65 106.0 Q54.7 103.2 52.25 101.9 49.75 100.6 46.25 100.3 42.8 100.05 38.95 100.35 L31.4 101.15 24.95 101.75 Q24.2 102.7 24.0 104.05 23.75 105.95 24.6 108.05 L31.95 108.4 40.5 108.5 48.85 107.85 Q52.8 107.3 55.65 106.0 M25.7 101.0 L25.15 101.55 24.95 101.75" fill="none" stroke="#877a7e" stroke-linecap="round" stroke-linejoin="round" stroke-width="1.0"/>
  </g>
</svg>
