<?xml version="1.0" encoding="UTF-8" standalone="no"?>
<svg xmlns:xlink="http://www.w3.org/1999/xlink" height="109.85px" width="64.55px" xmlns="http://www.w3.org/2000/svg">
  <g transform="matrix(1.0, 0.0, 0.0, 1.0, -117.6, -371.95)">
    <path d="M119.85 376.9 Q119.1 376.6 120.6 376.6 125.0 376.3 128.15 375.45 L133.7 373.75 Q136.15 372.85 138.5 372.45 L143.8 372.8 Q152.95 373.55 158.6 376.6 164.3 379.6 167.5 383.9 170.75 388.2 172.5 392.8 L175.65 401.35 Q177.0 405.3 178.9 407.6 181.0 409.95 181.5 413.7 182.0 417.45 180.95 421.8 179.85 426.15 177.15 430.35 174.45 434.55 170.15 437.8 165.8 441.0 159.85 442.5 154.5 443.85 152.55 445.8 150.6 447.75 151.05 450.15 151.5 452.5 153.25 455.0 L157.0 459.85 160.2 464.25 Q161.4 466.25 160.75 467.65 L160.55 469.15 Q160.35 470.55 159.45 472.3 158.6 474.05 156.7 475.05 154.75 476.1 151.45 475.45 L147.7 475.75 142.85 477.05 137.4 477.7 Q134.55 477.7 131.75 476.2 128.95 474.7 126.45 470.9 123.9 467.15 121.9 460.35 120.85 456.65 121.55 453.85 122.25 451.05 123.7 448.9 L126.4 444.85 Q127.65 442.95 127.8 441.0 128.1 434.3 128.55 429.65 129.0 425.0 129.55 421.55 L130.65 415.05 131.55 408.45 132.15 400.15 Q132.35 393.2 130.8 388.8 129.25 384.35 126.95 381.85 124.65 379.4 122.65 378.3 L119.85 376.9" fill="#ffffff" fill-rule="evenodd" stroke="none"/>
    <path d="M119.85 376.9 L122.65 378.3 Q124.65 379.4 126.95 381.85 129.25 384.35 130.8 388.8 132.35 393.2 132.15 400.15 L131.55 408.45 130.65 415.05 129.55 421.55 Q129.0 425.0 128.55 429.65 128.1 434.3 127.8 441.0 127.65 442.95 126.4 444.85 L123.7 448.9 Q122.25 451.05 121.55 453.85 120.85 456.65 121.9 460.35 123.9 467.15 126.45 470.9 128.95 474.7 131.75 476.2 134.55 477.7 137.4 477.7 L142.85 477.05 147.7 475.75 151.45 475.45 Q154.75 476.1 156.7 475.05 158.6 474.05 159.45 472.3 160.35 470.55 160.55 469.15 L160.75 467.65 Q161.4 466.25 160.2 464.25 L157.0 459.85 153.25 455.0 Q151.5 452.5 151.05 450.15 150.6 447.75 152.55 445.8 154.5 443.85 159.85 442.5 165.8 441.0 170.15 437.8 174.45 434.55 177.15 430.35 179.85 426.15 180.95 421.8 182.0 417.45 181.5 413.7 181.0 409.95 178.9 407.6 177.0 405.3 175.65 401.35 L172.5 392.8 Q170.75 388.2 167.5 383.9 164.3 379.6 158.6 376.6 152.95 373.55 143.8 372.8 L138.5 372.45 Q136.15 372.85 133.7 373.75 L128.15 375.45 Q125.0 376.3 120.6 376.6 119.1 376.6 119.85 376.9 Z" fill="none" stroke="#7f5244" stroke-linecap="round" stroke-linejoin="round" stroke-width="1.0"/>
    <path d="M120.65 378.25 Q125.95 381.0 128.45 385.65 131.0 390.3 131.55 396.3 132.15 402.25 131.6 408.9 L130.25 422.25 Q129.65 427.25 128.5 432.45 L126.3 442.85 Q125.2 448.1 124.7 453.3 124.2 458.5 124.95 463.55 125.65 468.65 128.15 473.5" fill="none" stroke="#3a3335" stroke-linecap="round" stroke-linejoin="round" stroke-width="3.0"/>
    <path d="M130.15 475.05 Q129.9 476.0 129.95 477.05 L130.05 479.05" fill="none" stroke="#877a7e" stroke-linecap="round" stroke-linejoin="round" stroke-width="1.0"/>
    <path d="M134.5 477.6 L134.85 479.25 135.25 480.9" fill="none" stroke="#877a7e" stroke-linecap="round" stroke-linejoin="round" stroke-width="1.0"/>
    <path d="M142.55 478.2 L143.1 481.3" fill="none" stroke="#877a7e" stroke-linecap="round" stroke-linejoin="round" stroke-width="1.0"/>
    <path d="M148.05 475.95 L148.55 478.05 Q148.9 479.1 149.55 479.95" fill="none" stroke="#877a7e" stroke-linecap="round" stroke-linejoin="round" stroke-width="1.0"/>
    <path d="M131.95 442.75 Q132.4 444.35 131.45 446.0 130.45 447.6 128.7 449.15 L124.9 452.25 Q122.85 453.8 121.25 455.2 119.6 456.6 118.9 457.9 117.75 460.35 118.25 463.05 118.75 465.75 120.55 467.75 122.3 469.7 125.1 470.05" fill="none" stroke="#bf0000" stroke-linecap="round" stroke-linejoin="round" stroke-width="1.0"/>
    <path d="M140.2 394.55 Q140.05 396.3 140.5 397.25 L141.6 399.0 142.9 401.25 Q143.85 404.0 143.0 406.45 142.15 408.9 140.35 411.05 L136.6 415.0 Q137.7 412.1 138.05 408.65 138.4 405.2 138.15 401.75 137.85 398.25 137.15 395.15 135.8 389.25 133.0 385.3 130.2 381.35 125.05 378.35 L127.65 378.7 132.6 378.2 137.6 377.25 Q140.15 376.85 142.65 377.25 146.2 378.0 147.0 379.95 147.8 381.85 146.8 384.15 145.8 386.5 144.0 388.5 L141.55 391.2 Q140.45 392.45 140.2 394.55" fill="#f2f2f2" fill-rule="evenodd" stroke="none"/>
    <path d="M166.85 386.2 Q167.95 386.7 169.2 388.45 170.55 390.35 171.9 392.95 L174.45 398.35 176.35 403.45 177.2 407.0 Q175.1 407.75 172.45 406.6 169.85 405.4 167.7 403.3 165.6 401.2 165.05 399.15 164.65 397.35 165.05 395.65 L166.0 392.3 166.9 388.9 166.85 386.2" fill="#e2e2e2" fill-rule="evenodd" stroke="none"/>
    <path d="M137.2 444.25 L141.5 444.15 Q144.05 445.15 146.6 447.25 149.15 449.35 151.0 451.85 152.8 454.3 153.15 456.25 153.45 458.35 152.95 460.95 152.45 463.6 151.1 466.05 149.75 468.5 147.6 470.05 145.45 471.65 142.4 471.65 139.4 471.7 135.55 469.5 135.5 469.35 136.2 468.05 L137.95 465.0 139.75 461.75 140.6 459.75 Q140.7 458.2 139.9 456.75 L137.95 453.95 136.0 451.4 Q135.15 450.2 135.15 449.1 135.4 445.25 137.2 444.25" fill="#e80c0c" fill-rule="evenodd" stroke="none"/>
    <path d="M137.2 444.25 Q135.4 445.25 135.15 449.1 135.15 450.2 136.0 451.4 L137.95 453.95 139.9 456.75 Q140.7 458.2 140.6 459.75 L139.75 461.75 137.95 465.0 136.2 468.05 Q135.5 469.35 135.55 469.5 139.4 471.7 142.4 471.65 145.45 471.65 147.6 470.05 149.75 468.5 151.1 466.05 152.45 463.6 152.95 460.95 153.45 458.35 153.15 456.25 152.8 454.3 151.0 451.85 149.15 449.35 146.6 447.25 144.05 445.15 141.5 444.15 L137.2 444.25 Z" fill="none" stroke="#aa0000" stroke-linecap="round" stroke-linejoin="round" stroke-width="1.0"/>
    <path d="M132.6 463.0 L133.4 463.85 Q135.55 465.55 137.95 466.7 L142.7 468.95 Q145.1 470.0 147.35 471.45 144.6 475.15 141.9 476.1 139.15 477.1 136.95 475.75 134.75 474.45 133.55 471.15 132.35 467.85 132.6 463.0" fill="#ffffff" fill-rule="evenodd" stroke="none"/>
    <path d="M133.4 463.85 Q135.55 465.55 137.95 466.7 L142.7 468.95 Q145.1 470.0 147.35 471.45 144.6 475.15 141.9 476.1 139.15 477.1 136.95 475.75 134.75 474.45 133.55 471.15 132.35 467.85 132.6 463.0" fill="none" stroke="#7f5244" stroke-linecap="round" stroke-linejoin="round" stroke-width="1.0"/>
    <path d="M171.5 429.55 Q174.0 429.7 177.4 428.65 L174.05 432.65 170.55 436.0 166.2 438.9 163.3 440.3 Q161.6 441.05 159.75 441.4 L156.45 441.2 Q155.0 440.65 154.4 438.65 154.25 437.95 154.65 436.8 L155.45 434.45 155.85 432.3 Q155.7 430.85 155.15 429.0 L153.85 425.85 Q151.9 422.15 149.15 420.5 146.4 418.8 142.4 418.75 L143.35 417.8 Q148.8 417.8 153.25 419.45 157.65 421.05 161.8 424.55 164.5 426.9 166.75 428.15 169.05 429.4 171.5 429.55" fill="#e2e2e2" fill-rule="evenodd" stroke="none"/>
  </g>
</svg>
