<?xml version="1.0" encoding="UTF-8" standalone="no"?>
<svg xmlns:xlink="http://www.w3.org/1999/xlink" height="40.85px" width="39.0px" xmlns="http://www.w3.org/2000/svg">
  <g transform="matrix(1.0, 0.0, 0.0, 1.0, 0.0, 0.0)">
    <path d="M24.0 0.0 L26.15 14.15 39.0 20.75 26.2 26.75 24.25 40.85 14.2 30.4 0.15 32.5 6.7 20.05 0.0 7.25 14.1 10.0 24.0 0.0" fill="#000000" fill-rule="evenodd" stroke="none"/>
    <path d="M11.75 15.6 L11.45 16.4 Q11.15 16.75 10.65 16.75 L9.85 16.45 Q9.55 16.15 9.5 15.65 9.5 15.2 9.8 14.85 10.1 14.55 10.6 14.5 11.1 14.5 11.4 14.8 11.75 15.1 11.75 15.6" fill="#ffffff" fill-rule="evenodd" stroke="none"/>
    <path d="M21.85 9.9 L21.55 10.7 Q21.25 11.05 20.75 11.05 20.3 11.05 19.95 10.75 L19.6 9.95 Q19.6 9.5 19.9 9.15 20.2 8.85 20.7 8.8 21.2 8.8 21.5 9.1 21.85 9.4 21.85 9.9" fill="#ffffff" fill-rule="evenodd" stroke="none"/>
    <path d="M27.05 22.95 L26.75 23.75 Q26.45 24.1 25.95 24.1 25.5 24.1 25.15 23.8 24.85 23.5 24.8 23.0 24.8 22.55 25.1 22.2 25.4 21.9 25.9 21.85 26.4 21.85 26.7 22.15 L27.05 22.95" fill="#ffffff" fill-rule="evenodd" stroke="none"/>
    <path d="M9.45 27.1 L9.15 27.9 Q8.85 28.25 8.35 28.25 L7.55 27.95 Q7.25 27.65 7.2 27.15 7.2 26.7 7.5 26.35 7.8 26.05 8.3 26.0 8.8 26.0 9.1 26.3 9.45 26.6 9.45 27.1" fill="#ffffff" fill-rule="evenodd" stroke="none"/>
    <path d="M21.35 29.7 L21.05 30.5 Q20.75 30.85 20.25 30.85 L19.45 30.55 Q19.15 30.25 19.1 29.75 19.1 29.3 19.4 28.95 19.7 28.65 20.2 28.6 20.7 28.6 21.0 28.9 21.35 29.2 21.35 29.7" fill="#ffffff" fill-rule="evenodd" stroke="none"/>
  </g>
</svg>
