<?xml version="1.0" encoding="UTF-8" standalone="no"?>
<svg xmlns:xlink="http://www.w3.org/1999/xlink" height="40.85px" width="39.0px" xmlns="http://www.w3.org/2000/svg">
  <g transform="matrix(1.0, 0.0, 0.0, 1.0, 0.0, 0.0)">
    <path d="M24.0 0.0 L26.15 14.15 39.0 20.75 26.2 26.75 24.25 40.85 14.2 30.4 0.15 32.5 6.7 20.05 0.0 7.25 14.1 10.0 24.0 0.0" fill="#000000" fill-rule="evenodd" stroke="none"/>
    <path d="M26.25 26.1 L25.95 26.9 Q25.65 27.25 25.15 27.25 L24.35 26.95 Q24.05 26.65 24.0 26.15 24.0 25.7 24.3 25.35 24.6 25.05 25.1 25.0 25.6 25.0 25.9 25.3 26.25 25.6 26.25 26.1" fill="#ffffff" fill-rule="evenodd" stroke="none"/>
    <path d="M15.05 12.3 L14.75 13.1 Q14.45 13.45 13.95 13.45 13.5 13.45 13.15 13.15 12.85 12.85 12.8 12.35 12.8 11.9 13.1 11.55 13.4 11.25 13.9 11.2 14.4 11.2 14.7 11.5 15.05 11.8 15.05 12.3" fill="#ffffff" fill-rule="evenodd" stroke="none"/>
    <path d="M26.25 16.85 L25.95 17.65 Q25.65 18.0 25.15 18.0 L24.35 17.7 Q24.05 17.4 24.0 16.9 24.0 16.45 24.3 16.1 24.6 15.8 25.1 15.75 25.6 15.75 25.9 16.05 26.25 16.35 26.25 16.85" fill="#ffffff" fill-rule="evenodd" stroke="none"/>
    <path d="M10.65 21.35 L10.35 22.15 Q10.05 22.5 9.55 22.5 L8.75 22.2 8.4 21.4 Q8.4 20.95 8.7 20.6 9.0 20.3 9.5 20.25 10.0 20.25 10.3 20.55 10.65 20.85 10.65 21.35" fill="#ffffff" fill-rule="evenodd" stroke="none"/>
    <path d="M13.9 27.25 Q14.4 27.25 14.7 27.55 15.05 27.85 15.05 28.35 L14.75 29.15 Q14.45 29.5 13.95 29.5 13.5 29.5 13.15 29.2 12.85 28.9 12.8 28.4 12.8 27.95 13.1 27.6 13.4 27.3 13.9 27.25" fill="#ffffff" fill-rule="evenodd" stroke="none"/>
  </g>
</svg>
