<?xml version="1.0" encoding="UTF-8" standalone="no"?>
<svg xmlns:xlink="http://www.w3.org/1999/xlink" height="40.85px" width="39.0px" xmlns="http://www.w3.org/2000/svg">
  <g transform="matrix(1.0, 0.0, 0.0, 1.0, 0.0, 0.0)">
    <path d="M24.0 0.0 L26.15 14.15 39.0 20.75 26.2 26.75 24.25 40.85 14.2 30.4 0.15 32.5 6.7 20.05 0.0 7.25 14.1 10.0 24.0 0.0" fill="#000000" fill-rule="evenodd" stroke="none"/>
    <path d="M7.2 11.2 L6.9 12.0 Q6.6 12.35 6.1 12.35 L5.3 12.05 4.95 11.25 Q4.95 10.8 5.25 10.45 5.55 10.15 6.05 10.1 6.55 10.1 6.85 10.4 7.2 10.7 7.2 11.2" fill="#ffffff" fill-rule="evenodd" stroke="none"/>
    <path d="M23.6 6.95 L23.3 7.75 Q23.0 8.1 22.5 8.1 22.05 8.1 21.7 7.8 21.4 7.5 21.35 7.0 21.35 6.55 21.65 6.2 21.95 5.9 22.45 5.85 22.95 5.85 23.25 6.15 L23.6 6.95" fill="#ffffff" fill-rule="evenodd" stroke="none"/>
    <path d="M30.65 19.1 L30.35 19.9 Q30.05 20.25 29.55 20.25 29.1 20.25 28.75 19.95 L28.4 19.15 Q28.4 18.7 28.7 18.35 29.0 18.05 29.5 18.0 30.0 18.0 30.3 18.3 30.65 18.6 30.65 19.1" fill="#ffffff" fill-rule="evenodd" stroke="none"/>
    <path d="M7.2 28.65 L6.9 29.45 Q6.6 29.8 6.1 29.8 L5.3 29.5 4.95 28.7 Q4.95 28.25 5.25 27.9 5.55 27.6 6.05 27.55 6.55 27.55 6.85 27.85 7.2 28.15 7.2 28.65" fill="#ffffff" fill-rule="evenodd" stroke="none"/>
    <path d="M23.6 32.9 L23.3 33.7 Q23.0 34.05 22.5 34.05 22.05 34.05 21.7 33.75 21.4 33.45 21.35 32.95 21.35 32.5 21.65 32.15 21.95 31.85 22.45 31.8 22.95 31.8 23.25 32.1 L23.6 32.9" fill="#ffffff" fill-rule="evenodd" stroke="none"/>
  </g>
</svg>
