<?xml version="1.0" encoding="UTF-8" standalone="no"?>
<svg xmlns:xlink="http://www.w3.org/1999/xlink" height="28.2px" width="19.9px" xmlns="http://www.w3.org/2000/svg">
  <g transform="matrix(1.0, 0.0, 0.0, 1.0, -144.0, -437.3)">
    <path d="M162.8 449.65 Q162.05 450.7 160.95 450.9 159.8 451.15 158.8 450.5 L148.35 443.2 Q147.4 442.5 147.25 441.35 147.05 440.2 147.8 439.15 148.55 438.1 149.65 437.85 150.8 437.6 151.75 438.25 L162.25 445.6 Q163.2 446.3 163.35 447.45 163.5 448.6 162.8 449.65" fill="#ffffff" fill-rule="evenodd" stroke="none"/>
    <path d="M162.8 449.65 Q162.05 450.7 160.95 450.9 159.8 451.15 158.8 450.5 L148.35 443.2 Q147.4 442.5 147.25 441.35 147.05 440.2 147.8 439.15 148.55 438.1 149.65 437.85 150.8 437.6 151.75 438.25 L162.25 445.6 Q163.2 446.3 163.35 447.45 163.5 448.6 162.8 449.65 Z" fill="none" stroke="#999999" stroke-linecap="round" stroke-linejoin="round" stroke-width="1.0"/>
    <path d="M146.0 460.4 L145.25 457.4 148.1 458.6 150.65 456.95 150.4 460.0 152.8 461.95 149.8 462.65 148.65 465.5 147.05 462.9 144.0 462.7 146.0 460.4" fill="#ffffff" fill-rule="evenodd" stroke="none"/>
  </g>
</svg>
