<?xml version="1.0" encoding="UTF-8" standalone="no"?>
<svg xmlns:xlink="http://www.w3.org/1999/xlink" height="28.2px" width="27.95px" xmlns="http://www.w3.org/2000/svg">
  <g transform="matrix(1.0, 0.0, 0.0, 1.0, 0.5, 0.0)">
    <path d="M27.45 13.15 Q27.55 16.95 25.85 20.05 24.15 23.2 21.15 25.1 18.15 27.05 14.35 27.2 10.55 27.3 7.4 25.6 4.3 23.9 2.35 20.9 0.45 17.9 0.25 14.1 0.15 10.3 1.85 7.15 3.6 4.05 6.6 2.1 9.6 0.2 13.4 0.0 17.2 -0.1 20.3 1.6 23.45 3.35 25.35 6.35 27.3 9.35 27.45 13.15" fill="#000000" fill-rule="evenodd" stroke="none"/>
    <path d="M25.0 14.75 Q25.05 18.25 23.5 21.1 21.95 24.0 19.15 25.75 16.4 27.5 12.95 27.7 9.45 27.75 6.6 26.2 3.7 24.65 1.95 21.9 0.15 19.1 0.0 15.65 -0.1 12.15 1.5 9.3 3.05 6.4 5.8 4.65 8.55 2.85 12.05 2.7 15.55 2.6 18.4 4.2 21.3 5.75 23.05 8.5 24.8 11.25 25.0 14.75" fill="#ffffff" fill-rule="evenodd" stroke="none"/>
    <path d="M25.0 14.75 Q25.05 18.25 23.5 21.1 21.95 24.0 19.15 25.75 16.4 27.5 12.95 27.7 9.45 27.75 6.6 26.2 3.7 24.65 1.95 21.9 0.15 19.1 0.0 15.65 -0.1 12.15 1.5 9.3 3.05 6.4 5.8 4.65 8.55 2.85 12.05 2.7 15.55 2.6 18.4 4.2 21.3 5.75 23.05 8.5 24.8 11.25 25.0 14.75 Z" fill="none" stroke="#999999" stroke-linecap="round" stroke-linejoin="round" stroke-width="1.0"/>
    <path d="M18.6 15.0 Q18.6 17.6 16.95 19.4 15.3 21.2 12.7 21.35 10.1 21.35 8.3 19.7 6.5 18.05 6.35 15.45 6.35 12.85 8.0 11.05 9.65 9.25 12.25 9.1 14.85 9.1 16.65 10.75 18.45 12.4 18.6 15.0" fill="#e80c0c" fill-rule="evenodd" stroke="none"/>
  </g>
</svg>
