<?xml version="1.0" encoding="UTF-8" standalone="no"?>
<svg xmlns:xlink="http://www.w3.org/1999/xlink" height="46.15px" width="128.35px" xmlns="http://www.w3.org/2000/svg">
  <g transform="matrix(1.0, 0.0, 0.0, 1.0, 4.75, 22.3)">
    <path d="M10.1 -4.05 Q10.1 -4.4 10.75 -4.55 11.35 -4.5 11.35 -4.0 L11.25 -3.5 Q11.35 -3.3 10.75 -3.3 10.6 -3.3 10.15 -3.65 L10.1 -4.05 M37.35 -5.75 L37.25 -5.25 Q37.35 -5.05 36.75 -5.05 36.6 -5.05 36.15 -5.4 L36.1 -5.8 Q36.1 -6.15 36.75 -6.3 37.35 -6.25 37.35 -5.75 M46.25 -10.75 Q46.25 -9.5 45.0 -9.5 44.15 -9.5 43.85 -10.1 L43.75 -10.75 Q43.75 -12.0 45.0 -12.0 46.05 -12.0 46.25 -10.75 M53.6 -2.5 L53.5 -2.0 Q53.6 -1.8 53.0 -1.8 L52.4 -2.15 52.35 -2.55 Q52.35 -2.9 53.0 -3.05 53.6 -3.0 53.6 -2.5 M65.1 -21.8 Q65.1 -22.15 65.75 -22.3 66.35 -22.25 66.35 -21.75 L66.25 -21.25 Q66.35 -21.05 65.75 -21.05 L65.15 -21.4 65.1 -21.8 M79.35 -5.25 L79.25 -4.75 Q79.35 -4.55 78.75 -4.55 78.6 -4.55 78.15 -4.9 L78.1 -5.3 Q78.1 -5.65 78.75 -5.8 79.35 -5.75 79.35 -5.25 M113.85 -6.75 L113.75 -6.25 Q113.85 -6.05 113.25 -6.05 113.1 -6.05 112.65 -6.4 L112.6 -6.8 Q112.6 -7.15 113.25 -7.3 113.85 -7.25 113.85 -6.75 M123.6 20.6 L123.4 21.15 Q123.6 21.35 123.0 21.35 122.7 21.35 122.4 21.0 L122.35 20.65 Q122.35 20.25 123.0 20.1 123.5 20.4 123.6 20.6 M118.75 11.0 Q117.9 11.0 117.6 10.4 L117.5 9.7 Q117.5 8.5 118.75 8.5 119.8 8.5 120.0 9.7 120.0 11.0 118.75 11.0 M111.25 22.6 Q111.75 22.9 111.85 23.1 L111.65 23.65 Q111.85 23.85 111.25 23.85 110.95 23.85 110.65 23.5 L110.6 23.15 Q110.6 22.75 111.25 22.6 M97.5 1.2 Q97.5 0.0 98.75 0.0 99.8 0.0 100.0 1.2 100.0 2.5 98.75 2.5 97.9 2.5 97.6 1.9 L97.5 1.2 M91.85 4.35 L91.65 4.9 Q91.85 5.1 91.25 5.1 90.95 5.1 90.65 4.75 L90.6 4.4 Q90.6 4.0 91.25 3.85 91.75 4.15 91.85 4.35 M92.6 14.1 L92.4 14.65 Q92.6 14.85 92.0 14.85 91.7 14.85 91.4 14.5 L91.35 14.15 Q91.35 13.75 92.0 13.6 92.5 13.9 92.6 14.1 M72.0 7.5 Q71.15 7.5 70.85 6.9 L70.75 6.2 Q70.75 5.0 72.0 5.0 73.05 5.0 73.25 6.2 73.25 7.5 72.0 7.5 M70.6 20.1 L70.4 20.65 Q70.6 20.85 70.0 20.85 L69.4 20.5 69.35 20.15 Q69.35 19.75 70.0 19.6 L70.6 20.1 M44.0 17.25 Q45.05 17.25 45.25 18.45 45.25 19.75 44.0 19.75 43.15 19.75 42.85 19.15 L42.75 18.45 Q42.75 17.25 44.0 17.25 M21.75 3.2 Q21.75 4.5 20.5 4.5 19.65 4.5 19.35 3.9 L19.25 3.2 Q19.25 2.0 20.5 2.0 21.55 2.0 21.75 3.2 M28.25 13.35 Q27.95 13.35 27.65 13.0 L27.6 12.65 Q27.6 12.25 28.25 12.1 28.75 12.4 28.85 12.6 L28.65 13.15 Q28.85 13.35 28.25 13.35 M38.35 22.1 L38.15 22.65 Q38.35 22.85 37.75 22.85 L37.15 22.5 37.1 22.15 Q37.1 21.75 37.75 21.6 38.25 21.9 38.35 22.1 M9.1 16.1 L8.9 16.65 Q9.1 16.85 8.5 16.85 8.2 16.85 7.9 16.5 L7.85 16.15 Q7.85 15.75 8.5 15.6 L9.1 16.1 M-2.25 4.95 Q-2.25 6.25 -3.5 6.25 -4.75 6.25 -4.75 4.95 -4.75 3.75 -3.5 3.75 -2.3 3.75 -2.25 4.95 M-2.05 14.9 L-2.15 15.4 -2.75 15.6 Q-3.3 15.4 -3.3 14.9 L-3.15 14.4 -2.75 14.35 Q-2.05 14.55 -2.05 14.9" fill="#ffffff" fill-rule="evenodd" stroke="none"/>
  </g>
</svg>
