<?xml version="1.0" encoding="UTF-8" standalone="no"?>
<svg xmlns:xlink="http://www.w3.org/1999/xlink" height="149.35px" width="64.35px" xmlns="http://www.w3.org/2000/svg">
  <g transform="matrix(1.0, 0.0, 0.0, 1.0, -2.55, -3.4)">
    <path d="M56.8 129.45 Q67.85 133.35 66.8 139.85 67.9 146.25 56.8 150.2 49.95 152.75 40.2 152.75 30.45 152.75 23.55 150.2 12.45 146.25 13.6 139.85 12.5 133.35 23.55 129.45 L23.6 129.45 Q30.45 126.95 40.2 126.95 49.9 126.95 56.75 129.45 L56.8 129.45 M56.45 130.1 L56.5 130.1 Q49.75 127.65 40.2 127.65 30.6 127.65 23.85 130.1 L23.9 130.1 Q13.45 133.75 14.45 139.85 13.45 145.8 23.85 149.55 30.6 152.0 40.2 152.0 49.75 152.0 56.5 149.55 66.95 145.8 66.0 139.85 66.95 133.75 56.45 130.1" fill="#9d9da1" fill-opacity="0.05882353" fill-rule="evenodd" stroke="none"/>
    <path d="M56.45 130.1 Q66.95 133.75 66.0 139.85 66.95 145.8 56.5 149.55 49.75 152.0 40.2 152.0 30.6 152.0 23.85 149.55 13.45 145.8 14.45 139.85 13.45 133.75 23.9 130.1 L23.85 130.1 Q30.6 127.65 40.2 127.65 49.75 127.65 56.5 130.1 L56.45 130.1 M56.15 130.8 L56.2 130.8 Q49.6 128.4 40.2 128.4 30.8 128.4 24.2 130.8 L24.25 130.8 Q14.45 134.2 15.25 139.85 14.45 145.35 24.2 148.85 30.8 151.25 40.2 151.25 49.6 151.25 56.2 148.85 65.95 145.35 65.15 139.85 65.95 134.2 56.15 130.8" fill="#9d9da1" fill-opacity="0.12156863" fill-rule="evenodd" stroke="none"/>
    <path d="M56.15 130.8 Q65.95 134.2 65.15 139.85 65.95 145.35 56.2 148.85 49.6 151.25 40.2 151.25 30.8 151.25 24.2 148.85 14.45 145.35 15.25 139.85 14.45 134.2 24.25 130.8 L24.2 130.8 Q30.8 128.4 40.2 128.4 49.6 128.4 56.2 130.8 L56.15 130.8 M55.85 131.45 L55.85 131.5 Q49.4 129.15 40.2 129.15 30.95 129.15 24.5 131.5 L24.55 131.45 Q15.35 134.65 16.1 139.85 15.35 144.95 24.5 148.2 30.95 150.5 40.2 150.55 49.4 150.5 55.85 148.2 65.0 144.95 64.3 139.85 65.0 134.65 55.85 131.45" fill="#9d9da1" fill-opacity="0.18039216" fill-rule="evenodd" stroke="none"/>
    <path d="M55.85 131.45 Q65.0 134.65 64.3 139.85 65.0 144.95 55.85 148.2 49.4 150.5 40.2 150.55 30.95 150.5 24.5 148.2 15.35 144.95 16.1 139.85 15.35 134.65 24.55 131.45 L24.5 131.5 Q30.95 129.15 40.2 129.15 49.4 129.15 55.85 131.5 L55.85 131.45 M63.45 139.85 Q64.0 135.1 55.55 132.15 49.15 129.85 40.2 129.85 31.2 129.85 24.8 132.15 L24.85 132.15 Q16.35 135.1 16.9 139.85 16.35 144.5 24.8 147.55 31.2 149.8 40.2 149.8 49.15 149.8 55.55 147.55 64.0 144.5 63.45 139.85" fill="#9d9da1" fill-opacity="0.24313726" fill-rule="evenodd" stroke="none"/>
    <path d="M63.45 139.85 Q64.0 144.5 55.55 147.55 49.15 149.8 40.2 149.8 31.2 149.8 24.8 147.55 16.35 144.5 16.9 139.85 16.35 135.1 24.85 132.15 L24.8 132.15 Q31.2 129.85 40.2 129.85 49.15 129.85 55.55 132.15 64.0 135.1 63.45 139.85 M62.65 139.85 Q63.0 135.55 55.25 132.8 49.0 130.55 40.2 130.6 31.35 130.55 25.15 132.8 17.35 135.55 17.75 139.85 17.3 144.05 25.15 146.85 31.35 149.1 40.2 149.1 49.0 149.1 55.25 146.85 63.05 144.05 62.65 139.85" fill="#9d9da1" fill-opacity="0.30588236" fill-rule="evenodd" stroke="none"/>
    <path d="M62.65 139.85 Q63.05 144.05 55.25 146.85 49.0 149.1 40.2 149.1 31.35 149.1 25.15 146.85 17.3 144.05 17.75 139.85 17.35 135.55 25.15 132.8 31.35 130.55 40.2 130.6 49.0 130.55 55.25 132.8 63.0 135.55 62.65 139.85 M61.8 139.85 Q62.05 135.95 54.95 133.5 48.8 131.3 40.2 131.3 31.55 131.3 25.45 133.5 L25.5 133.5 Q18.3 135.95 18.55 139.85 18.3 143.65 25.45 146.2 31.55 148.35 40.2 148.35 48.8 148.35 54.95 146.2 62.05 143.65 61.8 139.85" fill="#9d9da1" fill-opacity="0.3647059" fill-rule="evenodd" stroke="none"/>
    <path d="M61.8 139.85 Q62.05 143.65 54.95 146.2 48.8 148.35 40.2 148.35 31.55 148.35 25.45 146.2 18.3 143.65 18.55 139.85 18.3 135.95 25.5 133.5 L25.45 133.5 Q31.55 131.3 40.2 131.3 48.8 131.3 54.95 133.5 62.05 135.95 61.8 139.85 M54.6 145.5 Q61.1 143.15 61.0 139.85 61.15 136.45 54.6 134.15 48.65 132.05 40.2 132.05 31.75 132.05 25.75 134.15 19.25 136.45 19.4 139.85 19.3 143.15 25.75 145.5 31.75 147.6 40.2 147.65 48.65 147.6 54.6 145.5" fill="#9d9da1" fill-opacity="0.42745098" fill-rule="evenodd" stroke="none"/>
    <path d="M54.6 145.5 Q48.65 147.6 40.2 147.65 31.75 147.6 25.75 145.5 19.3 143.15 19.4 139.85 19.25 136.45 25.75 134.15 31.75 132.05 40.2 132.05 48.65 132.05 54.6 134.15 61.15 136.45 61.0 139.85 61.1 143.15 54.6 145.5" fill="#9d9da1" fill-opacity="0.49019608" fill-rule="evenodd" stroke="none"/>
    <path d="M32.75 74.25 Q30.65 70.85 28.7 69.2 26.85 67.5 24.9 66.85 L20.95 66.1 16.75 65.6 Q14.55 65.15 12.0 63.9 9.4 62.55 6.4 59.75 4.75 58.1 3.95 55.55 3.1 53.0 3.05 50.5 2.95 48.05 3.5 46.6 3.9 45.45 4.7 45.15 L6.35 44.35 Q7.25 43.8 8.15 41.9 9.0 39.85 8.95 37.95 L8.8 33.85 Q8.7 31.65 9.3 28.85 9.9 26.1 12.0 22.3 15.35 16.45 20.45 11.65 25.6 6.9 32.4 3.9 L32.75 74.25" fill="#fff7f3" fill-rule="evenodd" stroke="none"/>
    <path d="M32.4 3.9 Q25.6 6.9 20.45 11.65 15.35 16.45 12.0 22.3 9.9 26.1 9.3 28.85 8.7 31.65 8.8 33.85 L8.95 37.95 Q9.0 39.85 8.15 41.9 7.25 43.8 6.35 44.35 L4.7 45.15 Q3.9 45.45 3.5 46.6 2.95 48.05 3.05 50.5 3.1 53.0 3.95 55.55 4.75 58.1 6.4 59.75 9.4 62.55 12.0 63.9 14.55 65.15 16.75 65.6 L20.95 66.1 24.9 66.85 Q26.85 67.5 28.7 69.2 30.65 70.85 32.75 74.25" fill="none" stroke="#7f5c40" stroke-linecap="round" stroke-linejoin="round" stroke-width="1.0"/>
  </g>
</svg>
