<?xml version="1.0" encoding="UTF-8" standalone="no"?>
<svg xmlns:xlink="http://www.w3.org/1999/xlink" height="27.25px" width="33.5px" xmlns="http://www.w3.org/2000/svg">
  <g transform="matrix(1.0, 0.0, 0.0, 1.0, -22.65, -92.85)">
    <path d="M23.15 98.55 Q25.15 96.25 28.4 95.0 31.65 93.8 35.15 93.5 38.6 93.2 41.25 93.55 44.05 93.95 45.5 95.2 47.0 96.5 47.8 98.35 L49.3 102.3 Q50.05 104.45 51.3 106.55 52.5 108.7 54.9 110.5 53.05 112.5 50.0 114.4 46.9 116.3 43.1 117.7 39.35 119.1 35.55 119.6 L28.55 119.35 Q25.35 118.6 23.3 116.25 24.95 113.95 25.6 111.7 26.2 109.4 26.1 106.85 25.95 104.25 25.4 101.05 L23.15 98.55" fill="#106189" fill-rule="evenodd" stroke="none"/>
    <path d="M25.4 101.05 Q25.95 104.25 26.1 106.85 26.2 109.4 25.6 111.7 24.95 113.95 23.3 116.25 25.35 118.6 28.55 119.35 L35.55 119.6 Q39.35 119.1 43.1 117.7 46.9 116.3 50.0 114.4 53.05 112.5 54.9 110.5 52.5 108.7 51.3 106.55 50.05 104.45 49.3 102.3 L47.8 98.35 Q47.0 96.5 45.5 95.2 44.05 93.95 41.25 93.55 38.6 93.2 35.15 93.5 31.65 93.8 28.4 95.0 25.15 96.25 23.15 98.55" fill="none" stroke="#6c91ad" stroke-linecap="round" stroke-linejoin="round" stroke-width="1.0"/>
    <path d="M45.95 111.45 Q47.7 110.9 48.6 110.2 L49.55 109.4 51.15 109.0 Q50.85 110.6 49.6 111.45 48.35 112.35 46.5 112.7 L42.6 113.05 39.0 112.5 Q37.05 111.9 35.45 110.95 33.9 109.95 33.4 108.75 L36.1 109.2 Q39.2 111.3 41.7 111.65 L45.95 111.45" fill="#6c91ad" fill-rule="evenodd" stroke="none"/>
    <path d="M55.65 106.5 Q52.8 107.8 48.85 108.35 L40.5 109.0 31.95 108.9 24.6 108.55 Q23.75 106.45 24.0 104.55 24.2 103.2 24.95 102.25 L31.4 101.65 38.95 100.85 Q42.8 100.55 46.25 100.8 49.75 101.1 52.25 102.4 54.7 103.7 55.65 106.5" fill="#ffffff" fill-rule="evenodd" stroke="none"/>
    <path d="M55.65 106.5 Q54.7 103.7 52.25 102.4 49.75 101.1 46.25 100.8 42.8 100.55 38.95 100.85 L31.4 101.65 24.95 102.25 Q24.2 103.2 24.0 104.55 23.75 106.45 24.6 108.55 L31.95 108.9 40.5 109.0 48.85 108.35 Q52.8 107.8 55.65 106.5 M24.95 102.25 L25.15 102.05 25.7 101.5" fill="none" stroke="#877a7e" stroke-linecap="round" stroke-linejoin="round" stroke-width="1.0"/>
  </g>
</svg>
