<?xml version="1.0" encoding="UTF-8" standalone="no"?>
<svg xmlns:xlink="http://www.w3.org/1999/xlink" height="27.55px" width="33.6px" xmlns="http://www.w3.org/2000/svg">
  <g transform="matrix(1.0, 0.0, 0.0, 1.0, -22.55, -92.5)">
    <path d="M23.05 98.45 Q25.0 96.1 28.25 94.8 31.45 93.55 34.95 93.2 38.4 92.85 41.05 93.15 43.85 93.5 45.35 94.7 46.85 96.0 47.7 97.85 L49.25 101.75 Q50.05 103.9 51.35 105.95 52.5 108.1 54.95 109.85 53.15 111.9 50.15 113.85 47.1 115.8 43.3 117.25 39.6 118.7 35.8 119.3 32.0 119.85 28.8 119.15 25.6 118.45 23.5 116.15 25.1 113.8 25.7 111.55 26.3 109.25 26.15 106.7 25.95 104.1 25.35 100.9 L23.05 98.45" fill="#106189" fill-rule="evenodd" stroke="none"/>
    <path d="M25.35 100.9 Q25.95 104.1 26.15 106.7 26.3 109.25 25.7 111.55 25.1 113.8 23.5 116.15 25.6 118.45 28.8 119.15 32.0 119.85 35.8 119.3 39.6 118.7 43.3 117.25 47.1 115.8 50.15 113.85 53.15 111.9 54.95 109.85 52.5 108.1 51.35 105.95 50.05 103.9 49.25 101.75 L47.7 97.85 Q46.85 96.0 45.35 94.7 43.85 93.5 41.05 93.15 38.4 92.85 34.95 93.2 31.45 93.55 28.25 94.8 25.0 96.1 23.05 98.45" fill="none" stroke="#6c91ad" stroke-linecap="round" stroke-linejoin="round" stroke-width="1.0"/>
    <path d="M46.05 110.9 Q47.8 110.3 48.65 109.6 L49.6 108.8 51.2 108.35 Q50.95 109.95 49.7 110.85 48.45 111.75 46.6 112.15 L42.7 112.55 39.1 112.05 Q37.15 111.5 35.55 110.55 33.95 109.6 33.45 108.4 L36.15 108.8 Q39.3 110.85 41.8 111.15 L46.05 110.9" fill="#6c91ad" fill-rule="evenodd" stroke="none"/>
    <path d="M55.65 106.0 Q52.8 107.3 48.85 107.85 L40.5 108.5 31.95 108.4 24.6 108.05 Q23.75 105.95 24.0 104.05 24.2 102.7 24.95 101.75 L31.4 101.15 38.95 100.35 Q42.8 100.05 46.25 100.3 49.75 100.6 52.25 101.9 54.7 103.2 55.65 106.0" fill="#ffffff" fill-rule="evenodd" stroke="none"/>
    <path d="M55.65 106.0 Q54.7 103.2 52.25 101.9 49.75 100.6 46.25 100.3 42.8 100.05 38.95 100.35 L31.4 101.15 24.95 101.75 Q24.2 102.7 24.0 104.05 23.75 105.95 24.6 108.05 L31.95 108.4 40.5 108.5 48.85 107.85 Q52.8 107.3 55.65 106.0 M24.95 101.75 L25.15 101.55 25.7 101.0" fill="none" stroke="#877a7e" stroke-linecap="round" stroke-linejoin="round" stroke-width="1.0"/>
  </g>
</svg>
