<?xml version="1.0" encoding="UTF-8" standalone="no"?>
<svg xmlns:xlink="http://www.w3.org/1999/xlink" height="152.85px" width="65.85px" xmlns="http://www.w3.org/2000/svg">
  <g transform="matrix(1.0, 0.0, 0.0, 1.0, -31.5, -368.5)">
    <path d="M79.3 498.7 L79.35 498.7 Q71.85 496.25 61.2 496.25 50.55 496.25 43.05 498.7 L43.1 498.7 Q31.45 502.35 32.55 508.45 31.45 514.4 43.05 518.15 50.55 520.6 61.2 520.6 71.85 520.6 79.35 518.15 90.95 514.4 89.9 508.45 90.95 502.35 79.3 498.7 M79.7 498.05 Q92.0 501.95 90.8 508.45 92.05 514.85 79.7 518.8 72.05 521.35 61.2 521.35 50.35 521.35 42.7 518.8 30.35 514.85 31.6 508.45 30.4 501.95 42.7 498.05 L42.75 498.05 Q50.4 495.55 61.2 495.55 72.0 495.55 79.65 498.05 L79.7 498.05" fill="#9d9da1" fill-opacity="0.05882353" fill-rule="evenodd" stroke="none"/>
    <path d="M79.3 498.7 Q90.95 502.35 89.9 508.45 90.95 514.4 79.35 518.15 71.85 520.6 61.2 520.6 50.55 520.6 43.05 518.15 31.45 514.4 32.55 508.45 31.45 502.35 43.1 498.7 L43.05 498.7 Q50.55 496.25 61.2 496.25 71.85 496.25 79.35 498.7 L79.3 498.7 M78.95 499.4 L79.0 499.4 Q71.65 497.0 61.2 497.0 50.75 497.0 43.4 499.4 L43.45 499.4 Q32.55 502.8 33.45 508.45 32.55 513.95 43.4 517.45 50.75 519.85 61.2 519.85 71.65 519.85 79.0 517.45 89.85 513.95 88.95 508.45 89.85 502.8 78.95 499.4" fill="#9d9da1" fill-opacity="0.12156863" fill-rule="evenodd" stroke="none"/>
    <path d="M78.95 499.4 Q89.85 502.8 88.95 508.45 89.85 513.95 79.0 517.45 71.65 519.85 61.2 519.85 50.75 519.85 43.4 517.45 32.55 513.95 33.45 508.45 32.55 502.8 43.45 499.4 L43.4 499.4 Q50.75 497.0 61.2 497.0 71.65 497.0 79.0 499.4 L78.95 499.4 M78.65 500.05 L78.65 500.1 Q71.45 497.75 61.2 497.75 50.95 497.75 43.75 500.1 L43.8 500.05 Q33.6 503.25 34.4 508.45 33.6 513.55 43.75 516.8 50.95 519.1 61.2 519.15 71.45 519.1 78.65 516.8 88.8 513.55 88.05 508.45 88.8 503.25 78.65 500.05" fill="#9d9da1" fill-opacity="0.18039216" fill-rule="evenodd" stroke="none"/>
    <path d="M78.65 500.05 Q88.8 503.25 88.05 508.45 88.8 513.55 78.65 516.8 71.45 519.1 61.2 519.15 50.95 519.1 43.75 516.8 33.6 513.55 34.4 508.45 33.6 503.25 43.8 500.05 L43.75 500.1 Q50.95 497.75 61.2 497.75 71.45 497.75 78.65 500.1 L78.65 500.05 M61.2 518.4 Q71.2 518.4 78.3 516.15 87.7 513.1 87.1 508.45 87.7 503.7 78.3 500.75 71.2 498.45 61.2 498.45 51.2 498.45 44.1 500.75 L44.15 500.75 Q34.7 503.7 35.3 508.45 34.7 513.1 44.1 516.15 51.2 518.4 61.2 518.4" fill="#9d9da1" fill-opacity="0.24313726" fill-rule="evenodd" stroke="none"/>
    <path d="M61.2 518.4 Q51.2 518.4 44.1 516.15 34.7 513.1 35.3 508.45 34.7 503.7 44.15 500.75 L44.1 500.75 Q51.2 498.45 61.2 498.45 71.2 498.45 78.3 500.75 87.7 503.7 87.1 508.45 87.7 513.1 78.3 516.15 71.2 518.4 61.2 518.4 M61.2 517.7 Q71.0 517.7 77.95 515.45 86.65 512.65 86.2 508.45 86.6 504.15 77.95 501.4 71.0 499.15 61.2 499.2 51.4 499.15 44.45 501.4 L44.5 501.4 Q35.8 504.15 36.25 508.45 35.75 512.65 44.45 515.45 51.4 517.7 61.2 517.7" fill="#9d9da1" fill-opacity="0.30588236" fill-rule="evenodd" stroke="none"/>
    <path d="M61.2 517.7 Q51.4 517.7 44.45 515.45 35.75 512.65 36.25 508.45 35.8 504.15 44.5 501.4 L44.45 501.4 Q51.4 499.15 61.2 499.2 71.0 499.15 77.95 501.4 86.6 504.15 86.2 508.45 86.65 512.65 77.95 515.45 71.0 517.7 61.2 517.7 M61.2 516.95 Q70.8 516.95 77.6 514.8 85.55 512.25 85.25 508.45 85.55 504.55 77.6 502.1 70.8 499.9 61.2 499.9 51.6 499.9 44.8 502.1 L44.85 502.1 Q36.85 504.55 37.15 508.45 36.85 512.25 44.8 514.8 51.6 516.95 61.2 516.95" fill="#9d9da1" fill-opacity="0.3647059" fill-rule="evenodd" stroke="none"/>
    <path d="M61.2 516.95 Q51.6 516.95 44.8 514.8 36.85 512.25 37.15 508.45 36.85 504.55 44.85 502.1 L44.8 502.1 Q51.6 499.9 61.2 499.9 70.8 499.9 77.6 502.1 85.55 504.55 85.25 508.45 85.55 512.25 77.6 514.8 70.8 516.95 61.2 516.95 M77.25 502.75 Q70.6 500.65 61.2 500.65 51.8 500.65 45.15 502.75 37.9 505.05 38.1 508.45 37.95 511.75 45.15 514.1 51.8 516.2 61.2 516.25 70.6 516.2 77.25 514.1 84.45 511.75 84.35 508.45 84.5 505.05 77.25 502.75" fill="#9d9da1" fill-opacity="0.42745098" fill-rule="evenodd" stroke="none"/>
    <path d="M77.25 502.75 Q84.5 505.05 84.35 508.45 84.45 511.75 77.25 514.1 70.6 516.2 61.2 516.25 51.8 516.2 45.15 514.1 37.95 511.75 38.1 508.45 37.9 505.05 45.15 502.75 51.8 500.65 61.2 500.65 70.6 500.65 77.25 502.75" fill="#9d9da1" fill-opacity="0.49019608" fill-rule="evenodd" stroke="none"/>
    <path d="M63.0 494.2 Q62.25 496.8 62.5 499.85 62.6 501.45 63.0 502.75 63.35 504.1 64.5 505.2 65.6 506.3 68.1 507.25 69.15 507.7 69.85 508.8 70.5 509.85 70.6 511.2 70.7 512.6 70.1 513.85 69.65 514.55 67.8 514.8 L63.4 515.1 58.7 514.9 55.35 514.4 Q53.45 513.75 52.2 510.55 50.95 507.35 50.85 502.65 50.75 497.9 52.3 492.7 L53.25 489.9 54.1 486.2 54.75 486.6 56.2 487.35 59.3 488.15 65.1 488.75 Q63.8 491.65 63.0 494.2" fill="#ffffff" fill-rule="evenodd" stroke="none"/>
    <path d="M63.0 494.2 Q62.25 496.8 62.5 499.85 62.6 501.45 63.0 502.75 63.35 504.1 64.5 505.2 65.6 506.3 68.1 507.25 69.15 507.7 69.85 508.8 70.5 509.85 70.6 511.2 70.7 512.6 70.1 513.85 69.65 514.55 67.8 514.8 L63.4 515.1 58.7 514.9 55.35 514.4 Q53.45 513.75 52.2 510.55 50.95 507.35 50.85 502.65 50.75 497.9 52.3 492.7 L53.25 489.9 54.1 486.2 54.75 486.6 56.2 487.35 59.3 488.15 65.1 488.75 Q63.8 491.65 63.0 494.2 Z" fill="none" stroke="#877a7e" stroke-linecap="round" stroke-linejoin="round" stroke-width="1.0"/>
    <path d="M62.2 482.0 Q62.25 482.95 63.0 483.55 L64.6 484.7 Q65.45 485.3 65.7 486.25 L65.4 488.25 64.6 491.0 Q64.15 492.35 64.2 492.9 L64.1 494.9 63.65 497.75 63.35 499.75 Q63.25 501.2 63.55 501.8 L64.25 502.8 64.95 503.8 Q65.25 504.45 65.15 505.85 L62.4 506.3 58.55 506.5 54.7 506.4 51.95 505.9 Q50.05 505.05 49.7 503.1 49.4 501.1 49.65 498.9 L49.8 495.05 Q49.75 494.55 50.05 494.2 L50.7 493.6 Q51.0 493.3 50.9 492.9 50.15 492.6 49.8 492.0 49.7 491.55 50.1 491.1 L50.45 490.15 50.35 488.0 50.6 484.9 50.95 481.75 51.3 479.6 Q51.4 478.7 50.85 478.3 50.35 477.95 49.8 477.85 L50.05 477.85 Q51.5 477.9 53.4 478.75 L57.2 480.5 Q59.1 481.4 60.55 481.45 L62.2 482.0" fill="#106189" fill-rule="evenodd" stroke="none"/>
    <path d="M62.2 482.0 Q62.25 482.95 63.0 483.55 L64.6 484.7 Q65.45 485.3 65.7 486.25 L65.4 488.25 64.6 491.0 Q64.15 492.35 64.2 492.9 L64.1 494.9 63.65 497.75 63.35 499.75 Q63.25 501.2 63.55 501.8 L64.25 502.8 64.95 503.8 Q65.25 504.45 65.15 505.85 L62.4 506.3 58.55 506.5 54.7 506.4 51.95 505.9 Q50.05 505.05 49.7 503.1 49.4 501.1 49.65 498.9 L49.8 495.05 Q49.75 494.55 50.05 494.2 L50.7 493.6 Q51.0 493.3 50.9 492.9 50.15 492.6 49.8 492.0 49.7 491.55 50.1 491.1 L50.45 490.15 50.35 488.0 50.6 484.9 50.95 481.75 51.3 479.6 Q51.4 478.7 50.85 478.3 50.35 477.95 49.8 477.85 L49.7 477.85 49.0 477.8 M49.8 477.85 L50.05 477.85 Q51.5 477.9 53.4 478.75 L57.2 480.5 Q59.1 481.4 60.55 481.45" fill="none" stroke="#6c91ad" stroke-linecap="round" stroke-linejoin="round" stroke-width="1.0"/>
    <path d="M60.85 503.65 Q61.5 503.9 62.05 504.6 62.6 505.3 62.6 506.05 L62.45 506.9 Q62.3 507.1 61.95 507.15 L61.05 507.5 Q59.75 508.25 58.3 508.85 L55.35 509.0 Q54.55 508.7 53.9 507.75 53.25 506.8 53.1 505.7 53.0 504.65 53.8 503.95 54.55 503.45 55.75 503.6 L58.2 503.85 Q59.45 503.95 60.45 503.25 L60.85 503.65" fill="#ffffff" fill-rule="evenodd" stroke="none"/>
    <path d="M60.45 503.25 Q59.45 503.95 58.2 503.85 L55.75 503.6 Q54.55 503.45 53.8 503.95 53.0 504.65 53.1 505.7 53.25 506.8 53.9 507.75 54.55 508.7 55.35 509.0 L58.3 508.85 Q59.75 508.25 61.05 507.5 L61.95 507.15 Q62.3 507.1 62.45 506.9 L62.6 506.05 Q62.6 505.3 62.05 504.6 61.5 503.9 60.85 503.65" fill="none" stroke="#877a7e" stroke-linecap="round" stroke-linejoin="round" stroke-width="1.0"/>
    <path d="M65.45 503.4 Q66.85 502.4 67.75 503.0 68.65 503.65 68.55 504.85 68.45 506.05 66.9 506.8" fill="none" stroke="#877a7e" stroke-linecap="round" stroke-linejoin="round" stroke-width="1.0"/>
    <path d="M67.35 369.0 Q71.95 371.35 75.95 374.5 79.95 377.6 82.9 381.5 85.8 385.4 87.2 390.05 88.2 393.7 88.25 397.65 L88.35 405.5 Q88.4 409.4 89.55 412.9 90.15 414.5 91.15 415.3 L93.25 416.7 95.2 417.95 Q96.1 418.65 96.55 420.05 97.45 423.6 95.6 427.0 93.75 430.35 90.25 433.2 86.25 436.45 81.3 437.35 76.35 438.2 71.3 437.15 66.25 436.1 62.0 433.55 L67.35 369.0" fill="#fff7f3" fill-rule="evenodd" stroke="none"/>
    <path d="M67.35 369.0 Q71.95 371.35 75.95 374.5 79.95 377.6 82.9 381.5 85.8 385.4 87.2 390.05 88.2 393.7 88.25 397.65 L88.35 405.5 Q88.4 409.4 89.55 412.9 90.15 414.5 91.15 415.3 L93.25 416.7 95.2 417.95 Q96.1 418.65 96.55 420.05 97.45 423.6 95.6 427.0 93.75 430.35 90.25 433.2 86.25 436.45 81.3 437.35 76.35 438.2 71.3 437.15 66.25 436.1 62.0 433.55" fill="none" stroke="#7f5c40" stroke-linecap="round" stroke-linejoin="round" stroke-width="1.0"/>
  </g>
</svg>
