<?xml version="1.0" encoding="UTF-8" standalone="no"?>
<svg xmlns:xlink="http://www.w3.org/1999/xlink" height="149.85px" width="65.35px" xmlns="http://www.w3.org/2000/svg">
  <g transform="matrix(1.0, 0.0, 0.0, 1.0, -103.2, -372.55)">
    <path d="M157.7 499.75 L157.75 499.75 Q150.75 497.3 140.85 497.3 130.9 497.3 123.9 499.75 L123.95 499.75 Q113.1 503.4 114.1 509.5 113.1 515.45 123.9 519.2 130.9 521.65 140.85 521.65 150.75 521.65 157.75 519.2 168.6 515.45 167.6 509.5 168.6 503.4 157.7 499.75 M158.1 499.1 Q169.55 503.0 168.45 509.5 169.6 515.9 158.1 519.85 150.95 522.4 140.85 522.4 130.7 522.4 123.6 519.85 112.05 515.9 113.25 509.5 112.1 503.0 123.6 499.1 L123.65 499.1 Q130.75 496.6 140.85 496.6 150.9 496.6 158.05 499.1 L158.1 499.1" fill="#9d9da1" fill-opacity="0.05882353" fill-rule="evenodd" stroke="none"/>
    <path d="M157.7 499.75 Q168.6 503.4 167.6 509.5 168.6 515.45 157.75 519.2 150.75 521.65 140.85 521.65 130.9 521.65 123.9 519.2 113.1 515.45 114.1 509.5 113.1 503.4 123.95 499.75 L123.9 499.75 Q130.9 497.3 140.85 497.3 150.75 497.3 157.75 499.75 L157.7 499.75 M157.4 500.45 L157.45 500.45 Q150.6 498.05 140.85 498.05 131.1 498.05 124.25 500.45 L124.3 500.45 Q114.1 503.85 114.95 509.5 114.1 515.0 124.25 518.5 131.1 520.9 140.85 520.9 150.6 520.9 157.45 518.5 167.55 515.0 166.7 509.5 167.55 503.85 157.4 500.45" fill="#9d9da1" fill-opacity="0.12156863" fill-rule="evenodd" stroke="none"/>
    <path d="M157.4 500.45 Q167.55 503.85 166.7 509.5 167.55 515.0 157.45 518.5 150.6 520.9 140.85 520.9 131.1 520.9 124.25 518.5 114.1 515.0 114.95 509.5 114.1 503.85 124.3 500.45 L124.25 500.45 Q131.1 498.05 140.85 498.05 150.6 498.05 157.45 500.45 L157.4 500.45 M157.1 501.1 L157.1 501.15 Q150.4 498.8 140.85 498.8 131.3 498.8 124.55 501.15 L124.6 501.1 Q115.1 504.3 115.85 509.5 115.1 514.6 124.55 517.85 131.3 520.15 140.85 520.2 150.4 520.15 157.1 517.85 166.6 514.6 165.9 509.5 166.6 504.3 157.1 501.1" fill="#9d9da1" fill-opacity="0.18039216" fill-rule="evenodd" stroke="none"/>
    <path d="M157.1 501.1 Q166.6 504.3 165.9 509.5 166.6 514.6 157.1 517.85 150.4 520.15 140.85 520.2 131.3 520.15 124.55 517.85 115.1 514.6 115.85 509.5 115.1 504.3 124.6 501.1 L124.55 501.15 Q131.3 498.8 140.85 498.8 150.4 498.8 157.1 501.15 L157.1 501.1 M124.9 501.8 L124.95 501.8 Q116.15 504.75 116.7 509.5 116.15 514.15 124.9 517.2 131.5 519.45 140.85 519.45 150.15 519.45 156.8 517.2 165.55 514.15 165.0 509.5 165.55 504.75 156.8 501.8 150.15 499.5 140.85 499.5 131.5 499.5 124.9 501.8" fill="#9d9da1" fill-opacity="0.24313726" fill-rule="evenodd" stroke="none"/>
    <path d="M124.9 501.8 Q131.5 499.5 140.85 499.5 150.15 499.5 156.8 501.8 165.55 504.75 165.0 509.5 165.55 514.15 156.8 517.2 150.15 519.45 140.85 519.45 131.5 519.45 124.9 517.2 116.15 514.15 116.7 509.5 116.15 504.75 124.95 501.8 L124.9 501.8 M125.2 502.45 L125.25 502.45 Q117.15 505.2 117.55 509.5 117.1 513.7 125.2 516.5 131.7 518.75 140.85 518.75 150.0 518.75 156.45 516.5 164.6 513.7 164.15 509.5 164.55 505.2 156.45 502.45 150.0 500.2 140.85 500.25 131.7 500.2 125.2 502.45" fill="#9d9da1" fill-opacity="0.30588236" fill-rule="evenodd" stroke="none"/>
    <path d="M125.2 502.45 Q131.7 500.2 140.85 500.25 150.0 500.2 156.45 502.45 164.55 505.2 164.15 509.5 164.6 513.7 156.45 516.5 150.0 518.75 140.85 518.75 131.7 518.75 125.2 516.5 117.1 513.7 117.55 509.5 117.15 505.2 125.25 502.45 L125.2 502.45 M125.55 503.15 L125.6 503.15 Q118.15 505.6 118.4 509.5 118.15 513.3 125.55 515.85 131.9 518.0 140.85 518.0 149.8 518.0 156.15 515.85 163.55 513.3 163.25 509.5 163.55 505.6 156.15 503.15 149.8 500.95 140.85 500.95 131.9 500.95 125.55 503.15" fill="#9d9da1" fill-opacity="0.3647059" fill-rule="evenodd" stroke="none"/>
    <path d="M125.55 503.15 Q131.9 500.95 140.85 500.95 149.8 500.95 156.15 503.15 163.55 505.6 163.25 509.5 163.55 513.3 156.15 515.85 149.8 518.0 140.85 518.0 131.9 518.0 125.55 515.85 118.15 513.3 118.4 509.5 118.15 505.6 125.6 503.15 L125.55 503.15 M140.85 501.7 Q132.05 501.7 125.85 503.8 119.1 506.1 119.3 509.5 119.15 512.8 125.85 515.15 132.05 517.25 140.85 517.3 149.6 517.25 155.8 515.15 162.55 512.8 162.45 509.5 162.55 506.1 155.8 503.8 149.6 501.7 140.85 501.7" fill="#9d9da1" fill-opacity="0.42745098" fill-rule="evenodd" stroke="none"/>
    <path d="M140.85 501.7 Q149.6 501.7 155.8 503.8 162.55 506.1 162.45 509.5 162.55 512.8 155.8 515.15 149.6 517.25 140.85 517.3 132.05 517.25 125.85 515.15 119.15 512.8 119.3 509.5 119.1 506.1 125.85 503.8 132.05 501.7 140.85 501.7" fill="#9d9da1" fill-opacity="0.49019608" fill-rule="evenodd" stroke="none"/>
    <path d="M146.0 476.35 Q145.5 478.45 145.75 481.6 145.95 484.7 146.5 487.85 147.1 490.95 147.85 493.05 148.25 494.2 148.3 496.6 L148.2 501.95 147.5 507.7 146.25 512.45 Q145.5 514.4 144.45 514.75 L141.3 515.2 137.0 515.35 133.0 514.95 Q131.3 514.65 130.9 513.95 130.15 512.15 131.0 511.5 131.85 510.8 133.45 510.3 135.7 509.35 136.65 507.55 137.65 505.75 137.9 503.7 L138.3 500.05 Q138.6 497.0 137.95 494.4 L136.2 488.85 135.15 485.85 133.6 481.5 132.15 477.1 Q131.55 475.1 131.5 474.1 L146.0 476.35" fill="#fff7f3" fill-rule="evenodd" stroke="none"/>
    <path d="M131.5 474.1 Q131.55 475.1 132.15 477.1 L133.6 481.5 135.15 485.85 136.2 488.85 137.95 494.4 Q138.6 497.0 138.3 500.05 L137.9 503.7 Q137.65 505.75 136.65 507.55 135.7 509.35 133.45 510.3 131.85 510.8 131.0 511.5 130.15 512.15 130.9 513.95 131.3 514.65 133.0 514.95 L137.0 515.35 141.3 515.2 144.45 514.75 Q145.5 514.4 146.25 512.45 L147.5 507.7 148.2 501.95 148.3 496.6 Q148.25 494.2 147.85 493.05 147.1 490.95 146.5 487.85 145.95 484.7 145.75 481.6 145.5 478.45 146.0 476.35" fill="none" stroke="#7f5c40" stroke-linecap="round" stroke-linejoin="round" stroke-width="1.0"/>
    <path d="M143.05 491.0 L145.75 490.2 146.65 489.7 147.2 493.05 147.85 495.65 Q148.9 500.4 148.55 504.65 148.15 508.9 146.8 511.7 145.5 514.45 143.75 514.9 L140.7 515.15 136.45 515.05 132.55 514.5 Q130.9 514.15 130.55 513.5 129.9 511.85 130.75 511.3 131.6 510.75 133.15 510.35 135.4 509.6 136.4 508.05 137.4 506.5 137.75 504.7 L138.25 501.4 Q138.7 498.7 138.15 496.35 137.6 493.95 136.65 491.3 L143.05 491.0" fill="#000000" fill-rule="evenodd" stroke="none"/>
    <path d="M136.4 493.4 L137.8 493.65 141.0 493.95 144.65 493.5 Q146.4 493.0 147.3 491.5" fill="none" stroke="#a3a3a3" stroke-linecap="round" stroke-linejoin="round" stroke-width="1.5"/>
    <path d="M137.05 497.35 L138.45 497.65 141.7 497.95 145.35 497.5 Q147.1 496.95 148.0 495.5" fill="none" stroke="#a3a3a3" stroke-linecap="round" stroke-linejoin="round" stroke-width="1.0"/>
    <path d="M133.4 443.4 Q131.3 440.0 129.35 438.35 127.5 436.65 125.55 436.0 L121.6 435.25 117.4 434.75 Q115.2 434.3 112.65 433.05 110.05 431.7 107.05 428.9 105.4 427.25 104.6 424.7 103.75 422.15 103.7 419.65 103.6 417.2 104.15 415.75 104.55 414.6 105.35 414.3 L107.0 413.5 Q107.9 412.95 108.8 411.05 109.65 409.0 109.6 407.1 L109.45 403.0 Q109.35 400.8 109.95 398.0 110.55 395.25 112.65 391.45 116.0 385.6 121.1 380.8 126.25 376.05 133.05 373.05 L133.4 443.4" fill="#fff7f3" fill-rule="evenodd" stroke="none"/>
    <path d="M133.05 373.05 Q126.25 376.05 121.1 380.8 116.0 385.6 112.65 391.45 110.55 395.25 109.95 398.0 109.35 400.8 109.45 403.0 L109.6 407.1 Q109.65 409.0 108.8 411.05 107.9 412.95 107.0 413.5 L105.35 414.3 Q104.55 414.6 104.15 415.75 103.6 417.2 103.7 419.65 103.75 422.15 104.6 424.7 105.4 427.25 107.05 428.9 110.05 431.7 112.65 433.05 115.2 434.3 117.4 434.75 L121.6 435.25 125.55 436.0 Q127.5 436.65 129.35 438.35 131.3 440.0 133.4 443.4" fill="none" stroke="#7f5c40" stroke-linecap="round" stroke-linejoin="round" stroke-width="1.0"/>
  </g>
</svg>
