<?xml version="1.0" encoding="UTF-8" standalone="no"?>
<svg xmlns:xlink="http://www.w3.org/1999/xlink" height="68.25px" width="53.4px" xmlns="http://www.w3.org/2000/svg">
  <g transform="matrix(1.0, 0.0, 0.0, 1.0, -103.4, -420.7)">
    <path d="M103.9 421.2 Q104.2 422.05 105.05 422.35 L106.8 422.4 Q107.7 422.2 108.1 421.45" fill="none" stroke="#ff97c6" stroke-linecap="round" stroke-linejoin="round" stroke-width="1.0"/>
    <path d="M124.25 466.3 Q126.45 464.25 129.8 463.3 133.15 462.4 136.7 462.45 L142.75 463.1 Q145.5 463.75 146.8 465.15 148.2 466.6 148.75 468.45 L149.9 472.55 Q150.45 474.8 151.5 477.0 152.45 479.25 154.7 481.25 152.65 483.1 149.4 484.7 146.2 486.3 142.25 487.3 L134.55 488.45 Q130.75 488.6 127.6 487.5 124.5 486.45 122.7 483.95 124.55 481.8 125.45 479.65 126.25 477.4 126.4 474.9 L126.25 469.0 124.25 466.3" fill="#106189" fill-rule="evenodd" stroke="none"/>
    <path d="M126.25 469.0 L126.4 474.9 Q126.25 477.4 125.45 479.65 124.55 481.8 122.7 483.95 124.5 486.45 127.6 487.5 130.75 488.6 134.55 488.45 L142.25 487.3 Q146.2 486.3 149.4 484.7 152.65 483.1 154.7 481.25 152.45 479.25 151.5 477.0 150.45 474.8 149.9 472.55 L148.75 468.45 Q148.2 466.6 146.8 465.15 145.5 463.75 142.75 463.1 L136.7 462.45 Q133.15 462.4 129.8 463.3 126.45 464.25 124.25 466.3" fill="none" stroke="#6c91ad" stroke-linecap="round" stroke-linejoin="round" stroke-width="1.0"/>
    <path d="M136.1 478.1 Q138.95 480.5 141.4 481.1 L145.7 481.3 Q147.5 480.95 148.4 480.3 L149.45 479.6 151.1 479.35 Q150.6 480.95 149.3 481.65 148.0 482.45 146.1 482.6 144.3 482.8 142.2 482.6 140.55 482.45 138.65 481.7 136.8 480.9 135.3 479.8 133.85 478.65 133.45 477.4 L136.1 478.1" fill="#6c91ad" fill-rule="evenodd" stroke="none"/>
    <path d="M125.6 471.4 L132.05 470.8 139.6 470.0 Q143.45 469.7 146.9 469.95 150.4 470.25 152.9 471.55 155.35 472.85 156.3 475.65 153.45 476.95 149.5 477.5 L141.15 478.15 132.6 478.05 125.25 477.7 Q124.4 475.6 124.65 473.7 124.85 472.35 125.6 471.4" fill="#ffffff" fill-rule="evenodd" stroke="none"/>
    <path d="M125.6 471.4 L132.05 470.8 139.6 470.0 Q143.45 469.7 146.9 469.95 150.4 470.25 152.9 471.55 155.35 472.85 156.3 475.65 153.45 476.95 149.5 477.5 L141.15 478.15 132.6 478.05 125.25 477.7 Q124.4 475.6 124.65 473.7 124.85 472.35 125.6 471.4 L125.8 471.2 126.35 470.65" fill="none" stroke="#877a7e" stroke-linecap="round" stroke-linejoin="round" stroke-width="1.0"/>
  </g>
</svg>
