<?xml version="1.0" encoding="UTF-8" standalone="no"?>
<svg xmlns:xlink="http://www.w3.org/1999/xlink" height="26.85px" width="137.05px" xmlns="http://www.w3.org/2000/svg">
  <g transform="matrix(1.0, 0.0, 0.0, 1.0, -31.5, -495.55)">
    <path d="M79.3 498.7 L79.35 498.7 Q71.85 496.25 61.2 496.25 50.55 496.25 43.05 498.7 L43.1 498.7 Q31.45 502.35 32.55 508.45 31.45 514.4 43.05 518.15 50.55 520.6 61.2 520.6 71.85 520.6 79.35 518.15 90.95 514.4 89.9 508.45 90.95 502.35 79.3 498.7 M79.7 498.05 Q92.0 501.95 90.8 508.45 92.05 514.85 79.7 518.8 72.05 521.35 61.2 521.35 50.35 521.35 42.7 518.8 30.35 514.85 31.6 508.45 30.4 501.95 42.7 498.05 L42.75 498.05 Q50.4 495.55 61.2 495.55 72.0 495.55 79.65 498.05 L79.7 498.05" fill="#9d9da1" fill-opacity="0.05882353" fill-rule="evenodd" stroke="none"/>
    <path d="M79.3 498.7 Q90.95 502.35 89.9 508.45 90.95 514.4 79.35 518.15 71.85 520.6 61.2 520.6 50.55 520.6 43.05 518.15 31.45 514.4 32.55 508.45 31.45 502.35 43.1 498.7 L43.05 498.7 Q50.55 496.25 61.2 496.25 71.85 496.25 79.35 498.7 L79.3 498.7 M78.95 499.4 L79.0 499.4 Q71.65 497.0 61.2 497.0 50.75 497.0 43.4 499.4 L43.45 499.4 Q32.55 502.8 33.45 508.45 32.55 513.95 43.4 517.45 50.75 519.85 61.2 519.85 71.65 519.85 79.0 517.45 89.85 513.95 88.95 508.45 89.85 502.8 78.95 499.4" fill="#9d9da1" fill-opacity="0.12156863" fill-rule="evenodd" stroke="none"/>
    <path d="M78.95 499.4 Q89.85 502.8 88.95 508.45 89.85 513.95 79.0 517.45 71.65 519.85 61.2 519.85 50.75 519.85 43.4 517.45 32.55 513.95 33.45 508.45 32.55 502.8 43.45 499.4 L43.4 499.4 Q50.75 497.0 61.2 497.0 71.65 497.0 79.0 499.4 L78.95 499.4 M78.65 500.05 L78.65 500.1 Q71.45 497.75 61.2 497.75 50.95 497.75 43.75 500.1 L43.8 500.05 Q33.6 503.25 34.4 508.45 33.6 513.55 43.75 516.8 50.95 519.1 61.2 519.15 71.45 519.1 78.65 516.8 88.8 513.55 88.05 508.45 88.8 503.25 78.65 500.05" fill="#9d9da1" fill-opacity="0.18039216" fill-rule="evenodd" stroke="none"/>
    <path d="M78.65 500.05 Q88.8 503.25 88.05 508.45 88.8 513.55 78.65 516.8 71.45 519.1 61.2 519.15 50.95 519.1 43.75 516.8 33.6 513.55 34.4 508.45 33.6 503.25 43.8 500.05 L43.75 500.1 Q50.95 497.75 61.2 497.75 71.45 497.75 78.65 500.1 L78.65 500.05 M61.2 518.4 Q71.2 518.4 78.3 516.15 87.7 513.1 87.1 508.45 87.7 503.7 78.3 500.75 71.2 498.45 61.2 498.45 51.2 498.45 44.1 500.75 L44.15 500.75 Q34.7 503.7 35.3 508.45 34.7 513.1 44.1 516.15 51.2 518.4 61.2 518.4" fill="#9d9da1" fill-opacity="0.24313726" fill-rule="evenodd" stroke="none"/>
    <path d="M61.2 518.4 Q51.2 518.4 44.1 516.15 34.7 513.1 35.3 508.45 34.7 503.7 44.15 500.75 L44.1 500.75 Q51.2 498.45 61.2 498.45 71.2 498.45 78.3 500.75 87.7 503.7 87.1 508.45 87.7 513.1 78.3 516.15 71.2 518.4 61.2 518.4 M61.2 517.7 Q71.0 517.7 77.95 515.45 86.65 512.65 86.2 508.45 86.6 504.15 77.95 501.4 71.0 499.15 61.2 499.2 51.4 499.15 44.45 501.4 L44.5 501.4 Q35.8 504.15 36.25 508.45 35.75 512.65 44.45 515.45 51.4 517.7 61.2 517.7" fill="#9d9da1" fill-opacity="0.30588236" fill-rule="evenodd" stroke="none"/>
    <path d="M61.2 517.7 Q51.4 517.7 44.45 515.45 35.75 512.65 36.25 508.45 35.8 504.15 44.5 501.4 L44.45 501.4 Q51.4 499.15 61.2 499.2 71.0 499.15 77.95 501.4 86.6 504.15 86.2 508.45 86.65 512.65 77.95 515.45 71.0 517.7 61.2 517.7 M61.2 516.95 Q70.8 516.95 77.6 514.8 85.55 512.25 85.25 508.45 85.55 504.55 77.6 502.1 70.8 499.9 61.2 499.9 51.6 499.9 44.8 502.1 L44.85 502.1 Q36.85 504.55 37.15 508.45 36.85 512.25 44.8 514.8 51.6 516.95 61.2 516.95" fill="#9d9da1" fill-opacity="0.3647059" fill-rule="evenodd" stroke="none"/>
    <path d="M61.2 516.95 Q51.6 516.95 44.8 514.8 36.85 512.25 37.15 508.45 36.85 504.55 44.85 502.1 L44.8 502.1 Q51.6 499.9 61.2 499.9 70.8 499.9 77.6 502.1 85.55 504.55 85.25 508.45 85.55 512.25 77.6 514.8 70.8 516.95 61.2 516.95 M77.25 502.75 Q70.6 500.65 61.2 500.65 51.8 500.65 45.15 502.75 37.9 505.05 38.1 508.45 37.95 511.75 45.15 514.1 51.8 516.2 61.2 516.25 70.6 516.2 77.25 514.1 84.45 511.75 84.35 508.45 84.5 505.05 77.25 502.75" fill="#9d9da1" fill-opacity="0.42745098" fill-rule="evenodd" stroke="none"/>
    <path d="M77.25 502.75 Q84.5 505.05 84.35 508.45 84.45 511.75 77.25 514.1 70.6 516.2 61.2 516.25 51.8 516.2 45.15 514.1 37.95 511.75 38.1 508.45 37.9 505.05 45.15 502.75 51.8 500.65 61.2 500.65 70.6 500.65 77.25 502.75" fill="#9d9da1" fill-opacity="0.49019608" fill-rule="evenodd" stroke="none"/>
    <path d="M157.7 499.75 L157.75 499.75 Q150.75 497.3 140.85 497.3 130.9 497.3 123.9 499.75 L123.95 499.75 Q113.1 503.4 114.1 509.5 113.1 515.45 123.9 519.2 130.9 521.65 140.85 521.65 150.75 521.65 157.75 519.2 168.6 515.45 167.6 509.5 168.6 503.4 157.7 499.75 M158.1 499.1 Q169.55 503.0 168.45 509.5 169.6 515.9 158.1 519.85 150.95 522.4 140.85 522.4 130.7 522.4 123.6 519.85 112.05 515.9 113.25 509.5 112.1 503.0 123.6 499.1 L123.65 499.1 Q130.75 496.6 140.85 496.6 150.9 496.6 158.05 499.1 L158.1 499.1" fill="#9d9da1" fill-opacity="0.05882353" fill-rule="evenodd" stroke="none"/>
    <path d="M157.7 499.75 Q168.6 503.4 167.6 509.5 168.6 515.45 157.75 519.2 150.75 521.65 140.85 521.65 130.9 521.65 123.9 519.2 113.1 515.45 114.1 509.5 113.1 503.4 123.95 499.75 L123.9 499.75 Q130.9 497.3 140.85 497.3 150.75 497.3 157.75 499.75 L157.7 499.75 M157.4 500.45 L157.45 500.45 Q150.6 498.05 140.85 498.05 131.1 498.05 124.25 500.45 L124.3 500.45 Q114.1 503.85 114.95 509.5 114.1 515.0 124.25 518.5 131.1 520.9 140.85 520.9 150.6 520.9 157.45 518.5 167.55 515.0 166.7 509.5 167.55 503.85 157.4 500.45" fill="#9d9da1" fill-opacity="0.12156863" fill-rule="evenodd" stroke="none"/>
    <path d="M157.4 500.45 Q167.55 503.85 166.7 509.5 167.55 515.0 157.45 518.5 150.6 520.9 140.85 520.9 131.1 520.9 124.25 518.5 114.1 515.0 114.95 509.5 114.1 503.85 124.3 500.45 L124.25 500.45 Q131.1 498.05 140.85 498.05 150.6 498.05 157.45 500.45 L157.4 500.45 M157.1 501.1 L157.1 501.15 Q150.4 498.8 140.85 498.8 131.3 498.8 124.55 501.15 L124.6 501.1 Q115.1 504.3 115.85 509.5 115.1 514.6 124.55 517.85 131.3 520.15 140.85 520.2 150.4 520.15 157.1 517.85 166.6 514.6 165.9 509.5 166.6 504.3 157.1 501.1" fill="#9d9da1" fill-opacity="0.18039216" fill-rule="evenodd" stroke="none"/>
    <path d="M157.1 501.1 Q166.6 504.3 165.9 509.5 166.6 514.6 157.1 517.85 150.4 520.15 140.85 520.2 131.3 520.15 124.55 517.85 115.1 514.6 115.85 509.5 115.1 504.3 124.6 501.1 L124.55 501.15 Q131.3 498.8 140.85 498.8 150.4 498.8 157.1 501.15 L157.1 501.1 M124.9 501.8 L124.95 501.8 Q116.15 504.75 116.7 509.5 116.15 514.15 124.9 517.2 131.5 519.45 140.85 519.45 150.15 519.45 156.8 517.2 165.55 514.15 165.0 509.5 165.55 504.75 156.8 501.8 150.15 499.5 140.85 499.5 131.5 499.5 124.9 501.8" fill="#9d9da1" fill-opacity="0.24313726" fill-rule="evenodd" stroke="none"/>
    <path d="M124.9 501.8 Q131.5 499.5 140.85 499.5 150.15 499.5 156.8 501.8 165.55 504.75 165.0 509.5 165.55 514.15 156.8 517.2 150.15 519.45 140.85 519.45 131.5 519.45 124.9 517.2 116.15 514.15 116.7 509.5 116.15 504.75 124.95 501.8 L124.9 501.8 M125.2 502.45 L125.25 502.45 Q117.15 505.2 117.55 509.5 117.1 513.7 125.2 516.5 131.7 518.75 140.85 518.75 150.0 518.75 156.45 516.5 164.6 513.7 164.15 509.5 164.55 505.2 156.45 502.45 150.0 500.2 140.85 500.25 131.7 500.2 125.2 502.45" fill="#9d9da1" fill-opacity="0.30588236" fill-rule="evenodd" stroke="none"/>
    <path d="M125.2 502.45 Q131.7 500.2 140.85 500.25 150.0 500.2 156.45 502.45 164.55 505.2 164.15 509.5 164.6 513.7 156.45 516.5 150.0 518.75 140.85 518.75 131.7 518.75 125.2 516.5 117.1 513.7 117.55 509.5 117.15 505.2 125.25 502.45 L125.2 502.45 M125.55 503.15 L125.6 503.15 Q118.15 505.6 118.4 509.5 118.15 513.3 125.55 515.85 131.9 518.0 140.85 518.0 149.8 518.0 156.15 515.85 163.55 513.3 163.25 509.5 163.55 505.6 156.15 503.15 149.8 500.95 140.85 500.95 131.9 500.95 125.55 503.15" fill="#9d9da1" fill-opacity="0.3647059" fill-rule="evenodd" stroke="none"/>
    <path d="M125.55 503.15 Q131.9 500.95 140.85 500.95 149.8 500.95 156.15 503.15 163.55 505.6 163.25 509.5 163.55 513.3 156.15 515.85 149.8 518.0 140.85 518.0 131.9 518.0 125.55 515.85 118.15 513.3 118.4 509.5 118.15 505.6 125.6 503.15 L125.55 503.15 M140.85 501.7 Q132.05 501.7 125.85 503.8 119.1 506.1 119.3 509.5 119.15 512.8 125.85 515.15 132.05 517.25 140.85 517.3 149.6 517.25 155.8 515.15 162.55 512.8 162.45 509.5 162.55 506.1 155.8 503.8 149.6 501.7 140.85 501.7" fill="#9d9da1" fill-opacity="0.42745098" fill-rule="evenodd" stroke="none"/>
    <path d="M140.85 501.7 Q149.6 501.7 155.8 503.8 162.55 506.1 162.45 509.5 162.55 512.8 155.8 515.15 149.6 517.25 140.85 517.3 132.05 517.25 125.85 515.15 119.15 512.8 119.3 509.5 119.1 506.1 125.85 503.8 132.05 501.7 140.85 501.7" fill="#9d9da1" fill-opacity="0.49019608" fill-rule="evenodd" stroke="none"/>
  </g>
</svg>
