<?xml version="1.0" encoding="UTF-8" standalone="no"?>
<svg xmlns:xlink="http://www.w3.org/1999/xlink" height="10.05px" width="3.6px" xmlns="http://www.w3.org/2000/svg">
  <g transform="matrix(1.0, 0.0, 0.0, 1.0, 0.5, 0.5)">
    <path d="M1.45 0.0 L2.6 9.05 Q1.25 8.55 0.65 7.65 0.0 6.75 0.1 5.85 0.2 4.95 0.95 4.35 0.5 3.8 0.2 2.75 -0.15 1.7 0.1 0.8 0.3 -0.05 1.45 0.0" fill="#fff7f3" fill-rule="evenodd" stroke="none"/>
    <path d="M1.45 0.0 Q0.3 -0.05 0.1 0.8 -0.15 1.7 0.2 2.75 0.5 3.8 0.95 4.35 0.2 4.95 0.1 5.85 0.0 6.75 0.65 7.65 1.25 8.55 2.6 9.05" fill="none" stroke="#7f5c40" stroke-linecap="round" stroke-linejoin="round" stroke-width="1.0"/>
  </g>
</svg>
