<?xml version="1.0" encoding="UTF-8" standalone="no"?>
<svg xmlns:xlink="http://www.w3.org/1999/xlink" height="9.3px" width="32.7px" xmlns="http://www.w3.org/2000/svg">
  <g transform="matrix(1.0, 0.0, 0.0, 1.0, -125.85, -472.05)">
    <path d="M127.35 474.1 L133.8 473.5 141.35 472.7 Q145.2 472.4 148.65 472.65 152.15 472.95 154.65 474.25 157.1 475.55 158.05 478.35 155.2 479.65 151.25 480.2 L142.9 480.85 134.35 480.75 127.0 480.4 Q126.15 478.3 126.4 476.4 126.6 475.05 127.35 474.1" fill="#ffffff" fill-rule="evenodd" stroke="none"/>
    <path d="M127.35 474.1 L133.8 473.5 141.35 472.7 Q145.2 472.4 148.65 472.65 152.15 472.95 154.65 474.25 157.1 475.55 158.05 478.35 155.2 479.65 151.25 480.2 L142.9 480.85 134.35 480.75 127.0 480.4 Q126.15 478.3 126.4 476.4 126.6 475.05 127.35 474.1 L127.55 473.9 128.1 473.35" fill="none" stroke="#877a7e" stroke-linecap="round" stroke-linejoin="round" stroke-width="1.0"/>
  </g>
</svg>
