<?xml version="1.0" encoding="UTF-8" standalone="no"?>
<svg xmlns:xlink="http://www.w3.org/1999/xlink" height="100.35px" width="102.4px" xmlns="http://www.w3.org/2000/svg">
  <g transform="matrix(1.0, 0.0, 0.0, 1.0, 51.2, 50.2)">
    <path d="M23.55 -43.6 Q32.4 -43.6 38.45 -37.55 44.5 -31.4 44.6 -21.8 44.6 -18.05 44.0 -15.65 L44.0 -15.7 Q42.75 -9.3 31.15 2.65 18.65 15.65 11.05 24.05 2.55 33.35 1.25 42.85 L1.0 43.35 Q0.75 43.55 0.45 43.55 L-0.1 43.35 -0.4 42.85 Q-2.05 32.15 -7.15 25.95 -12.45 19.55 -25.95 6.7 -39.6 -6.45 -42.8 -14.65 L-42.8 -14.7 Q-44.65 -20.4 -44.6 -23.25 -44.7 -31.9 -38.05 -37.45 -31.55 -43.05 -22.85 -43.05 -16.2 -43.15 -10.6 -39.5 -5.1 -36.0 -1.7 -29.05 L-1.55 -28.85 -0.6 -27.2 0.15 -28.7 0.35 -28.95 Q9.9 -43.4 23.5 -43.6 L23.55 -43.6" fill="#ff4444" fill-rule="evenodd" stroke="none"/>
    <path d="M23.55 -47.7 L23.45 -47.7 Q9.7 -47.7 -0.35 -34.95 -3.7 -40.0 -8.35 -42.95 L-8.35 -43.0 Q-15.0 -47.25 -22.85 -47.15 L-22.9 -47.15 Q-33.05 -47.15 -40.7 -40.6 L-40.75 -40.55 Q-48.8 -33.8 -48.75 -23.25 L-48.75 -23.2 Q-48.8 -19.95 -46.75 -13.45 L-46.6 -13.15 Q-43.35 -4.3 -28.8 9.65 -15.55 22.3 -10.3 28.55 L-10.35 28.55 Q-5.95 34.1 -4.45 43.5 -4.2 45.3 -2.75 46.5 -1.35 47.7 0.5 47.7 2.3 47.65 3.7 46.45 5.1 45.2 5.35 43.4 6.55 35.05 14.1 26.8 21.7 18.45 34.1 5.55 L34.1 5.5 Q46.95 -7.65 48.05 -14.9 48.75 -17.65 48.75 -21.8 L48.75 -21.85 Q48.65 -33.2 41.4 -40.45 L41.35 -40.45 Q34.15 -47.7 23.55 -47.7 M-0.85 -33.0 L-0.75 -33.1 -0.6 -33.05 -0.85 -33.0 M0.25 -37.0 Q10.15 -48.55 23.45 -48.55 L23.55 -48.55 Q34.5 -48.5 41.95 -41.05 L41.95 -41.0 Q49.45 -33.55 49.55 -21.85 L49.55 -21.8 Q49.55 -17.55 48.85 -14.75 47.75 -7.35 34.65 6.1 L34.7 6.1 14.7 27.35 14.7 27.4 Q7.4 35.4 6.15 43.5 5.85 45.65 4.25 47.05 2.65 48.5 0.5 48.5 -1.65 48.5 -3.3 47.15 -4.95 45.75 -5.25 43.65 -6.7 34.5 -10.95 29.1 L-11.0 29.1 Q-16.2 22.85 -29.35 10.25 -44.1 -3.9 -47.4 -12.85 L-47.5 -13.2 Q-49.65 -19.85 -49.55 -23.2 L-49.55 -23.25 Q-49.65 -34.2 -41.3 -41.2 L-41.25 -41.25 Q-33.4 -47.95 -22.9 -48.0 L-22.85 -48.0 Q-14.75 -48.05 -7.9 -43.65 -3.9 -41.1 -0.8 -37.05 L-0.3 -36.35 0.25 -37.0" fill="#ff4444" fill-opacity="0.32941177" fill-rule="evenodd" stroke="none"/>
    <path d="M0.0 -32.75 Q9.85 -46.0 23.5 -46.05 L23.55 -46.05 Q33.45 -46.05 40.2 -39.3 47.0 -32.5 47.1 -21.8 47.1 -17.65 46.4 -15.0 L46.4 -15.2 Q45.25 -8.3 32.9 4.4 L32.9 4.35 Q20.45 17.35 12.9 25.7 4.95 34.4 3.7 43.2 3.55 44.4 2.6 45.2 1.7 46.0 0.45 46.05 -0.75 46.05 -1.7 45.25 -2.65 44.45 -2.8 43.25 -4.4 33.3 -9.05 27.5 -14.3 21.2 -27.65 8.45 -41.85 -5.15 -45.1 -13.75 L-45.15 -13.95 Q-47.15 -20.15 -47.1 -23.25 -47.2 -33.05 -39.7 -39.3 L-39.65 -39.35 Q-32.45 -45.5 -22.85 -45.5 -15.5 -45.6 -9.25 -41.6 -4.35 -38.45 -0.95 -32.8 L-0.6 -32.2 -0.5 -32.05 -0.95 -31.45 -0.6 -31.25 -0.5 -31.35 -0.2 -31.45 -0.5 -32.05 -0.35 -32.3 0.0 -32.75 M23.55 -45.25 L23.5 -45.25 Q9.35 -45.1 -0.6 -30.5 -4.15 -37.35 -9.7 -40.9 -15.7 -44.75 -22.85 -44.7 -32.15 -44.7 -39.15 -38.7 -46.35 -32.65 -46.25 -23.25 -46.3 -20.2 -44.35 -14.2 L-44.3 -14.05 Q-41.1 -5.6 -27.1 7.85 L-27.05 7.9 Q-13.65 20.65 -8.4 27.0 L-8.45 27.0 Q-3.6 32.95 -2.0 43.1 -1.9 44.0 -1.15 44.6 -0.45 45.2 0.45 45.2 1.4 45.2 2.1 44.6 2.75 43.95 2.9 43.05 4.15 34.05 12.25 25.15 19.85 16.8 32.3 3.8 44.3 -8.5 45.6 -15.25 46.25 -17.8 46.25 -21.8 46.15 -32.15 39.6 -38.7 33.1 -45.2 23.55 -45.25" fill="#ff4444" fill-opacity="0.6627451" fill-rule="evenodd" stroke="none"/>
    <path d="M23.55 -50.2 Q35.2 -50.15 43.1 -42.2 L43.15 -42.2 Q51.1 -34.25 51.2 -21.85 L51.2 -21.8 Q51.2 -17.25 50.45 -14.25 49.3 -6.55 35.9 7.25 L35.85 7.25 Q23.5 20.15 15.95 28.5 9.0 36.1 7.8 43.75 7.4 46.45 5.35 48.3 3.25 50.1 0.5 50.15 -2.25 50.15 -4.35 48.4 -6.5 46.6 -6.9 43.9 -8.25 35.2 -12.25 30.1 L-12.25 30.15 Q-17.4 24.0 -30.5 11.45 -45.6 -3.05 -48.95 -12.25 L-49.1 -12.7 Q-51.3 -19.65 -51.2 -23.2 L-51.2 -23.25 Q-51.3 -34.95 -42.3 -42.5 L-42.35 -42.45 Q-34.0 -49.6 -22.9 -49.65 L-22.85 -49.65 Q-14.25 -49.75 -7.0 -45.05 -3.2 -42.65 -0.25 -39.0 9.9 -50.25 23.4 -50.2 L23.55 -50.2 M-0.8 -38.35 Q-3.7 -42.0 -7.45 -44.35 -14.5 -48.9 -22.85 -48.8 L-22.9 -48.8 Q-33.7 -48.8 -41.85 -41.85 L-41.8 -41.85 Q-50.5 -34.6 -50.4 -23.25 L-50.4 -23.2 Q-50.5 -19.75 -48.3 -12.95 L-48.15 -12.55 Q-44.85 -3.45 -29.95 10.85 L-29.9 10.85 Q-16.8 23.4 -11.6 29.6 L-11.6 29.65 Q-7.5 34.85 -6.1 43.75 -5.7 46.15 -3.8 47.75 -1.95 49.35 0.5 49.35 2.95 49.3 4.8 47.7 6.65 46.05 7.0 43.6 8.2 35.75 15.3 27.95 22.9 19.6 35.25 6.7 L35.3 6.7 35.3 6.65 Q48.6 -7.0 49.65 -14.55 50.4 -17.45 50.4 -21.8 L50.4 -21.85 Q50.3 -33.9 42.55 -41.6 34.85 -49.3 23.55 -49.35 L23.4 -49.35 Q10.2 -49.4 0.3 -38.3 L-0.25 -39.0 -0.8 -38.35" fill="#ff4444" fill-opacity="0.105882354" fill-rule="evenodd" stroke="none"/>
    <path d="M-0.95 -32.8 Q-4.35 -38.45 -9.25 -41.6 -15.5 -45.6 -22.85 -45.5 -32.45 -45.5 -39.65 -39.35 L-39.7 -39.3 Q-47.2 -33.05 -47.1 -23.25 -47.15 -20.15 -45.15 -13.95 L-45.1 -13.75 Q-41.85 -5.15 -27.65 8.45 -14.3 21.2 -9.05 27.5 -4.4 33.3 -2.8 43.25 -2.65 44.45 -1.7 45.25 -0.75 46.05 0.45 46.05 1.7 46.0 2.6 45.2 3.55 44.4 3.7 43.2 4.95 34.4 12.9 25.7 20.45 17.35 32.9 4.35 L32.9 4.4 Q45.25 -8.3 46.4 -15.2 L46.4 -15.0 Q47.1 -17.65 47.1 -21.8 47.0 -32.5 40.2 -39.3 33.45 -46.05 23.55 -46.05 L23.5 -46.05 Q9.85 -46.0 0.0 -32.75 L-0.45 -33.55 Q9.6 -46.85 23.45 -46.9 L23.55 -46.9 Q33.8 -46.85 40.8 -39.9 L40.8 -39.85 Q47.8 -32.85 47.9 -21.8 47.9 -17.6 47.2 -14.9 45.95 -7.85 33.5 4.95 21.05 17.9 13.5 26.25 5.75 34.7 4.55 43.3 4.3 44.8 3.15 45.8 2.0 46.85 0.5 46.85 -1.05 46.85 -2.2 45.9 -3.4 44.85 -3.65 43.35 -5.15 33.7 -9.7 28.05 -14.9 21.75 -28.2 9.05 -42.6 -4.75 -45.85 -13.45 L-45.95 -13.7 Q-48.0 -20.05 -47.9 -23.25 -48.0 -33.4 -40.2 -39.95 -32.75 -46.3 -22.9 -46.35 L-22.85 -46.35 Q-15.25 -46.45 -8.8 -42.3 L-8.8 -42.25 Q-3.85 -39.1 -0.45 -33.55 L-0.75 -33.1 -0.85 -33.0 -0.95 -32.8 M-0.35 -32.3 L-0.5 -32.05 -0.2 -31.45 -0.5 -31.35 -0.6 -31.25 -0.95 -31.45 -0.5 -32.05 -0.6 -32.2 -0.35 -32.3" fill="#ff4444" fill-opacity="0.5529412" fill-rule="evenodd" stroke="none"/>
    <path d="M39.05 -38.1 L39.05 -38.15 Q32.75 -44.4 23.55 -44.4 L23.5 -44.4 Q9.55 -44.25 -0.2 -29.6 L-0.6 -29.1 -0.65 -28.95 -0.85 -29.25 -1.0 -29.5 Q-4.5 -36.6 -10.15 -40.2 -15.95 -43.95 -22.85 -43.85 -31.85 -43.85 -38.6 -38.1 L-38.6 -38.05 Q-45.5 -32.25 -45.45 -23.25 -45.45 -20.3 -43.6 -14.45 L-43.55 -14.35 Q-40.35 -6.0 -26.5 7.3 -13.05 20.1 -7.8 26.45 -2.85 32.55 -1.2 43.0 L-0.65 44.0 Q-0.15 44.4 0.45 44.4 L1.55 43.95 Q2.0 43.55 2.05 42.95 3.35 33.7 11.65 24.6 19.25 16.2 31.75 3.25 L31.7 3.25 Q43.5 -8.9 44.8 -15.45 L44.8 -15.55 Q45.45 -18.0 45.45 -21.8 45.35 -31.75 39.05 -38.1 M23.55 -45.25 Q33.1 -45.2 39.6 -38.7 46.15 -32.15 46.25 -21.8 46.25 -17.8 45.6 -15.25 44.3 -8.5 32.3 3.8 19.85 16.8 12.25 25.15 4.15 34.05 2.9 43.05 2.75 43.95 2.1 44.6 1.4 45.2 0.45 45.2 -0.45 45.2 -1.15 44.6 -1.9 44.0 -2.0 43.1 -3.6 32.95 -8.45 27.0 L-8.4 27.0 Q-13.65 20.65 -27.05 7.9 L-27.1 7.85 Q-41.1 -5.6 -44.3 -14.05 L-44.35 -14.2 Q-46.3 -20.2 -46.25 -23.25 -46.35 -32.65 -39.15 -38.7 -32.15 -44.7 -22.85 -44.7 -15.7 -44.75 -9.7 -40.9 -4.15 -37.35 -0.6 -30.5 9.35 -45.1 23.5 -45.25 L23.55 -45.25" fill="#ff4444" fill-opacity="0.7764706" fill-rule="evenodd" stroke="none"/>
    <path d="M39.05 -38.1 Q45.35 -31.75 45.45 -21.8 45.45 -18.0 44.8 -15.55 L44.8 -15.45 Q43.5 -8.9 31.7 3.25 L31.75 3.25 Q19.25 16.2 11.65 24.6 3.35 33.7 2.05 42.95 2.0 43.55 1.55 43.95 L0.45 44.4 Q-0.15 44.4 -0.65 44.0 L-1.2 43.0 Q-2.85 32.55 -7.8 26.45 -13.05 20.1 -26.5 7.3 -40.35 -6.0 -43.55 -14.35 L-43.6 -14.45 Q-45.45 -20.3 -45.45 -23.25 -45.5 -32.25 -38.6 -38.05 L-38.6 -38.1 Q-31.85 -43.85 -22.85 -43.85 -15.95 -43.95 -10.15 -40.2 -4.5 -36.6 -1.0 -29.5 L-0.85 -29.25 -0.65 -28.95 -0.6 -29.1 -0.2 -29.6 Q9.55 -44.25 23.5 -44.4 L23.55 -44.4 Q32.75 -44.4 39.05 -38.15 L39.05 -38.1 M23.55 -43.6 L23.5 -43.6 Q9.9 -43.4 0.35 -28.95 L0.15 -28.7 -0.6 -27.2 -1.55 -28.85 -1.7 -29.05 Q-5.1 -36.0 -10.6 -39.5 -16.2 -43.15 -22.85 -43.05 -31.55 -43.05 -38.05 -37.45 -44.7 -31.9 -44.6 -23.25 -44.65 -20.4 -42.8 -14.7 L-42.8 -14.65 Q-39.6 -6.45 -25.95 6.7 -12.45 19.55 -7.15 25.95 -2.05 32.15 -0.4 42.85 L-0.1 43.35 0.45 43.55 Q0.75 43.55 1.0 43.35 L1.25 42.85 Q2.55 33.35 11.05 24.05 18.65 15.65 31.15 2.65 42.75 -9.3 44.0 -15.7 L44.0 -15.65 Q44.6 -18.05 44.6 -21.8 44.5 -31.4 38.45 -37.55 32.4 -43.6 23.55 -43.6" fill="#ff4444" fill-opacity="0.8862745" fill-rule="evenodd" stroke="none"/>
    <path d="M-0.8 -37.05 Q-3.9 -41.1 -7.9 -43.65 -14.75 -48.05 -22.85 -48.0 L-22.9 -48.0 Q-33.4 -47.95 -41.25 -41.25 L-41.3 -41.2 Q-49.65 -34.2 -49.55 -23.25 L-49.55 -23.2 Q-49.65 -19.85 -47.5 -13.2 L-47.4 -12.85 Q-44.1 -3.9 -29.35 10.25 -16.2 22.85 -11.0 29.1 L-10.95 29.1 Q-6.7 34.5 -5.25 43.65 -4.95 45.75 -3.3 47.15 -1.65 48.5 0.5 48.5 2.65 48.5 4.25 47.05 5.85 45.65 6.15 43.5 7.4 35.4 14.7 27.4 L14.7 27.35 34.7 6.1 34.65 6.1 Q47.75 -7.35 48.85 -14.75 49.55 -17.55 49.55 -21.8 L49.55 -21.85 Q49.45 -33.55 41.95 -41.0 L41.95 -41.05 Q34.5 -48.5 23.55 -48.55 L23.45 -48.55 Q10.15 -48.55 0.25 -37.0 L-0.25 -37.7 0.3 -38.3 Q10.2 -49.4 23.4 -49.35 L23.55 -49.35 Q34.85 -49.3 42.55 -41.6 50.3 -33.9 50.4 -21.85 L50.4 -21.8 Q50.4 -17.45 49.65 -14.55 48.6 -7.0 35.3 6.65 L35.3 6.7 35.25 6.7 Q22.9 19.6 15.3 27.95 8.2 35.75 7.0 43.6 6.65 46.05 4.8 47.7 2.95 49.3 0.5 49.35 -1.95 49.35 -3.8 47.75 -5.7 46.15 -6.1 43.75 -7.5 34.85 -11.6 29.65 L-11.6 29.6 Q-16.8 23.4 -29.9 10.85 L-29.95 10.85 Q-44.85 -3.45 -48.15 -12.55 L-48.3 -12.95 Q-50.5 -19.75 -50.4 -23.2 L-50.4 -23.25 Q-50.5 -34.6 -41.8 -41.85 L-41.85 -41.85 Q-33.7 -48.8 -22.9 -48.8 L-22.85 -48.8 Q-14.5 -48.9 -7.45 -44.35 -3.7 -42.0 -0.8 -38.35 L-0.25 -37.7 -0.8 -37.05" fill="#ff4444" fill-opacity="0.21568628" fill-rule="evenodd" stroke="none"/>
    <path d="M23.55 -47.7 Q34.15 -47.7 41.35 -40.45 L41.4 -40.45 Q48.65 -33.2 48.75 -21.85 L48.75 -21.8 Q48.75 -17.65 48.05 -14.9 46.95 -7.65 34.1 5.5 L34.1 5.55 Q21.7 18.45 14.1 26.8 6.55 35.05 5.35 43.4 5.1 45.2 3.7 46.45 2.3 47.65 0.5 47.7 -1.35 47.7 -2.75 46.5 -4.2 45.3 -4.45 43.5 -5.95 34.1 -10.35 28.55 L-10.3 28.55 Q-15.55 22.3 -28.8 9.65 -43.35 -4.3 -46.6 -13.15 L-46.75 -13.45 Q-48.8 -19.95 -48.75 -23.2 L-48.75 -23.25 Q-48.8 -33.8 -40.75 -40.55 L-40.7 -40.6 Q-33.05 -47.15 -22.9 -47.15 L-22.85 -47.15 Q-15.0 -47.25 -8.35 -43.0 L-8.35 -42.95 Q-3.7 -40.0 -0.35 -34.95 9.7 -47.7 23.45 -47.7 L23.55 -47.7 M-0.95 -32.8 L-0.85 -33.0 -0.6 -33.05 -0.75 -33.1 -0.45 -33.55 Q-3.85 -39.1 -8.8 -42.25 L-8.8 -42.3 Q-15.25 -46.45 -22.85 -46.35 L-22.9 -46.35 Q-32.75 -46.3 -40.2 -39.95 -48.0 -33.4 -47.9 -23.25 -48.0 -20.05 -45.95 -13.7 L-45.85 -13.45 Q-42.6 -4.75 -28.2 9.05 -14.9 21.75 -9.7 28.05 -5.15 33.7 -3.65 43.35 -3.4 44.85 -2.2 45.9 -1.05 46.85 0.5 46.85 2.0 46.85 3.15 45.8 4.3 44.8 4.55 43.3 5.75 34.7 13.5 26.25 21.05 17.9 33.5 4.95 45.95 -7.85 47.2 -14.9 47.9 -17.6 47.9 -21.8 47.8 -32.85 40.8 -39.85 L40.8 -39.9 Q33.8 -46.85 23.55 -46.9 L23.45 -46.9 Q9.6 -46.85 -0.45 -33.55 L0.0 -32.75 -0.35 -32.3 -0.6 -32.2 -0.95 -32.8" fill="#ff4444" fill-opacity="0.4392157" fill-rule="evenodd" stroke="none"/>
  </g>
</svg>
