<?xml version="1.0" encoding="UTF-8" standalone="no"?>
<svg xmlns:xlink="http://www.w3.org/1999/xlink" height="139.15px" width="57.4px" xmlns="http://www.w3.org/2000/svg">
  <g transform="matrix(1.0, 0.0, 0.0, 1.0, -100.4, -376.75)">
    <path d="M147.2 476.75 Q146.6 478.85 146.75 482.0 146.85 485.1 147.3 488.25 147.8 491.4 148.5 493.5 148.85 494.65 148.85 497.05 L148.55 502.4 Q148.3 505.35 147.7 508.15 147.1 510.95 146.3 512.85 145.5 514.8 144.4 515.1 L141.25 515.4 136.95 515.4 132.95 514.95 Q131.25 514.6 130.9 513.9 130.2 512.05 131.05 511.45 131.95 510.75 133.55 510.3 135.85 509.45 136.85 507.65 137.9 505.9 138.2 503.85 L138.75 500.2 Q139.15 497.15 138.55 494.55 L137.0 488.95 136.05 485.9 134.6 481.5 133.3 477.05 Q132.75 475.05 132.75 474.05 L147.2 476.75" fill="#fff7f3" fill-rule="evenodd" stroke="none"/>
    <path d="M132.75 474.05 Q132.75 475.05 133.3 477.05 L134.6 481.5 136.05 485.9 137.0 488.95 138.55 494.55 Q139.15 497.15 138.75 500.2 L138.2 503.85 Q137.9 505.9 136.85 507.65 135.85 509.45 133.55 510.3 131.95 510.75 131.05 511.45 130.2 512.05 130.9 513.9 131.25 514.6 132.95 514.95 L136.95 515.4 141.25 515.4 144.4 515.1 Q145.5 514.8 146.3 512.85 147.1 510.95 147.7 508.15 148.3 505.35 148.55 502.4 L148.85 497.05 Q148.85 494.65 148.5 493.5 147.8 491.4 147.3 488.25 146.85 485.1 146.75 482.0 146.6 478.85 147.2 476.75" fill="none" stroke="#7f5c40" stroke-linecap="round" stroke-linejoin="round" stroke-width="1.0"/>
    <path d="M143.8 491.3 L146.55 490.6 147.45 490.1 147.9 493.5 148.45 496.1 Q149.35 500.9 148.9 505.15 148.35 509.35 146.9 512.1 145.5 514.85 143.75 515.25 L140.7 515.4 136.45 515.15 132.55 514.45 Q130.95 514.05 130.6 513.4 130.0 511.75 130.85 511.2 131.75 510.7 133.3 510.35 135.55 509.65 136.6 508.15 137.65 506.65 138.1 504.85 L138.7 501.55 Q139.2 498.85 138.75 496.5 L137.4 491.4 Q141.75 491.6 143.8 491.3" fill="#000000" fill-rule="evenodd" stroke="none"/>
    <path d="M137.1 493.5 L138.45 493.8 141.65 494.2 145.35 493.85 Q147.1 493.4 148.05 491.95" fill="none" stroke="#a3a3a3" stroke-linecap="round" stroke-linejoin="round" stroke-width="1.5"/>
    <path d="M137.6 497.45 L138.95 497.8 142.2 498.2 145.9 497.85 Q147.65 497.35 148.6 495.95" fill="none" stroke="#a3a3a3" stroke-linecap="round" stroke-linejoin="round" stroke-width="1.0"/>
    <path d="M125.55 470.4 Q127.55 468.1 130.8 466.85 134.05 465.65 137.55 465.35 141.0 465.05 143.65 465.4 146.45 465.8 147.9 467.05 149.4 468.35 150.2 470.2 L151.7 474.15 Q152.45 476.3 153.7 478.4 154.9 480.55 157.3 482.35 155.45 484.35 152.4 486.25 149.3 488.15 145.5 489.55 141.75 490.95 137.95 491.45 L130.95 491.2 Q127.75 490.45 125.7 488.1 127.35 485.8 128.0 483.55 128.6 481.25 128.5 478.7 128.35 476.1 127.8 472.9 L125.55 470.4" fill="#106189" fill-rule="evenodd" stroke="none"/>
    <path d="M127.8 472.9 Q128.35 476.1 128.5 478.7 128.6 481.25 128.0 483.55 127.35 485.8 125.7 488.1 127.75 490.45 130.95 491.2 L137.95 491.45 Q141.75 490.95 145.5 489.55 149.3 488.15 152.4 486.25 155.45 484.35 157.3 482.35 154.9 480.55 153.7 478.4 152.45 476.3 151.7 474.15 L150.2 470.2 Q149.4 468.35 147.9 467.05 146.45 465.8 143.65 465.4 141.0 465.05 137.55 465.35 134.05 465.65 130.8 466.85 127.55 468.1 125.55 470.4" fill="none" stroke="#6c91ad" stroke-linecap="round" stroke-linejoin="round" stroke-width="1.0"/>
    <path d="M135.8 480.6 L138.5 481.05 Q141.6 483.15 144.1 483.5 L148.35 483.3 151.0 482.05 151.95 481.25 153.55 480.85 Q153.25 482.45 152.0 483.3 150.75 484.2 148.9 484.55 L145.0 484.9 141.4 484.35 Q139.45 483.75 137.85 482.8 136.3 481.8 135.8 480.6" fill="#6c91ad" fill-rule="evenodd" stroke="none"/>
    <path d="M128.4 447.4 Q126.65 443.8 124.85 442.0 123.1 440.15 121.25 439.35 L117.4 438.25 113.3 437.3 Q111.1 436.65 108.65 435.2 106.25 433.65 103.45 430.6 101.95 428.8 101.35 426.25 100.8 423.6 100.95 421.1 101.05 418.65 101.7 417.2 102.25 416.15 103.05 415.9 103.95 415.6 104.8 415.25 105.75 414.8 106.8 413.0 107.85 411.0 107.95 409.1 L108.2 405.0 Q108.3 402.8 109.1 400.1 110.0 397.35 112.45 393.8 116.3 388.25 121.85 383.95 127.35 379.65 134.4 377.25 L128.4 447.4" fill="#fff7f3" fill-rule="evenodd" stroke="none"/>
    <path d="M134.4 377.25 Q127.35 379.65 121.85 383.95 116.3 388.25 112.45 393.8 110.0 397.35 109.1 400.1 108.3 402.8 108.2 405.0 L107.95 409.1 Q107.85 411.0 106.8 413.0 105.75 414.8 104.8 415.25 103.95 415.6 103.05 415.9 102.25 416.15 101.7 417.2 101.05 418.65 100.95 421.1 100.8 423.6 101.35 426.25 101.95 428.8 103.45 430.6 106.25 433.65 108.65 435.2 111.1 436.65 113.3 437.3 L117.4 438.25 121.25 439.35 Q123.1 440.15 124.85 442.0 126.65 443.8 128.4 447.4" fill="none" stroke="#7f5c40" stroke-linecap="round" stroke-linejoin="round" stroke-width="1.0"/>
    <path d="M114.05 416.65 Q112.3 417.45 110.95 417.75 109.6 418.0 108.0 417.0 L110.15 416.55 112.25 416.05 111.2 415.85 111.4 416.05 Q109.65 415.75 108.0 414.95 L109.8 415.55 111.2 415.85 Q110.6 415.45 109.9 415.2 110.55 414.6 110.9 414.75 L111.4 415.05 110.9 413.7 Q112.0 415.3 113.3 415.75 L116.4 416.4 M111.4 415.05 L111.45 415.15 111.45 415.2 111.4 415.05" fill="none" stroke="#000000" stroke-linecap="round" stroke-linejoin="round" stroke-width="1.0"/>
  </g>
</svg>
