<?xml version="1.0" encoding="UTF-8" standalone="no"?>
<svg xmlns:xlink="http://www.w3.org/1999/xlink" height="63.8px" width="62.45px" xmlns="http://www.w3.org/2000/svg">
  <g transform="matrix(1.0, 0.0, 0.0, 1.0, -104.8, -380.35)">
    <path d="M107.7 393.45 Q108.25 391.3 109.1 390.1 L111.0 387.9 108.6 389.2 Q106.3 390.4 104.8 390.7 107.05 387.25 110.25 385.2 113.45 383.1 116.75 382.1 120.0 381.1 122.5 380.75 L126.8 380.35 131.45 380.5 Q133.7 380.75 135.45 381.6 L138.0 382.65 140.1 383.0 142.95 383.3 Q146.35 383.8 149.05 385.25 151.7 386.65 154.1 389.0 L159.1 394.55 161.9 397.25 164.15 399.25 Q165.1 400.3 165.7 402.5 L166.55 406.2 167.15 410.3 Q167.35 412.4 167.1 414.05 166.55 416.65 164.5 418.8 L160.15 422.85 155.9 426.6 149.7 432.95 143.9 439.45 Q141.9 441.9 139.5 442.5 L135.3 442.9 133.45 442.6 132.2 443.3 128.65 444.15 122.75 443.65 Q119.3 442.9 114.7 440.25 L117.75 439.85 Q118.7 439.65 119.5 439.05 L121.7 436.95 122.35 436.1 Q121.1 437.0 119.65 437.75 117.2 439.0 114.65 439.45 L110.2 439.15 Q114.8 438.05 117.55 436.25 120.25 434.5 121.6 432.1 122.95 429.75 123.3 426.9 123.75 424.1 123.65 420.95 121.9 412.45 122.25 406.65 121.1 408.1 120.7 409.35 120.25 410.55 121.35 411.85 119.9 411.05 118.3 408.85 116.8 406.6 115.8 403.7 114.7 400.85 114.6 398.2 114.5 395.5 115.8 393.9 114.75 395.1 113.7 396.95 112.65 398.85 111.95 400.9 111.3 403.0 111.35 404.75 111.45 406.45 112.55 407.3 110.6 407.6 109.35 406.35 108.15 405.05 107.65 402.9 107.1 400.7 107.1 398.2 107.2 395.7 107.7 393.45" fill="#85411e" fill-rule="evenodd" stroke="none"/>
  </g>
</svg>
