<?xml version="1.0" encoding="UTF-8" standalone="no"?>
<svg xmlns:xlink="http://www.w3.org/1999/xlink" height="9.45px" width="32.75px" xmlns="http://www.w3.org/2000/svg">
  <g transform="matrix(1.0, 0.0, 0.0, 1.0, -125.85, -472.0)">
    <path d="M127.3 474.5 L133.75 473.75 141.25 472.75 148.55 472.5 Q152.05 472.7 154.6 473.9 157.1 475.15 158.1 477.9 155.3 479.3 151.35 479.95 L143.05 480.85 134.5 480.95 127.15 480.8 Q126.2 478.75 126.4 476.85 126.6 475.5 127.3 474.5" fill="#ffffff" fill-rule="evenodd" stroke="none"/>
    <path d="M127.3 474.5 L133.75 473.75 141.25 472.75 148.55 472.5 Q152.05 472.7 154.6 473.9 157.1 475.15 158.1 477.9 155.3 479.3 151.35 479.95 L143.05 480.85 134.5 480.95 127.15 480.8 Q126.2 478.75 126.4 476.85 126.6 475.5 127.3 474.5 L127.5 474.3 128.05 473.75" fill="none" stroke="#877a7e" stroke-linecap="round" stroke-linejoin="round" stroke-width="1.0"/>
  </g>
</svg>
