<?xml version="1.0" encoding="UTF-8" standalone="no"?>
<svg xmlns:xlink="http://www.w3.org/1999/xlink" height="109.7px" width="64.1px" xmlns="http://www.w3.org/2000/svg">
  <g transform="matrix(1.0, 0.0, 0.0, 1.0, -116.45, -372.05)">
    <path d="M120.05 378.85 L117.2 377.55 Q116.45 377.25 117.95 377.2 L125.45 375.85 130.95 374.0 Q133.4 373.05 135.7 372.55 L141.05 372.8 Q150.2 373.3 155.95 376.2 161.7 379.0 165.05 383.25 168.4 387.45 170.25 392.0 L173.6 400.45 Q175.05 404.4 177.0 406.6 179.2 408.9 179.8 412.65 180.4 416.4 179.45 420.75 178.5 425.15 175.9 429.35 173.3 433.65 169.15 437.0 164.9 440.35 158.95 442.0 153.65 443.5 151.75 445.5 149.85 447.5 150.4 449.9 150.9 452.2 152.7 454.65 L156.6 459.4 Q158.65 461.75 159.9 463.75 161.15 465.7 160.55 467.1 L160.4 468.6 Q160.25 470.05 159.4 471.8 158.6 473.6 156.7 474.65 154.8 475.75 151.45 475.15 L147.7 475.55 142.9 477.0 Q140.35 477.8 137.5 477.8 134.65 477.9 131.8 476.45 128.95 475.05 126.35 471.3 123.7 467.6 121.5 460.85 120.35 457.2 121.0 454.4 121.6 451.55 123.0 449.35 L125.6 445.25 Q126.8 443.3 126.9 441.35 L127.3 430.0 Q127.65 425.4 128.1 421.9 L129.0 415.4 129.75 408.75 130.1 400.45 Q130.15 393.5 128.45 389.15 126.8 384.7 124.4 382.3 122.05 379.9 120.05 378.85" fill="#ffffff" fill-rule="evenodd" stroke="none"/>
    <path d="M120.05 378.85 Q122.05 379.9 124.4 382.3 126.8 384.7 128.45 389.15 130.15 393.5 130.1 400.45 L129.75 408.75 129.0 415.4 128.1 421.9 Q127.65 425.4 127.3 430.0 L126.9 441.35 Q126.8 443.3 125.6 445.25 L123.0 449.35 Q121.6 451.55 121.0 454.4 120.35 457.2 121.5 460.85 123.7 467.6 126.35 471.3 128.95 475.05 131.8 476.45 134.65 477.9 137.5 477.8 140.35 477.8 142.9 477.0 L147.7 475.55 151.45 475.15 Q154.8 475.75 156.7 474.65 158.6 473.6 159.4 471.8 160.25 470.05 160.4 468.6 L160.55 467.1 Q161.15 465.7 159.9 463.75 158.65 461.75 156.6 459.4 L152.7 454.65 Q150.9 452.2 150.4 449.9 149.85 447.5 151.75 445.5 153.65 443.5 158.95 442.0 164.9 440.35 169.15 437.0 173.3 433.65 175.9 429.35 178.5 425.15 179.45 420.75 180.4 416.4 179.8 412.65 179.2 408.9 177.0 406.6 175.05 404.4 173.6 400.45 L170.25 392.0 Q168.4 387.45 165.05 383.25 161.7 379.0 155.95 376.2 150.2 373.3 141.05 372.8 L135.7 372.55 Q133.4 373.05 130.95 374.0 L125.45 375.85 117.95 377.2 Q116.45 377.25 117.2 377.55 L120.05 378.85 Z" fill="none" stroke="#7f5244" stroke-linecap="round" stroke-linejoin="round" stroke-width="1.0"/>
    <path d="M118.0 378.85 Q123.35 381.45 126.0 386.05 128.65 390.65 129.4 396.6 130.15 402.55 129.75 409.2 129.45 415.9 128.8 422.6 128.3 427.6 127.3 432.8 L125.4 443.25 Q124.45 448.55 124.1 453.75 123.7 458.95 124.6 464.0 125.45 469.05 128.1 473.85" fill="none" stroke="#3a3335" stroke-linecap="round" stroke-linejoin="round" stroke-width="3.0"/>
    <path d="M130.15 475.4 Q129.95 476.35 130.0 477.4 L130.15 479.4" fill="none" stroke="#877a7e" stroke-linecap="round" stroke-linejoin="round" stroke-width="1.0"/>
    <path d="M134.55 477.8 L134.95 479.45 135.4 481.05" fill="none" stroke="#877a7e" stroke-linecap="round" stroke-linejoin="round" stroke-width="1.0"/>
    <path d="M142.6 478.2 L143.25 481.25" fill="none" stroke="#877a7e" stroke-linecap="round" stroke-linejoin="round" stroke-width="1.0"/>
    <path d="M148.05 475.8 L148.6 477.85 149.65 479.75" fill="none" stroke="#877a7e" stroke-linecap="round" stroke-linejoin="round" stroke-width="1.0"/>
    <path d="M131.05 443.0 Q131.55 444.6 130.65 446.25 129.7 447.9 128.0 449.5 L124.25 452.7 120.7 455.75 Q119.1 457.2 118.4 458.5 117.35 461.0 117.9 463.7 118.5 466.35 120.35 468.3 122.15 470.2 124.95 470.5" fill="none" stroke="#bf0000" stroke-linecap="round" stroke-linejoin="round" stroke-width="1.0"/>
    <path d="M139.3 391.25 Q138.2 392.55 138.05 394.65 137.9 396.4 138.4 397.35 L139.55 399.05 140.9 401.25 Q141.95 404.0 141.15 406.45 140.35 408.95 138.6 411.15 L135.0 415.2 Q136.0 412.25 136.25 408.8 136.5 405.35 136.15 401.9 135.8 398.4 135.0 395.3 133.5 389.45 130.55 385.6 127.65 381.7 122.45 378.85 L125.05 379.15 130.0 378.5 134.95 377.4 140.0 377.25 Q143.6 377.95 144.45 379.85 145.3 381.75 144.35 384.05 143.4 386.45 141.65 388.5 L139.3 391.25" fill="#f2f2f2" fill-rule="evenodd" stroke="none"/>
    <path d="M164.4 385.5 Q165.5 385.95 166.8 387.7 168.2 389.55 169.6 392.1 L172.3 397.45 174.35 402.5 175.3 406.0 170.55 405.75 Q167.9 404.6 165.7 402.55 163.55 400.55 162.95 398.5 162.5 396.7 162.85 395.0 L163.7 391.6 164.5 388.2 Q164.65 386.9 164.4 385.5" fill="#e2e2e2" fill-rule="evenodd" stroke="none"/>
    <path d="M136.4 444.4 Q138.1 443.3 140.7 444.15 143.25 445.1 145.85 447.15 148.45 449.15 150.4 451.6 152.25 454.0 152.65 455.95 153.0 458.05 152.6 460.65 152.15 463.3 150.85 465.8 149.6 468.3 147.5 469.9 145.35 471.55 142.3 471.65 139.3 471.75 135.4 469.7 L136.05 468.2 137.7 465.1 139.4 461.8 140.2 459.8 Q140.25 458.25 139.4 456.8 L137.4 454.05 135.35 451.55 Q134.5 450.4 134.45 449.3 134.6 445.45 136.4 444.4" fill="#e80c0c" fill-rule="evenodd" stroke="none"/>
    <path d="M136.4 444.4 Q134.6 445.45 134.45 449.3 134.5 450.4 135.35 451.55 L137.4 454.05 139.4 456.8 Q140.25 458.25 140.2 459.8 L139.4 461.8 137.7 465.1 136.05 468.2 135.4 469.7 Q139.3 471.75 142.3 471.65 145.35 471.55 147.5 469.9 149.6 468.3 150.85 465.8 152.15 463.3 152.6 460.65 153.0 458.05 152.65 455.95 152.25 454.0 150.4 451.6 148.45 449.15 145.85 447.15 143.25 445.1 140.7 444.15 138.1 443.3 136.4 444.4 Z" fill="none" stroke="#aa0000" stroke-linecap="round" stroke-linejoin="round" stroke-width="1.0"/>
    <path d="M133.05 464.1 Q135.25 465.7 137.7 466.8 L142.5 468.95 Q144.95 469.9 147.2 471.3 144.55 475.1 141.9 476.1 139.15 477.2 136.95 475.9 134.7 474.65 133.4 471.4 132.1 468.1 132.25 463.25 L133.05 464.1" fill="#ffffff" fill-rule="evenodd" stroke="none"/>
    <path d="M133.05 464.1 Q135.25 465.7 137.7 466.8 L142.5 468.95 Q144.95 469.9 147.2 471.3 144.55 475.1 141.9 476.1 139.15 477.2 136.95 475.9 134.7 474.65 133.4 471.4 132.1 468.1 132.25 463.25" fill="none" stroke="#7f5244" stroke-linecap="round" stroke-linejoin="round" stroke-width="1.0"/>
    <path d="M170.25 428.75 Q172.75 428.85 176.15 427.7 L172.9 431.8 169.5 435.25 Q167.7 436.85 165.2 438.25 L162.35 439.75 Q160.7 440.55 158.85 440.95 L155.55 440.8 Q154.05 440.3 153.4 438.3 153.25 437.65 153.6 436.45 L154.35 434.1 154.7 431.95 153.9 428.65 152.5 425.55 Q150.45 421.9 147.65 420.3 144.9 418.7 140.9 418.75 L141.8 417.75 Q147.25 417.65 151.75 419.15 156.2 420.65 160.45 424.0 163.2 426.3 165.5 427.5 167.8 428.7 170.25 428.75" fill="#e2e2e2" fill-rule="evenodd" stroke="none"/>
  </g>
</svg>
