<?xml version="1.0" encoding="UTF-8" standalone="no"?>
<svg xmlns:xlink="http://www.w3.org/1999/xlink" height="28.25px" width="19.5px" xmlns="http://www.w3.org/2000/svg">
  <g transform="matrix(1.0, 0.0, 0.0, 1.0, -143.65, -437.05)">
    <path d="M162.1 449.05 Q161.35 450.15 160.25 450.35 159.15 450.65 158.1 450.0 L147.45 443.0 Q146.5 442.35 146.3 441.2 146.1 440.05 146.8 438.95 147.5 437.9 148.6 437.6 149.75 437.35 150.75 437.95 L161.45 445.05 Q162.4 445.7 162.6 446.85 162.75 448.0 162.1 449.05" fill="#ffffff" fill-rule="evenodd" stroke="none"/>
    <path d="M162.1 449.05 Q161.35 450.15 160.25 450.35 159.15 450.65 158.1 450.0 L147.45 443.0 Q146.5 442.35 146.3 441.2 146.1 440.05 146.8 438.95 147.5 437.9 148.6 437.6 149.75 437.35 150.75 437.95 L161.45 445.05 Q162.4 445.7 162.6 446.85 162.75 448.0 162.1 449.05 Z" fill="none" stroke="#999999" stroke-linecap="round" stroke-linejoin="round" stroke-width="1.0"/>
    <path d="M145.6 460.3 L144.75 457.3 147.65 458.45 150.15 456.7 150.0 459.8 152.45 461.65 149.45 462.45 148.4 465.3 146.7 462.75 143.65 462.65 145.6 460.3" fill="#ffffff" fill-rule="evenodd" stroke="none"/>
  </g>
</svg>
