<?xml version="1.0" encoding="UTF-8" standalone="no"?>
<svg xmlns:xlink="http://www.w3.org/1999/xlink" height="153.0px" width="123.35px" xmlns="http://www.w3.org/2000/svg">
  <g transform="matrix(1.0, 0.0, 0.0, 1.0, 15.45, -1.0)">
    <path d="M88.15 33.2 L87.45 33.5 Q87.05 33.5 86.75 33.2 L86.45 32.5 Q86.45 32.1 86.75 31.8 87.05 31.5 87.45 31.5 87.85 31.5 88.15 31.8 L88.45 32.5 88.15 33.2 M99.15 58.85 Q98.8 58.5 98.8 58.0 98.8 57.5 99.15 57.15 99.5 56.8 100.0 56.8 100.5 56.8 100.85 57.15 101.2 57.5 101.2 58.0 L100.85 58.85 Q100.45 59.05 100.0 59.2 99.5 59.2 99.15 58.85 M92.45 80.0 Q92.85 80.0 93.15 80.3 L93.45 81.0 93.15 81.7 92.45 82.0 91.75 81.7 Q91.45 81.4 91.45 81.0 91.45 80.6 91.75 80.3 92.05 80.0 92.45 80.0 M64.7 40.25 L65.0 40.95 64.7 41.65 64.0 41.95 Q63.6 41.95 63.3 41.65 63.0 41.35 63.0 40.95 63.0 40.55 63.3 40.25 63.6 39.95 64.0 39.95 64.4 39.95 64.7 40.25 M15.45 3.0 L14.75 2.7 14.45 2.0 Q14.45 1.6 14.75 1.3 15.05 1.0 15.45 1.0 15.85 1.0 16.15 1.3 L16.45 2.0 16.15 2.7 Q15.85 3.0 15.45 3.0 M6.35 36.4 Q6.75 36.4 7.05 36.7 L7.35 37.4 7.05 38.1 6.35 38.4 5.65 38.1 Q5.35 37.8 5.35 37.4 5.35 37.0 5.65 36.7 5.95 36.4 6.35 36.4 M40.15 38.2 Q39.85 38.5 39.45 38.5 L38.75 38.2 Q38.45 37.9 38.45 37.5 38.45 37.1 38.75 36.8 39.05 36.5 39.45 36.5 39.85 36.5 40.15 36.8 L40.45 37.5 40.15 38.2 M16.65 77.7 L15.95 78.0 Q15.55 78.0 15.25 77.7 14.95 77.4 14.95 77.0 14.95 76.6 15.25 76.3 15.55 76.0 15.95 76.0 L16.65 76.3 16.95 77.0 16.65 77.7 M4.45 77.0 L4.15 77.7 3.45 78.0 Q3.05 78.0 2.75 77.7 L2.45 77.0 Q2.45 76.6 2.75 76.3 3.05 76.0 3.45 76.0 3.85 76.0 4.15 76.3 L4.45 77.0 M105.5 133.45 L105.2 134.15 104.5 134.45 Q104.1 134.45 103.8 134.15 103.5 133.85 103.5 133.45 103.5 133.05 103.8 132.75 104.1 132.45 104.5 132.45 104.9 132.45 105.2 132.75 L105.5 133.45" fill="#ffffff" fill-rule="evenodd" stroke="none"/>
    <path d="M4.0 90.95 Q3.5 91.5 2.8 91.5 2.1 91.5 1.55 90.95 1.05 90.45 1.05 89.75 1.05 89.05 1.55 88.5 2.1 88.0 2.8 88.0 3.5 88.0 4.0 88.5 4.55 89.05 4.55 89.75 4.55 90.45 4.0 90.95" fill="none" stroke="#ffffff" stroke-linecap="round" stroke-linejoin="round" stroke-width="1.0"/>
    <path d="M64.45 26.95 Q65.0 27.5 65.0 28.2 65.0 28.9 64.45 29.4 63.95 29.95 63.25 29.95 62.55 29.95 62.0 29.4 61.5 28.9 61.5 28.2 61.5 27.5 62.0 26.95 62.55 26.45 63.25 26.45 63.95 26.45 64.45 26.95 M7.45 26.95 Q8.0 27.5 8.0 28.2 8.0 28.9 7.45 29.4 6.95 29.95 6.25 29.95 5.55 29.95 5.0 29.4 4.5 28.9 4.5 28.2 4.5 27.5 5.0 26.95 5.55 26.45 6.25 26.45 6.95 26.45 7.45 26.95 M104.95 99.5 Q105.5 100.05 105.5 100.75 105.5 101.45 104.95 101.95 104.45 102.5 103.75 102.5 103.05 102.5 102.5 101.95 102.0 101.45 102.0 100.75 102.0 100.05 102.5 99.5 103.05 99.0 103.75 99.0 104.45 99.0 104.95 99.5 M-9.05 150.5 Q-8.5 151.05 -8.5 151.75 -8.5 152.45 -9.05 152.95 -9.55 153.5 -10.25 153.5 -10.95 153.5 -11.5 152.95 -12.0 152.45 -12.0 151.75 -12.0 151.05 -11.5 150.5 -10.95 150.0 -10.25 150.0 -9.55 150.0 -9.05 150.5" fill="none" stroke="#ffffff" stroke-linecap="round" stroke-linejoin="round" stroke-width="1.0"/>
    <path d="M20.4 15.1 L15.65 15.15 15.55 20.35 15.5 21.05 15.25 22.5 15.05 21.05 15.0 20.35 14.85 15.2 10.15 15.1 8.0 14.8 10.15 14.55 14.85 14.35 15.0 10.1 15.1 8.5 15.25 8.0 15.4 8.5 15.55 10.1 15.65 14.3 20.4 14.55 22.5 14.8 20.4 15.1" fill="#ffffff" fill-opacity="0.67058825" fill-rule="evenodd" stroke="none"/>
    <path d="M87.05 60.1 L87.15 64.3 91.9 64.55 94.0 64.8 91.9 65.1 87.15 65.15 87.05 70.35 87.0 71.05 86.75 72.5 86.55 71.05 86.5 70.35 86.35 65.2 81.65 65.1 79.5 64.8 81.65 64.55 86.35 64.35 86.5 60.1 86.6 58.5 86.75 58.0 86.9 58.5 87.05 60.1" fill="#ffffff" fill-opacity="0.67058825" fill-rule="evenodd" stroke="none"/>
    <path d="M87.2 6.4 L87.35 13.15 95.05 13.55 98.45 14.05 95.05 14.45 87.4 14.55 87.2 23.0 87.1 24.15 86.75 26.45 Q86.55 26.45 86.4 24.15 L86.3 23.0 86.1 14.65 78.45 14.45 75.0 14.05 78.45 13.55 86.1 13.25 86.3 6.4 86.5 3.85 Q86.6 3.0 86.75 3.0 L87.0 3.85 87.2 6.4" fill="#ffffff" fill-opacity="0.67058825" fill-rule="evenodd" stroke="none"/>
    <path d="M43.1 48.15 L40.0 48.2 39.95 51.6 39.9 52.05 39.75 53.0 39.6 52.05 39.6 51.6 39.5 48.2 36.4 48.15 35.0 47.95 36.4 47.8 39.5 47.65 39.6 44.9 39.65 43.85 39.75 43.5 39.85 43.85 39.95 44.9 40.0 47.6 43.1 47.8 44.5 47.95 43.1 48.15" fill="#ffffff" fill-opacity="0.67058825" fill-rule="evenodd" stroke="none"/>
    <path d="M4.6 106.2 L-3.05 106.3 -3.25 114.75 -3.35 115.9 Q-3.5 118.2 -3.7 118.2 L-4.05 115.9 -4.15 114.75 -4.35 106.4 -12.0 106.2 -15.45 105.8 -12.0 105.3 -4.35 105.0 -4.15 98.15 -3.95 95.6 -3.7 94.75 Q-3.55 94.75 -3.45 95.6 L-3.25 98.15 -3.1 104.9 4.6 105.3 8.0 105.8 4.6 106.2" fill="#ffffff" fill-opacity="0.67058825" fill-rule="evenodd" stroke="none"/>
    <path d="M16.45 61.4 L16.55 64.1 19.65 64.25 21.0 64.45 19.65 64.6 16.55 64.65 16.45 68.05 16.45 68.55 16.3 69.45 16.15 68.55 16.1 68.05 16.05 64.7 12.95 64.6 11.55 64.45 12.95 64.25 16.05 64.15 16.1 61.4 16.2 60.35 16.3 60.0 16.4 60.35 16.45 61.4" fill="#ffffff" fill-opacity="0.67058825" fill-rule="evenodd" stroke="none"/>
    <path d="M103.35 116.4 L103.45 119.1 106.55 119.25 107.9 119.45 106.55 119.6 103.45 119.65 103.35 123.05 103.35 123.55 103.2 124.45 103.05 123.55 103.0 123.05 102.95 119.7 99.85 119.6 98.45 119.45 99.85 119.25 102.95 119.15 103.0 116.4 103.1 115.35 103.2 115.0 103.3 115.35 103.35 116.4" fill="#ffffff" fill-opacity="0.67058825" fill-rule="evenodd" stroke="none"/>
    <path d="M99.85 42.75 L102.95 42.65 103.0 39.9 103.1 38.85 103.2 38.5 103.3 38.85 103.35 39.9 103.45 42.6 106.55 42.75 107.9 42.95 106.55 43.1 103.45 43.15 103.35 46.55 103.35 47.05 103.2 47.95 103.05 47.05 103.0 46.55 102.95 43.2 99.85 43.1 98.45 42.95 99.85 42.75" fill="#ffffff" fill-opacity="0.67058825" fill-rule="evenodd" stroke="none"/>
  </g>
</svg>
