<?xml version="1.0" encoding="UTF-8" standalone="no"?>
<svg xmlns:xlink="http://www.w3.org/1999/xlink" height="149.45px" width="54.55px" xmlns="http://www.w3.org/2000/svg">
  <g transform="matrix(1.0, 0.0, 0.0, 1.0, -43.8, -366.3)">
    <path d="M60.4 494.15 Q60.0 496.85 60.65 499.8 60.95 501.4 61.5 502.65 62.05 503.95 63.3 504.85 64.5 505.8 67.15 506.4 68.25 506.75 69.05 507.75 69.85 508.7 70.1 510.0 70.4 511.4 69.95 512.7 69.6 513.45 67.85 513.95 L63.55 514.85 58.8 515.25 55.45 515.2 Q53.45 514.8 51.85 511.75 50.15 508.75 49.45 504.15 48.7 499.45 49.6 494.1 L50.1 491.15 50.5 487.4 51.2 487.7 52.75 488.3 55.9 488.7 61.7 488.45 Q60.85 491.55 60.4 494.15" fill="#ffffff" fill-rule="evenodd" stroke="none"/>
    <path d="M60.4 494.15 Q60.0 496.85 60.65 499.8 60.95 501.4 61.5 502.65 62.05 503.95 63.3 504.85 64.5 505.8 67.15 506.4 68.25 506.75 69.05 507.75 69.85 508.7 70.1 510.0 70.4 511.4 69.95 512.7 69.6 513.45 67.85 513.95 L63.55 514.85 58.8 515.25 55.45 515.2 Q53.45 514.8 51.85 511.75 50.15 508.75 49.45 504.15 48.7 499.45 49.6 494.1 L50.1 491.15 50.5 487.4 51.2 487.7 52.75 488.3 55.9 488.7 61.7 488.45 Q60.85 491.55 60.4 494.15 Z" fill="none" stroke="#877a7e" stroke-linecap="round" stroke-linejoin="round" stroke-width="1.0"/>
    <path d="M56.25 481.8 L57.95 482.15 Q58.1 483.1 58.9 483.6 L60.65 484.55 Q61.6 485.05 61.95 485.9 62.15 486.5 61.95 487.95 L61.5 490.8 Q61.25 492.15 61.35 492.7 L61.5 494.7 61.45 497.55 61.4 499.6 Q61.5 501.05 61.85 501.6 L62.7 502.5 63.55 503.4 64.0 505.4 61.3 506.25 57.55 506.95 53.7 507.35 50.9 507.2 Q48.95 506.6 48.35 504.7 47.75 502.8 47.75 500.55 47.75 498.25 47.4 496.75 47.25 496.25 47.5 495.85 L48.1 495.15 Q48.35 494.8 48.2 494.45 47.4 494.25 47.0 493.7 46.8 493.25 47.15 492.75 L47.4 491.8 Q47.15 491.1 47.0 489.65 L46.85 486.55 46.8 483.4 46.8 481.25 Q46.8 480.3 46.25 480.0 L45.1 479.7 45.35 479.65 Q46.8 479.5 48.8 480.1 L52.75 481.3 Q54.8 481.95 56.25 481.8" fill="#106189" fill-rule="evenodd" stroke="none"/>
    <path d="M57.95 482.15 Q58.1 483.1 58.9 483.6 L60.65 484.55 Q61.6 485.05 61.95 485.9 62.15 486.5 61.95 487.95 L61.5 490.8 Q61.25 492.15 61.35 492.7 L61.5 494.7 61.45 497.55 61.4 499.6 Q61.5 501.05 61.85 501.6 L62.7 502.5 63.55 503.4 64.0 505.4 61.3 506.25 57.55 506.95 53.7 507.35 50.9 507.2 Q48.95 506.6 48.35 504.7 47.75 502.8 47.75 500.55 47.75 498.25 47.4 496.75 47.25 496.25 47.5 495.85 L48.1 495.15 Q48.35 494.8 48.2 494.45 47.4 494.25 47.0 493.7 46.8 493.25 47.15 492.75 L47.4 491.8 Q47.15 491.1 47.0 489.65 L46.85 486.55 46.8 483.4 46.8 481.25 Q46.8 480.3 46.25 480.0 L45.1 479.7 45.0 479.7 44.3 479.75 M45.1 479.7 L45.35 479.65 Q46.8 479.5 48.8 480.1 L52.75 481.3 Q54.8 481.95 56.25 481.8" fill="none" stroke="#6c91ad" stroke-linecap="round" stroke-linejoin="round" stroke-width="1.0"/>
    <path d="M59.4 503.8 Q60.1 504.0 60.75 504.6 61.35 505.25 61.45 505.95 L61.45 506.8 Q61.3 507.05 60.95 507.1 L60.1 507.6 57.6 509.3 Q56.15 510.1 54.65 509.85 L53.1 508.8 Q52.3 507.9 52.0 506.85 51.8 505.85 52.5 505.05 53.2 504.45 54.35 504.45 L56.85 504.35 Q58.1 504.3 59.0 503.45 L59.4 503.8" fill="#ffffff" fill-rule="evenodd" stroke="none"/>
    <path d="M59.0 503.45 Q58.1 504.3 56.85 504.35 L54.35 504.45 Q53.2 504.45 52.5 505.05 51.8 505.85 52.0 506.85 52.3 507.9 53.1 508.8 L54.65 509.85 Q56.15 510.1 57.6 509.3 L60.1 507.6 60.95 507.1 Q61.3 507.05 61.45 506.8 L61.45 505.95 Q61.35 505.25 60.75 504.6 60.1 504.0 59.4 503.8" fill="none" stroke="#877a7e" stroke-linecap="round" stroke-linejoin="round" stroke-width="1.0"/>
    <path d="M64.0 502.95 Q65.25 501.8 66.25 502.25 67.2 502.8 67.25 504.0 67.3 505.15 65.9 506.1" fill="none" stroke="#877a7e" stroke-linecap="round" stroke-linejoin="round" stroke-width="1.0"/>
    <path d="M69.9 366.8 Q74.4 369.3 78.35 372.55 82.25 375.75 85.1 379.75 87.9 383.7 89.15 388.4 90.05 392.1 90.0 396.05 L89.85 403.85 Q89.8 407.75 90.85 411.3 91.4 412.9 92.4 413.7 L94.45 415.2 96.35 416.5 Q97.25 417.2 97.65 418.6 98.4 422.2 96.5 425.55 94.6 428.85 91.0 431.6 86.9 434.75 81.95 435.5 L71.95 435.0 Q66.9 433.85 62.75 431.15 L69.9 366.8" fill="#fff7f3" fill-rule="evenodd" stroke="none"/>
    <path d="M69.9 366.8 Q74.4 369.3 78.35 372.55 82.25 375.75 85.1 379.75 87.9 383.7 89.15 388.4 90.05 392.1 90.0 396.05 L89.85 403.85 Q89.8 407.75 90.85 411.3 91.4 412.9 92.4 413.7 L94.45 415.2 96.35 416.5 Q97.25 417.2 97.65 418.6 98.4 422.2 96.5 425.55 94.6 428.85 91.0 431.6 86.9 434.75 81.95 435.5 L71.95 435.0 Q66.9 433.85 62.75 431.15" fill="none" stroke="#7f5c40" stroke-linecap="round" stroke-linejoin="round" stroke-width="1.0"/>
    <path d="M81.65 412.05 L84.2 411.9 Q85.35 411.7 86.5 410.45 L85.95 411.55 Q86.05 411.4 86.3 411.4 L87.05 411.95 Q86.45 412.1 85.9 412.35 L86.95 412.25 87.65 412.15 88.65 412.0 M87.65 412.15 L87.05 412.25 86.95 412.25 85.7 412.45 85.9 412.35 85.0 412.35 86.6 413.1 88.3 413.8 85.8 414.0 Q84.75 413.6 83.5 412.65 M85.8 411.7 L85.95 411.55 85.8 411.65 85.8 411.7" fill="none" stroke="#000000" stroke-linecap="round" stroke-linejoin="round" stroke-width="1.0"/>
  </g>
</svg>
