<?xml version="1.0" encoding="UTF-8" standalone="no"?>
<svg xmlns:xlink="http://www.w3.org/1999/xlink" height="139.4px" width="58.55px" xmlns="http://www.w3.org/2000/svg">
  <g transform="matrix(1.0, 0.0, 0.0, 1.0, -99.25, -376.95)">
    <path d="M149.3 477.55 Q148.65 479.6 148.6 482.7 148.55 485.85 148.85 489.0 149.2 492.15 149.75 494.35 150.05 495.45 149.9 497.85 L149.35 503.2 Q148.95 506.15 148.2 508.85 147.45 511.6 146.55 513.5 145.65 515.4 144.55 515.65 L141.35 515.85 137.05 515.65 133.15 514.9 Q131.45 514.45 131.1 513.7 130.5 511.85 131.4 511.3 132.35 510.65 134.0 510.3 136.3 509.5 137.4 507.8 138.5 506.15 138.95 504.1 L139.65 500.5 Q140.2 497.45 139.75 494.8 L138.5 489.15 137.7 486.1 136.55 481.6 135.45 477.15 Q135.0 475.1 135.05 474.05 L149.3 477.55" fill="#fff7f3" fill-rule="evenodd" stroke="none"/>
    <path d="M135.05 474.05 Q135.0 475.1 135.45 477.15 L136.55 481.6 137.7 486.1 138.5 489.15 139.75 494.8 Q140.2 497.45 139.65 500.5 L138.95 504.1 Q138.5 506.15 137.4 507.8 136.3 509.5 134.0 510.3 132.35 510.65 131.4 511.3 130.5 511.85 131.1 513.7 131.45 514.45 133.15 514.9 L137.05 515.65 141.35 515.85 144.55 515.65 Q145.65 515.4 146.55 513.5 147.45 511.6 148.2 508.85 148.95 506.15 149.35 503.2 L149.9 497.85 Q150.05 495.45 149.75 494.35 149.2 492.15 148.85 489.0 148.55 485.85 148.6 482.7 148.65 479.6 149.3 477.55" fill="none" stroke="#7f5c40" stroke-linecap="round" stroke-linejoin="round" stroke-width="1.0"/>
    <path d="M145.15 491.9 L147.9 491.35 148.85 490.9 Q148.9 493.1 149.1 494.3 L149.55 496.95 Q150.2 501.75 149.5 506.0 148.75 510.2 147.15 512.85 145.65 515.45 143.85 515.8 L140.75 515.75 136.6 515.3 132.75 514.45 Q131.1 513.95 130.8 513.3 130.3 511.55 131.2 511.1 132.1 510.6 133.65 510.35 136.0 509.8 137.1 508.35 138.2 506.9 138.7 505.15 L139.45 501.85 Q140.15 499.2 139.8 496.8 L138.75 491.7 145.15 491.9" fill="#000000" fill-rule="evenodd" stroke="none"/>
    <path d="M138.3 493.75 L139.7 494.15 142.85 494.7 146.5 494.55 Q148.3 494.2 149.3 492.8" fill="none" stroke="#a3a3a3" stroke-linecap="round" stroke-linejoin="round" stroke-width="1.5"/>
    <path d="M138.6 497.75 L140.0 498.2 143.2 498.75 146.85 498.6 Q148.65 498.2 149.7 496.8" fill="none" stroke="#a3a3a3" stroke-linecap="round" stroke-linejoin="round" stroke-width="1.0"/>
    <path d="M125.7 470.2 Q127.75 467.95 131.0 466.75 134.3 465.55 137.8 465.3 L143.9 465.45 Q146.7 465.9 148.1 467.15 149.6 468.5 150.35 470.35 L151.8 474.3 Q152.55 476.5 153.75 478.6 154.95 480.75 157.3 482.6 155.45 484.55 152.35 486.45 149.25 488.3 145.4 489.65 141.65 491.0 137.85 491.45 L130.85 491.1 Q127.65 490.3 125.65 487.9 127.3 485.65 128.0 483.4 128.6 481.1 128.55 478.55 128.45 475.95 127.95 472.75 L125.7 470.2" fill="#106189" fill-rule="evenodd" stroke="none"/>
    <path d="M127.95 472.75 Q128.45 475.95 128.55 478.55 128.6 481.1 128.0 483.4 127.3 485.65 125.65 487.9 127.65 490.3 130.85 491.1 L137.85 491.45 Q141.65 491.0 145.4 489.65 149.25 488.3 152.35 486.45 155.45 484.55 157.3 482.6 154.95 480.75 153.75 478.6 152.55 476.5 151.8 474.3 L150.35 470.35 Q149.6 468.5 148.1 467.15 146.7 465.9 143.9 465.45 L137.8 465.3 Q134.3 465.55 131.0 466.75 127.75 467.95 125.7 470.2" fill="none" stroke="#6c91ad" stroke-linecap="round" stroke-linejoin="round" stroke-width="1.0"/>
    <path d="M135.85 480.55 L138.55 481.05 Q141.6 483.2 144.1 483.55 L148.35 483.4 Q150.1 482.9 151.05 482.2 L152.0 481.4 153.6 481.05 Q153.25 482.65 152.0 483.45 150.75 484.35 148.9 484.7 L145.0 485.0 141.4 484.4 Q139.45 483.75 137.85 482.8 136.35 481.75 135.85 480.55" fill="#6c91ad" fill-rule="evenodd" stroke="none"/>
    <path d="M127.9 447.75 Q126.05 444.2 124.2 442.45 122.4 440.65 120.5 439.85 118.65 439.15 116.65 438.85 L112.5 438.05 Q110.35 437.45 107.85 436.05 105.35 434.55 102.5 431.55 100.95 429.8 100.3 427.2 99.7 424.6 99.75 422.1 99.8 419.65 100.45 418.2 100.95 417.15 101.75 416.9 L103.5 416.2 Q104.4 415.7 105.45 413.9 106.4 411.85 106.45 409.95 L106.6 405.8 Q106.65 403.65 107.4 400.9 108.2 398.15 110.55 394.5 114.25 388.9 119.65 384.45 125.1 380.0 132.1 377.45 L127.9 447.75" fill="#fff7f3" fill-rule="evenodd" stroke="none"/>
    <path d="M132.1 377.45 Q125.1 380.0 119.65 384.45 114.25 388.9 110.55 394.5 108.2 398.15 107.4 400.9 106.65 403.65 106.6 405.8 L106.45 409.95 Q106.4 411.85 105.45 413.9 104.4 415.7 103.5 416.2 L101.75 416.9 Q100.95 417.15 100.45 418.2 99.8 419.65 99.75 422.1 99.7 424.6 100.3 427.2 100.95 429.8 102.5 431.55 105.35 434.55 107.85 436.05 110.35 437.45 112.5 438.05 L116.65 438.85 Q118.65 439.15 120.5 439.85 122.4 440.65 124.2 442.45 126.05 444.2 127.9 447.75" fill="none" stroke="#7f5c40" stroke-linecap="round" stroke-linejoin="round" stroke-width="1.0"/>
    <path d="M112.75 417.4 Q111.05 418.25 109.75 418.55 108.4 418.9 106.75 417.95 L108.85 417.4 111.0 416.85 109.95 416.7 110.15 416.9 Q108.35 416.65 106.7 415.85 L108.5 416.45 109.95 416.7 108.6 416.05 Q109.2 415.45 109.55 415.55 L110.1 415.9 109.55 414.5 Q110.7 416.1 112.05 416.55 L115.1 417.1 M110.1 415.9 L110.15 416.0 110.15 416.05 110.1 415.9" fill="none" stroke="#000000" stroke-linecap="round" stroke-linejoin="round" stroke-width="1.0"/>
  </g>
</svg>
