<?xml version="1.0" encoding="UTF-8" standalone="no"?>
<svg xmlns:xlink="http://www.w3.org/1999/xlink" height="63.75px" width="62.9px" xmlns="http://www.w3.org/2000/svg">
  <g transform="matrix(1.0, 0.0, 0.0, 1.0, -102.85, -380.75)">
    <path d="M105.8 394.4 Q106.3 392.2 107.15 390.95 L109.0 388.7 106.6 390.1 Q104.35 391.35 102.85 391.7 105.05 388.2 108.2 386.05 111.35 383.9 114.6 382.8 117.8 381.7 120.25 381.3 L124.55 380.75 129.2 380.85 Q131.5 381.0 133.25 381.8 L135.85 382.8 137.9 383.05 140.8 383.3 Q144.2 383.75 146.95 385.1 149.55 386.45 152.05 388.75 L157.2 394.1 Q158.8 395.85 160.1 396.75 161.45 397.65 162.4 398.65 163.4 399.7 164.05 401.9 L164.95 405.55 165.7 409.7 165.75 413.45 Q165.3 416.0 163.3 418.25 161.35 420.5 158.95 422.4 156.55 424.35 154.8 426.2 L148.8 432.75 Q145.8 436.0 143.2 439.45 141.25 441.9 138.85 442.6 L134.65 443.1 132.8 442.85 131.6 443.6 Q130.4 444.15 128.05 444.5 L122.15 444.2 Q118.7 443.5 114.05 441.0 L117.1 440.5 Q118.05 440.3 118.8 439.65 L120.9 437.45 121.55 436.65 118.95 438.35 Q116.5 439.65 113.95 440.2 L109.5 440.0 Q114.1 438.8 116.8 436.9 119.45 435.05 120.7 432.6 121.95 430.2 122.25 427.35 122.6 424.6 122.45 421.45 120.5 413.0 120.7 407.15 119.55 408.65 119.15 409.9 118.8 411.1 119.9 412.4 118.45 411.65 116.85 409.45 115.25 407.25 114.15 404.4 113.0 401.55 112.85 398.9 112.7 396.25 113.95 394.6 112.9 395.85 111.9 397.7 110.9 399.6 110.25 401.7 109.65 403.75 109.75 405.5 109.9 407.2 111.05 408.05 109.05 408.4 107.8 407.2 106.6 405.95 106.0 403.75 105.4 401.6 105.35 399.1 105.4 396.65 105.8 394.4" fill="#85411e" fill-rule="evenodd" stroke="none"/>
  </g>
</svg>
