<?xml version="1.0" encoding="UTF-8" standalone="no"?>
<svg xmlns:xlink="http://www.w3.org/1999/xlink" height="9.9px" width="32.7px" xmlns="http://www.w3.org/2000/svg">
  <g transform="matrix(1.0, 0.0, 0.0, 1.0, -126.2, -471.8)">
    <path d="M127.5 474.85 L133.95 473.95 141.4 472.75 148.7 472.3 Q152.2 472.4 154.75 473.6 157.3 474.75 158.4 477.5 155.6 478.95 151.7 479.7 L143.35 480.8 134.85 481.15 127.5 481.2 Q126.55 479.15 126.7 477.2 126.8 475.85 127.5 474.85" fill="#ffffff" fill-rule="evenodd" stroke="none"/>
    <path d="M127.5 474.85 L133.95 473.95 141.4 472.75 148.7 472.3 Q152.2 472.4 154.75 473.6 157.3 474.75 158.4 477.5 155.6 478.95 151.7 479.7 L143.35 480.8 134.85 481.15 127.5 481.2 Q126.55 479.15 126.7 477.2 126.8 475.85 127.5 474.85 L127.7 474.65 128.2 474.1" fill="none" stroke="#877a7e" stroke-linecap="round" stroke-linejoin="round" stroke-width="1.0"/>
  </g>
</svg>
