<?xml version="1.0" encoding="UTF-8" standalone="no"?>
<svg xmlns:xlink="http://www.w3.org/1999/xlink" height="109.7px" width="65.1px" xmlns="http://www.w3.org/2000/svg">
  <g transform="matrix(1.0, 0.0, 0.0, 1.0, -114.1, -372.05)">
    <path d="M117.75 379.45 Q115.65 378.45 114.85 378.2 114.1 377.95 115.6 377.85 120.0 377.35 123.1 376.3 L128.55 374.35 Q130.9 373.3 133.25 372.75 135.55 372.3 138.55 372.85 147.75 373.1 153.55 375.85 159.35 378.55 162.8 382.7 166.25 386.75 168.25 391.3 L171.85 399.65 Q173.4 403.55 175.45 405.75 177.65 408.0 178.35 411.7 179.05 415.35 178.25 419.8 177.35 424.2 174.9 428.55 172.4 432.85 168.3 436.35 164.1 439.8 158.3 441.6 153.0 443.25 151.15 445.3 149.3 447.3 149.9 449.65 150.45 452.0 152.35 454.4 L156.35 459.05 Q158.5 461.35 159.8 463.3 161.1 465.2 160.5 466.65 L160.4 468.15 Q160.25 469.55 159.45 471.35 158.7 473.15 156.85 474.25 154.95 475.4 151.65 474.95 150.05 474.75 147.9 475.45 L143.1 476.95 Q140.55 477.8 137.7 477.9 134.85 478.05 132.0 476.7 129.15 475.4 126.45 471.7 123.7 468.1 121.35 461.4 120.1 457.75 120.65 454.9 121.2 452.1 122.55 449.85 123.8 447.6 125.0 445.7 126.15 443.75 126.2 441.8 126.15 435.05 126.35 430.4 L126.95 422.25 127.7 415.75 128.25 409.1 128.4 400.75 Q128.25 393.8 126.45 389.5 124.65 385.15 122.25 382.8 119.8 380.45 117.75 379.45" fill="#ffffff" fill-rule="evenodd" stroke="none"/>
    <path d="M117.75 379.45 Q119.8 380.45 122.25 382.8 124.65 385.15 126.45 389.5 128.25 393.8 128.4 400.75 L128.25 409.1 127.7 415.75 126.95 422.25 126.35 430.4 Q126.15 435.05 126.2 441.8 126.15 443.75 125.0 445.7 123.8 447.6 122.55 449.85 121.2 452.1 120.65 454.9 120.1 457.75 121.35 461.4 123.7 468.1 126.45 471.7 129.15 475.4 132.0 476.7 134.85 478.05 137.7 477.9 140.55 477.8 143.1 476.95 L147.9 475.45 Q150.05 474.75 151.65 474.95 154.95 475.4 156.85 474.25 158.7 473.15 159.45 471.35 160.25 469.55 160.4 468.15 L160.5 466.65 Q161.1 465.2 159.8 463.3 158.5 461.35 156.35 459.05 L152.35 454.4 Q150.45 452.0 149.9 449.65 149.3 447.3 151.15 445.3 153.0 443.25 158.3 441.6 164.1 439.8 168.3 436.35 172.4 432.85 174.9 428.55 177.35 424.2 178.25 419.8 179.05 415.35 178.35 411.7 177.65 408.0 175.45 405.75 173.4 403.55 171.85 399.65 L168.25 391.3 Q166.25 386.75 162.8 382.7 159.35 378.55 153.55 375.85 147.75 373.1 138.55 372.85 135.55 372.3 133.25 372.75 130.9 373.3 128.55 374.35 L123.1 376.3 Q120.0 377.35 115.6 377.85 114.1 377.95 114.85 378.2 115.65 378.45 117.75 379.45 Z" fill="none" stroke="#7f5244" stroke-linecap="round" stroke-linejoin="round" stroke-width="1.0"/>
    <path d="M115.75 379.5 Q121.15 382.0 123.9 386.5 126.7 391.0 127.6 396.95 128.5 402.85 128.3 409.55 L127.65 422.9 Q127.3 427.95 126.45 433.2 L124.8 443.7 Q123.95 449.05 123.75 454.2 123.5 459.45 124.55 464.45 125.5 469.5 128.25 474.2" fill="none" stroke="#3a3335" stroke-linecap="round" stroke-linejoin="round" stroke-width="3.0"/>
    <path d="M130.4 475.65 Q130.2 476.65 130.3 477.65 L130.5 479.65" fill="none" stroke="#877a7e" stroke-linecap="round" stroke-linejoin="round" stroke-width="1.0"/>
    <path d="M134.85 477.95 L135.3 479.6 135.8 481.25" fill="none" stroke="#877a7e" stroke-linecap="round" stroke-linejoin="round" stroke-width="1.0"/>
    <path d="M142.9 478.1 L143.6 481.2" fill="none" stroke="#877a7e" stroke-linecap="round" stroke-linejoin="round" stroke-width="1.0"/>
    <path d="M148.25 475.6 L148.85 477.7 Q149.25 478.75 149.95 479.55" fill="none" stroke="#877a7e" stroke-linecap="round" stroke-linejoin="round" stroke-width="1.0"/>
    <path d="M130.45 443.35 Q131.0 444.9 130.15 446.6 129.2 448.25 127.55 449.9 L123.9 453.2 120.4 456.35 Q118.85 457.85 118.2 459.15 117.2 461.65 117.85 464.3 118.45 467.0 120.4 468.9 122.25 470.75 125.05 470.95" fill="none" stroke="#bf0000" stroke-linecap="round" stroke-linejoin="round" stroke-width="1.0"/>
    <path d="M136.15 394.75 Q136.05 396.5 136.55 397.45 L137.75 399.1 139.2 401.3 Q140.3 404.0 139.55 406.5 138.85 409.0 137.15 411.25 L133.65 415.4 Q134.6 412.45 134.75 408.95 134.95 405.5 134.5 402.05 134.0 398.55 133.15 395.5 131.5 389.75 128.5 385.95 125.5 382.15 120.15 379.4 L122.8 379.6 127.7 378.85 132.65 377.65 137.65 377.35 Q141.25 377.95 142.15 379.85 143.05 381.7 142.2 384.05 141.3 386.45 139.6 388.55 L137.3 391.4 Q136.25 392.65 136.15 394.75" fill="#f2f2f2" fill-rule="evenodd" stroke="none"/>
    <path d="M161.0 394.5 L161.75 391.1 162.5 387.65 Q162.6 386.35 162.3 384.95 163.45 385.4 164.75 387.05 L167.7 391.45 170.55 396.7 172.7 401.65 173.75 405.15 169.0 405.0 Q166.3 403.95 164.05 401.95 161.85 399.95 161.2 398.0 160.7 396.2 161.0 394.5" fill="#e2e2e2" fill-rule="evenodd" stroke="none"/>
    <path d="M135.8 444.55 Q137.5 443.4 140.1 444.25 142.7 445.1 145.35 447.05 148.05 449.05 149.95 451.45 151.9 453.8 152.35 455.7 152.75 457.75 152.4 460.4 152.05 463.05 150.8 465.6 149.6 468.1 147.55 469.75 145.5 471.5 142.45 471.65 139.45 471.85 135.5 469.85 L136.05 468.35 137.65 465.25 139.3 461.9 140.05 459.85 Q140.05 458.3 139.15 456.9 138.3 455.5 137.05 454.25 L135.0 451.8 Q134.05 450.6 134.0 449.5 134.05 445.65 135.8 444.55" fill="#e80c0c" fill-rule="evenodd" stroke="none"/>
    <path d="M135.8 444.55 Q134.05 445.65 134.0 449.5 134.05 450.6 135.0 451.8 L137.05 454.25 Q138.3 455.5 139.15 456.9 140.05 458.3 140.05 459.85 L139.3 461.9 137.65 465.25 136.05 468.35 135.5 469.85 Q139.45 471.85 142.45 471.65 145.5 471.5 147.55 469.75 149.6 468.1 150.8 465.6 152.05 463.05 152.4 460.4 152.75 457.75 152.35 455.7 151.9 453.8 149.95 451.45 148.05 449.05 145.35 447.05 142.7 445.1 140.1 444.25 137.5 443.4 135.8 444.55 Z" fill="none" stroke="#aa0000" stroke-linecap="round" stroke-linejoin="round" stroke-width="1.0"/>
    <path d="M133.0 464.35 Q135.2 465.95 137.7 466.95 140.1 468.05 142.55 468.95 145.0 469.85 147.35 471.2 144.8 475.0 142.15 476.1 139.45 477.25 137.15 476.0 134.9 474.8 133.5 471.65 132.15 468.4 132.15 463.55 L133.0 464.35" fill="#ffffff" fill-rule="evenodd" stroke="none"/>
    <path d="M133.0 464.35 Q135.2 465.95 137.7 466.95 140.1 468.05 142.55 468.95 145.0 469.85 147.35 471.2 144.8 475.0 142.15 476.1 139.45 477.25 137.15 476.0 134.9 474.8 133.5 471.65 132.15 468.4 132.15 463.55" fill="none" stroke="#7f5244" stroke-linecap="round" stroke-linejoin="round" stroke-width="1.0"/>
    <path d="M169.2 428.0 Q171.75 428.05 175.05 426.8 L171.95 431.0 168.6 434.45 164.4 437.6 161.6 439.15 Q159.95 440.0 158.1 440.45 156.25 440.9 154.85 440.4 153.35 439.95 152.65 437.95 152.45 437.25 152.8 436.1 L153.5 433.7 153.75 431.6 152.9 428.35 151.45 425.25 Q149.3 421.65 146.45 420.15 143.6 418.6 139.6 418.75 L140.5 417.75 Q145.95 417.45 150.5 418.9 154.9 420.25 159.25 423.5 162.1 425.75 164.4 426.85 166.75 428.0 169.2 428.0" fill="#e2e2e2" fill-rule="evenodd" stroke="none"/>
  </g>
</svg>
