<?xml version="1.0" encoding="UTF-8" standalone="no"?>
<svg xmlns:xlink="http://www.w3.org/1999/xlink" height="28.3px" width="19.05px" xmlns="http://www.w3.org/2000/svg">
  <g transform="matrix(1.0, 0.0, 0.0, 1.0, -143.5, -436.9)">
    <path d="M160.8 444.6 Q161.8 445.25 162.0 446.35 162.2 447.5 161.55 448.6 160.85 449.7 159.8 449.95 158.7 450.25 157.65 449.65 L146.8 442.9 Q145.85 442.25 145.6 441.1 145.35 440.0 146.05 438.9 146.75 437.8 147.85 437.5 148.95 437.2 149.95 437.8 L160.8 444.6" fill="#ffffff" fill-rule="evenodd" stroke="none"/>
    <path d="M160.8 444.6 Q161.8 445.25 162.0 446.35 162.2 447.5 161.55 448.6 160.85 449.7 159.8 449.95 158.7 450.25 157.65 449.65 L146.8 442.9 Q145.85 442.25 145.6 441.1 145.35 440.0 146.05 438.9 146.75 437.8 147.85 437.5 148.95 437.2 149.95 437.8 L160.8 444.6 Z" fill="none" stroke="#999999" stroke-linecap="round" stroke-linejoin="round" stroke-width="1.0"/>
    <path d="M145.4 460.25 L144.45 457.3 147.4 458.35 149.85 456.55 149.75 459.6 152.25 461.45 149.3 462.3 148.3 465.2 146.55 462.7 143.5 462.65 145.4 460.25" fill="#ffffff" fill-rule="evenodd" stroke="none"/>
  </g>
</svg>
