<?xml version="1.0" encoding="UTF-8" standalone="no"?>
<svg xmlns:xlink="http://www.w3.org/1999/xlink" height="135.2px" width="130.45px" xmlns="http://www.w3.org/2000/svg">
  <g transform="matrix(1.0, 0.0, 0.0, 1.0, 12.5, -6.0)">
    <path d="M87.45 40.75 Q87.05 40.75 86.75 40.45 L86.45 39.75 Q86.45 39.35 86.75 39.05 87.05 38.75 87.45 38.75 87.85 38.75 88.15 39.05 L88.45 39.75 88.15 40.45 87.45 40.75 M102.3 53.7 Q102.0 53.4 102.0 53.0 102.0 52.6 102.3 52.3 102.6 52.0 103.0 52.0 103.4 52.0 103.7 52.3 L104.0 53.0 103.7 53.7 103.0 54.0 Q102.6 54.0 102.3 53.7 M88.15 81.7 L87.45 82.0 Q87.05 82.0 86.75 81.7 L86.45 81.0 Q86.45 80.6 86.75 80.3 87.05 80.0 87.45 80.0 87.85 80.0 88.15 80.3 L88.45 81.0 88.15 81.7 M15.45 8.0 L14.75 7.7 14.45 7.0 Q14.45 6.6 14.75 6.3 15.05 6.0 15.45 6.0 15.85 6.0 16.15 6.3 L16.45 7.0 16.15 7.7 Q15.85 8.0 15.45 8.0 M7.05 38.45 L7.35 39.15 7.05 39.85 6.35 40.15 5.65 39.85 Q5.35 39.55 5.35 39.15 5.35 38.75 5.65 38.45 5.95 38.15 6.35 38.15 6.75 38.15 7.05 38.45 M39.5 37.75 L39.3 37.65 39.25 37.5 39.3 37.3 39.5 37.25 39.65 37.3 39.75 37.5 39.65 37.65 39.5 37.75 M3.45 89.0 Q3.05 89.0 2.75 88.7 L2.45 88.0 Q2.45 87.6 2.75 87.3 3.05 87.0 3.45 87.0 3.85 87.0 4.15 87.3 L4.45 88.0 4.15 88.7 3.45 89.0 M22.55 83.7 L21.85 84.0 21.15 83.7 Q20.85 83.4 20.85 83.0 20.85 82.6 21.15 82.3 21.45 82.0 21.85 82.0 22.25 82.0 22.55 82.3 L22.85 83.0 22.55 83.7 M103.55 139.9 L103.8 139.5 Q104.1 139.2 104.5 139.2 104.9 139.2 105.2 139.5 L105.45 139.9 105.5 140.2 105.2 140.9 104.5 141.2 Q104.1 141.2 103.8 140.9 103.5 140.6 103.5 140.2 L103.55 139.9" fill="#ffffff" fill-rule="evenodd" stroke="none"/>
    <path d="M65.0 19.2 Q65.0 19.9 64.45 20.4 63.95 20.95 63.25 20.95 62.55 20.95 62.0 20.4 61.5 19.9 61.5 19.2 61.5 18.5 62.0 17.95 62.55 17.45 63.25 17.45 63.95 17.45 64.45 17.95 65.0 18.5 65.0 19.2 M6.9 28.8 L6.3 29.1 5.65 28.8 5.4 28.2 5.65 27.6 6.3 27.35 6.9 27.6 7.15 28.2 6.9 28.8 M4.55 98.25 Q4.55 98.95 4.0 99.45 3.5 100.0 2.8 100.0 2.1 100.0 1.55 99.45 1.05 98.95 1.05 98.25 1.05 97.55 1.55 97.0 2.1 96.5 2.8 96.5 3.5 96.5 4.0 97.0 4.55 97.55 4.55 98.25 M104.8 107.25 L104.5 108.0 103.75 108.3 Q103.35 108.3 103.0 108.0 102.7 107.65 102.7 107.25 102.7 106.85 103.0 106.5 103.35 106.2 103.75 106.2 104.15 106.2 104.5 106.5 L104.8 107.25 M-8.5 134.5 Q-8.5 135.2 -9.05 135.7 -9.55 136.25 -10.25 136.25 -10.95 136.25 -11.5 135.7 -12.0 135.2 -12.0 134.5 -12.0 133.8 -11.5 133.25 -10.95 132.75 -10.25 132.75 -9.55 132.75 -9.05 133.25 -8.5 133.8 -8.5 134.5" fill="none" stroke="#ffffff" stroke-linecap="round" stroke-linejoin="round" stroke-width="1.0"/>
    <path d="M62.2 27.4 L62.5 28.1 62.2 28.8 Q61.9 29.1 61.5 29.1 L60.8 28.8 Q60.5 28.5 60.5 28.1 60.5 27.7 60.8 27.4 61.1 27.1 61.5 27.1 61.9 27.1 62.2 27.4" fill="#ffffff" fill-rule="evenodd" stroke="none"/>
    <path d="M21.2 12.05 L21.25 14.65 24.25 14.8 25.6 15.0 24.25 15.15 21.3 15.2 21.2 18.5 21.15 18.95 21.05 19.85 20.9 18.95 20.85 18.5 20.8 15.25 17.8 15.15 16.45 15.0 17.8 14.8 20.8 14.7 20.85 12.05 20.95 11.05 21.05 10.7 21.15 11.05 21.2 12.05" fill="#ffffff" fill-opacity="0.67058825" fill-rule="evenodd" stroke="none"/>
    <path d="M86.85 58.55 L79.85 58.65 79.65 66.4 79.6 67.45 79.25 69.55 Q79.05 69.55 78.9 67.45 L78.85 66.4 78.65 58.7 71.65 58.55 68.45 58.15 71.65 57.7 78.65 57.45 78.85 51.15 79.0 48.8 79.25 48.0 79.5 48.8 79.65 51.15 79.8 57.35 86.85 57.7 90.0 58.15 86.85 58.55" fill="#ffffff" fill-opacity="0.67058825" fill-rule="evenodd" stroke="none"/>
    <path d="M87.55 17.5 L91.3 17.7 93.0 17.9 91.3 18.1 87.55 18.15 87.45 22.3 87.45 22.85 87.25 24.0 87.1 22.85 87.05 22.3 86.95 18.2 83.2 18.1 81.5 17.9 83.2 17.7 86.95 17.55 87.05 14.2 87.15 12.9 87.25 12.5 87.4 12.9 87.45 14.2 87.55 17.5" fill="#ffffff" fill-opacity="0.67058825" fill-rule="evenodd" stroke="none"/>
    <path d="M42.85 37.65 L39.75 37.7 39.7 41.1 39.65 41.55 39.5 42.5 39.35 41.55 39.35 41.1 39.25 37.7 36.15 37.65 34.75 37.45 36.15 37.3 39.25 37.15 39.35 34.4 39.4 33.35 39.5 33.0 39.6 33.35 39.7 34.4 39.75 37.1 42.85 37.3 44.25 37.45 42.85 37.65" fill="#ffffff" fill-opacity="0.67058825" fill-rule="evenodd" stroke="none"/>
    <path d="M8.65 110.05 L10.85 110.35 8.65 110.6 3.65 110.7 3.55 116.15 3.5 116.9 3.25 118.4 Q3.1 118.4 3.0 116.9 L2.95 116.15 2.85 110.75 -2.15 110.6 -4.4 110.35 -2.15 110.05 2.85 109.85 2.95 105.4 3.1 103.7 3.25 103.15 3.4 103.7 3.55 105.4 3.65 109.75 8.65 110.05" fill="#ffffff" fill-opacity="0.67058825" fill-rule="evenodd" stroke="none"/>
    <path d="M21.65 64.55 L16.65 64.65 16.55 70.1 16.5 70.85 16.25 72.35 Q16.1 72.35 16.0 70.85 L15.95 70.1 15.85 64.7 10.85 64.55 8.6 64.3 10.85 64.0 15.85 63.8 15.95 59.35 16.1 57.65 16.25 57.1 16.4 57.65 16.55 59.35 16.65 63.7 21.65 64.0 23.85 64.3 21.65 64.55" fill="#ffffff" fill-opacity="0.67058825" fill-rule="evenodd" stroke="none"/>
    <path d="M110.65 110.55 L110.75 114.9 115.75 115.2 117.95 115.5 115.75 115.75 110.75 115.85 110.65 121.3 110.6 122.05 110.35 123.55 Q110.2 123.55 110.1 122.05 L110.05 121.3 109.95 115.9 104.95 115.75 102.7 115.5 104.95 115.2 109.95 115.0 110.05 110.55 110.2 108.85 110.35 108.3 110.5 108.85 110.65 110.55" fill="#ffffff" fill-opacity="0.67058825" fill-rule="evenodd" stroke="none"/>
    <path d="M99.85 36.75 L102.95 36.65 103.0 33.9 103.1 32.85 103.2 32.5 103.3 32.85 103.35 33.9 103.45 36.6 106.55 36.75 107.9 36.95 106.55 37.1 103.45 37.15 103.35 40.55 103.35 41.05 103.2 41.95 103.05 41.05 103.0 40.55 102.95 37.2 99.85 37.1 98.45 36.95 99.85 36.75" fill="#ffffff" fill-opacity="0.67058825" fill-rule="evenodd" stroke="none"/>
  </g>
</svg>
