<?xml version="1.0" encoding="UTF-8" standalone="no"?>
<svg xmlns:xlink="http://www.w3.org/1999/xlink" height="149.3px" width="48.75px" xmlns="http://www.w3.org/2000/svg">
  <g transform="matrix(1.0, 0.0, 0.0, 1.0, -48.5, -366.3)">
    <path d="M63.0 494.2 Q62.25 496.8 62.5 499.85 62.6 501.45 63.0 502.75 63.35 504.1 64.5 505.2 65.6 506.3 68.1 507.25 69.15 507.7 69.85 508.8 70.5 509.85 70.6 511.2 70.7 512.6 70.1 513.85 69.65 514.55 67.8 514.8 L63.4 515.1 58.7 514.9 55.35 514.4 Q53.45 513.75 52.2 510.55 50.95 507.35 50.85 502.65 50.75 497.9 52.3 492.7 L53.25 489.9 54.1 486.2 54.75 486.6 56.2 487.35 59.3 488.15 65.1 488.75 Q63.8 491.65 63.0 494.2" fill="#ffffff" fill-rule="evenodd" stroke="none"/>
    <path d="M63.0 494.2 Q62.25 496.8 62.5 499.85 62.6 501.45 63.0 502.75 63.35 504.1 64.5 505.2 65.6 506.3 68.1 507.25 69.15 507.7 69.85 508.8 70.5 509.85 70.6 511.2 70.7 512.6 70.1 513.85 69.65 514.55 67.8 514.8 L63.4 515.1 58.7 514.9 55.35 514.4 Q53.45 513.75 52.2 510.55 50.95 507.35 50.85 502.65 50.75 497.9 52.3 492.7 L53.25 489.9 54.1 486.2 54.75 486.6 56.2 487.35 59.3 488.15 65.1 488.75 Q63.8 491.65 63.0 494.2 Z" fill="none" stroke="#877a7e" stroke-linecap="round" stroke-linejoin="round" stroke-width="1.0"/>
    <path d="M62.2 482.0 Q62.25 482.95 63.0 483.55 L64.6 484.7 Q65.45 485.3 65.7 486.25 L65.4 488.25 64.6 491.0 Q64.15 492.35 64.2 492.9 L64.1 494.9 63.65 497.75 63.35 499.75 Q63.25 501.2 63.55 501.8 L64.25 502.8 64.95 503.8 Q65.25 504.45 65.15 505.85 L62.4 506.3 58.55 506.5 54.7 506.4 51.95 505.9 Q50.05 505.05 49.7 503.1 49.4 501.1 49.65 498.9 L49.8 495.05 Q49.75 494.55 50.05 494.2 L50.7 493.6 Q51.0 493.3 50.9 492.9 50.15 492.6 49.8 492.0 49.7 491.55 50.1 491.1 L50.45 490.15 50.35 488.0 50.6 484.9 50.95 481.75 51.3 479.6 Q51.4 478.7 50.85 478.3 50.35 477.95 49.8 477.85 L50.05 477.85 Q51.5 477.9 53.4 478.75 L57.2 480.5 Q59.1 481.4 60.55 481.45 L62.2 482.0" fill="#106189" fill-rule="evenodd" stroke="none"/>
    <path d="M62.2 482.0 Q62.25 482.95 63.0 483.55 L64.6 484.7 Q65.45 485.3 65.7 486.25 L65.4 488.25 64.6 491.0 Q64.15 492.35 64.2 492.9 L64.1 494.9 63.65 497.75 63.35 499.75 Q63.25 501.2 63.55 501.8 L64.25 502.8 64.95 503.8 Q65.25 504.45 65.15 505.85 L62.4 506.3 58.55 506.5 54.7 506.4 51.95 505.9 Q50.05 505.05 49.7 503.1 49.4 501.1 49.65 498.9 L49.8 495.05 Q49.75 494.55 50.05 494.2 L50.7 493.6 Q51.0 493.3 50.9 492.9 50.15 492.6 49.8 492.0 49.7 491.55 50.1 491.1 L50.45 490.15 50.35 488.0 50.6 484.9 50.95 481.75 51.3 479.6 Q51.4 478.7 50.85 478.3 50.35 477.95 49.8 477.85 L49.7 477.85 49.0 477.8 M49.8 477.85 L50.05 477.85 Q51.5 477.9 53.4 478.75 L57.2 480.5 Q59.1 481.4 60.55 481.45" fill="none" stroke="#6c91ad" stroke-linecap="round" stroke-linejoin="round" stroke-width="1.0"/>
    <path d="M60.85 503.65 Q61.5 503.9 62.05 504.6 62.6 505.3 62.6 506.05 L62.45 506.9 Q62.3 507.1 61.95 507.15 L61.05 507.5 Q59.75 508.25 58.3 508.85 L55.35 509.0 Q54.55 508.7 53.9 507.75 53.25 506.8 53.1 505.7 53.0 504.65 53.8 503.95 54.55 503.45 55.75 503.6 L58.2 503.85 Q59.45 503.95 60.45 503.25 L60.85 503.65" fill="#ffffff" fill-rule="evenodd" stroke="none"/>
    <path d="M60.45 503.25 Q59.45 503.95 58.2 503.85 L55.75 503.6 Q54.55 503.45 53.8 503.95 53.0 504.65 53.1 505.7 53.25 506.8 53.9 507.75 54.55 508.7 55.35 509.0 L58.3 508.85 Q59.75 508.25 61.05 507.5 L61.95 507.15 Q62.3 507.1 62.45 506.9 L62.6 506.05 Q62.6 505.3 62.05 504.6 61.5 503.9 60.85 503.65" fill="none" stroke="#877a7e" stroke-linecap="round" stroke-linejoin="round" stroke-width="1.0"/>
    <path d="M65.45 503.4 Q66.85 502.4 67.75 503.0 68.65 503.65 68.55 504.85 68.45 506.05 66.9 506.8" fill="none" stroke="#877a7e" stroke-linecap="round" stroke-linejoin="round" stroke-width="1.0"/>
    <path d="M67.25 366.8 Q71.85 369.15 75.85 372.3 79.85 375.4 82.8 379.3 85.7 383.2 87.1 387.85 88.1 391.5 88.15 395.45 L88.25 403.3 Q88.3 407.2 89.45 410.7 90.05 412.3 91.05 413.1 L93.15 414.5 95.1 415.75 Q96.0 416.45 96.45 417.85 97.35 421.4 95.5 424.8 93.65 428.15 90.15 431.0 86.15 434.25 81.2 435.15 76.25 436.0 71.2 434.95 66.15 433.9 61.9 431.35 L67.25 366.8" fill="#fff7f3" fill-rule="evenodd" stroke="none"/>
    <path d="M67.25 366.8 Q71.85 369.15 75.85 372.3 79.85 375.4 82.8 379.3 85.7 383.2 87.1 387.85 88.1 391.5 88.15 395.45 L88.25 403.3 Q88.3 407.2 89.45 410.7 90.05 412.3 91.05 413.1 L93.15 414.5 95.1 415.75 Q96.0 416.45 96.45 417.85 97.35 421.4 95.5 424.8 93.65 428.15 90.15 431.0 86.15 434.25 81.2 435.15 76.25 436.0 71.2 434.95 66.15 433.9 61.9 431.35" fill="none" stroke="#7f5c40" stroke-linecap="round" stroke-linejoin="round" stroke-width="1.0"/>
    <path d="M80.25 411.7 L82.8 411.5 Q83.95 411.25 85.05 409.95 L84.55 411.1 Q84.65 410.95 84.9 410.9 85.25 410.85 85.65 411.45 L84.5 411.9 85.65 411.75 85.95 411.7 87.25 411.45 M84.4 411.25 L84.55 411.1 84.4 411.2 84.4 411.25 M85.65 411.75 L84.3 412.0 84.5 411.9 83.6 411.9 85.25 412.6 86.95 413.25 84.45 413.55 82.1 412.25" fill="none" stroke="#000000" stroke-linecap="round" stroke-linejoin="round" stroke-width="1.0"/>
  </g>
</svg>
