<?xml version="1.0" encoding="UTF-8" standalone="no"?>
<svg xmlns:xlink="http://www.w3.org/1999/xlink" height="149.05px" width="52.85px" xmlns="http://www.w3.org/2000/svg">
  <g transform="matrix(1.0, 0.0, 0.0, 1.0, -46.25, -366.6)">
    <path d="M61.7 494.25 Q61.15 496.85 61.55 499.85 61.7 501.45 62.2 502.75 62.65 504.05 63.85 505.1 65.0 506.1 67.6 506.9 68.65 507.3 69.4 508.35 70.15 509.35 70.3 510.7 70.5 512.1 70.0 513.4 69.6 514.1 67.75 514.5 L63.35 515.05 58.7 515.15 55.3 514.85 Q53.4 514.3 51.95 511.2 50.5 508.05 50.1 503.35 49.7 498.65 50.95 493.4 L51.7 490.5 52.35 486.75 53.0 487.15 54.5 487.8 57.65 488.4 63.45 488.65 Q62.3 491.65 61.7 494.25" fill="#ffffff" fill-rule="evenodd" stroke="none"/>
    <path d="M61.7 494.25 Q61.15 496.85 61.55 499.85 61.7 501.45 62.2 502.75 62.65 504.05 63.85 505.1 65.0 506.1 67.6 506.9 68.65 507.3 69.4 508.35 70.15 509.35 70.3 510.7 70.5 512.1 70.0 513.4 69.6 514.1 67.75 514.5 L63.35 515.05 58.7 515.15 55.3 514.85 Q53.4 514.3 51.95 511.2 50.5 508.05 50.1 503.35 49.7 498.65 50.95 493.4 L51.7 490.5 52.35 486.75 53.0 487.15 54.5 487.8 57.65 488.4 63.45 488.65 Q62.3 491.65 61.7 494.25 Z" fill="none" stroke="#877a7e" stroke-linecap="round" stroke-linejoin="round" stroke-width="1.0"/>
    <path d="M58.45 481.65 L60.15 482.1 Q60.25 483.05 61.05 483.6 L62.7 484.65 Q63.6 485.2 63.9 486.15 64.05 486.75 63.7 488.15 L63.1 490.9 Q62.7 492.3 62.8 492.85 L62.85 494.85 62.55 497.7 62.4 499.75 Q62.35 501.2 62.7 501.8 L63.45 502.75 64.2 503.7 Q64.55 504.3 64.55 505.75 L61.85 506.35 58.05 506.8 54.2 506.9 51.4 506.6 Q49.45 505.85 49.0 503.95 48.55 501.95 48.65 499.75 48.85 497.45 48.6 495.85 48.5 495.35 48.8 495.0 L49.4 494.35 49.55 493.65 48.4 492.8 Q48.25 492.4 48.65 491.9 49.0 491.45 48.95 490.95 48.75 490.25 48.7 488.85 L48.75 485.7 48.9 482.55 49.15 480.4 Q49.2 479.45 48.6 479.1 L47.55 478.7 47.8 478.7 Q49.25 478.65 51.2 479.4 L55.1 480.9 Q57.05 481.7 58.45 481.65" fill="#106189" fill-rule="evenodd" stroke="none"/>
    <path d="M60.15 482.1 Q60.25 483.05 61.05 483.6 L62.7 484.65 Q63.6 485.2 63.9 486.15 64.05 486.75 63.7 488.15 L63.1 490.9 Q62.7 492.3 62.8 492.85 L62.85 494.85 62.55 497.7 62.4 499.75 Q62.35 501.2 62.7 501.8 L63.45 502.75 64.2 503.7 Q64.55 504.3 64.55 505.75 L61.85 506.35 58.05 506.8 54.2 506.9 51.4 506.6 Q49.45 505.85 49.0 503.95 48.55 501.95 48.65 499.75 48.85 497.45 48.6 495.85 48.5 495.35 48.8 495.0 L49.4 494.35 49.55 493.65 48.4 492.8 Q48.25 492.4 48.65 491.9 49.0 491.45 48.95 490.95 48.75 490.25 48.7 488.85 L48.75 485.7 48.9 482.55 49.15 480.4 Q49.2 479.45 48.6 479.1 L47.55 478.7 47.45 478.75 46.75 478.7 M47.55 478.7 L47.8 478.7 Q49.25 478.65 51.2 479.4 L55.1 480.9 Q57.05 481.7 58.45 481.65" fill="none" stroke="#6c91ad" stroke-linecap="round" stroke-linejoin="round" stroke-width="1.0"/>
    <path d="M60.15 503.8 Q60.8 504.0 61.4 504.65 62.0 505.35 62.05 506.1 L61.95 506.95 61.45 507.25 Q61.15 507.3 60.6 507.65 L57.9 509.15 55.0 509.5 Q54.15 509.25 53.45 508.3 52.75 507.4 52.5 506.3 52.35 505.3 53.1 504.55 53.85 504.0 55.05 504.05 L57.5 504.15 Q58.75 504.2 59.7 503.4 L60.15 503.8" fill="#ffffff" fill-rule="evenodd" stroke="none"/>
    <path d="M59.7 503.4 Q58.75 504.2 57.5 504.15 L55.05 504.05 Q53.85 504.0 53.1 504.55 52.35 505.3 52.5 506.3 52.75 507.4 53.45 508.3 54.15 509.25 55.0 509.5 L57.9 509.15 60.6 507.65 Q61.15 507.3 61.45 507.25 L61.95 506.95 62.05 506.1 Q62.0 505.35 61.4 504.65 60.8 504.0 60.15 503.8" fill="none" stroke="#877a7e" stroke-linecap="round" stroke-linejoin="round" stroke-width="1.0"/>
    <path d="M64.65 503.25 Q66.0 502.15 66.95 502.7 67.9 503.3 67.85 504.5 67.85 505.7 66.35 506.55" fill="none" stroke="#877a7e" stroke-linecap="round" stroke-linejoin="round" stroke-width="1.0"/>
    <path d="M70.85 367.1 Q75.35 369.6 79.25 372.85 83.15 376.1 86.0 380.1 88.75 384.05 90.0 388.75 90.9 392.45 90.8 396.4 L90.65 404.2 Q90.6 408.1 91.6 411.65 92.15 413.25 93.15 414.1 L95.2 415.55 97.1 416.85 Q98.0 417.6 98.4 419.0 99.15 422.6 97.2 425.95 95.25 429.25 91.65 431.95 87.55 435.1 82.6 435.85 L72.6 435.3 Q67.6 434.1 63.4 431.4 L70.85 367.1" fill="#fff7f3" fill-rule="evenodd" stroke="none"/>
    <path d="M70.85 367.1 Q75.35 369.6 79.25 372.85 83.15 376.1 86.0 380.1 88.75 384.05 90.0 388.75 90.9 392.45 90.8 396.4 L90.65 404.2 Q90.6 408.1 91.6 411.65 92.15 413.25 93.15 414.1 L95.2 415.55 97.1 416.85 Q98.0 417.6 98.4 419.0 99.15 422.6 97.2 425.95 95.25 429.25 91.65 431.95 87.55 435.1 82.6 435.85 L72.6 435.3 Q67.6 434.1 63.4 431.4" fill="none" stroke="#7f5c40" stroke-linecap="round" stroke-linejoin="round" stroke-width="1.0"/>
    <path d="M89.35 412.35 L88.55 412.5 88.25 412.55 86.35 412.85 86.6 412.75 85.7 412.7 Q86.5 413.0 87.3 413.45 88.15 413.9 89.0 414.15 L86.45 414.4 84.15 413.0 M82.35 412.4 L84.9 412.3 Q86.05 412.05 87.2 410.8 L86.65 411.95 Q86.75 411.8 87.0 411.75 87.35 411.7 87.75 412.3 87.15 412.45 86.6 412.75 L87.75 412.6 88.25 412.55 M86.65 411.95 L86.5 412.05 86.5 412.1 86.65 411.95" fill="none" stroke="#000000" stroke-linecap="round" stroke-linejoin="round" stroke-width="1.0"/>
  </g>
</svg>
