<?xml version="1.0" encoding="UTF-8" standalone="no"?>
<svg xmlns:xlink="http://www.w3.org/1999/xlink" height="71.3px" width="32.2px" xmlns="http://www.w3.org/2000/svg">
  <g transform="matrix(1.0, 0.0, 0.0, 1.0, -98.65, -376.5)">
    <path d="M127.85 447.3 Q125.95 443.85 124.05 442.1 122.2 440.35 120.3 439.65 118.45 438.95 116.45 438.75 L112.25 438.0 Q110.05 437.45 107.55 436.1 105.05 434.7 102.15 431.8 100.55 430.05 99.85 427.5 99.15 424.85 99.15 422.35 99.15 419.95 99.75 418.5 100.2 417.4 101.0 417.15 L102.75 416.4 Q103.65 415.85 104.6 414.05 105.55 411.95 105.55 410.05 L105.55 405.95 Q105.55 403.8 106.25 401.05 107.0 398.25 109.25 394.6 112.85 388.85 118.15 384.25 123.45 379.75 130.35 377.0 L127.85 447.3" fill="#fff7f3" fill-rule="evenodd" stroke="none"/>
    <path d="M130.35 377.0 Q123.45 379.75 118.15 384.25 112.85 388.85 109.25 394.6 107.0 398.25 106.25 401.05 105.55 403.8 105.55 405.95 L105.55 410.05 Q105.55 411.95 104.6 414.05 103.65 415.85 102.75 416.4 L101.0 417.15 Q100.2 417.4 99.75 418.5 99.15 419.95 99.15 422.35 99.15 424.85 99.85 427.5 100.55 430.05 102.15 431.8 105.05 434.7 107.55 436.1 110.05 437.45 112.25 438.0 L116.45 438.75 Q118.45 438.95 120.3 439.65 122.2 440.35 124.05 442.1 125.95 443.85 127.85 447.3" fill="none" stroke="#7f5c40" stroke-linecap="round" stroke-linejoin="round" stroke-width="1.0"/>
  </g>
</svg>
