<?xml version="1.0" encoding="UTF-8" standalone="no"?>
<svg xmlns:xlink="http://www.w3.org/1999/xlink" height="63.8px" width="60.9px" xmlns="http://www.w3.org/2000/svg">
  <g transform="matrix(1.0, 0.0, 0.0, 1.0, -102.15, -381.0)">
    <path d="M104.85 392.8 Q105.55 390.7 106.5 389.5 L108.5 387.45 106.0 388.6 Q103.65 389.65 102.15 389.85 104.65 386.55 107.95 384.75 111.3 382.85 114.65 382.1 118.0 381.25 120.5 381.1 L124.8 381.0 129.4 381.5 Q131.65 381.85 133.3 382.85 134.85 383.75 135.8 384.05 L137.85 384.55 140.65 385.05 Q144.05 385.8 146.65 387.4 149.15 389.0 151.4 391.5 L156.05 397.35 Q157.45 399.25 158.7 400.25 L160.8 402.4 Q161.7 403.5 162.1 405.75 L162.7 409.4 163.05 413.6 Q163.1 415.7 162.75 417.35 162.05 419.85 159.85 421.85 157.7 423.95 155.15 425.65 152.6 427.4 150.65 429.05 L144.05 435.0 Q140.75 438.0 137.85 441.15 135.65 443.45 133.25 443.9 L129.0 444.0 127.2 443.6 125.95 444.2 122.35 444.8 Q119.95 444.95 116.5 443.9 113.1 442.95 108.7 440.0 L111.75 439.75 Q112.7 439.65 113.55 439.1 L115.9 437.15 116.6 436.35 113.8 437.8 Q111.25 438.9 108.7 439.2 106.15 439.5 104.25 438.55 108.95 437.8 111.8 436.15 114.65 434.55 116.1 432.3 117.6 430.0 118.2 427.2 118.8 424.4 118.9 421.25 117.75 412.65 118.5 406.95 117.25 408.3 116.75 409.45 116.25 410.65 117.25 412.05 115.8 411.15 114.4 408.8 113.05 406.5 112.2 403.6 111.35 400.65 111.4 398.0 111.5 395.3 112.9 393.8 111.75 394.9 110.6 396.7 109.4 398.5 108.6 400.55 107.8 402.55 107.75 404.3 107.7 406.0 108.8 406.9 106.75 407.05 105.6 405.75 104.55 404.4 104.15 402.2 103.75 400.0 103.95 397.5 104.2 395.0 104.85 392.8" fill="#85411e" fill-rule="evenodd" stroke="none"/>
  </g>
</svg>
