<?xml version="1.0" encoding="UTF-8" standalone="no"?>
<svg xmlns:xlink="http://www.w3.org/1999/xlink" height="25.8px" width="55.4px" xmlns="http://www.w3.org/2000/svg">
  <g transform="matrix(1.0, 0.0, 0.0, 1.0, -12.5, -126.95)">
    <path d="M57.45 129.45 Q68.9 133.35 67.8 139.85 68.95 146.25 57.45 150.2 50.3 152.75 40.2 152.75 30.05 152.75 22.95 150.2 11.4 146.25 12.6 139.85 11.45 133.35 22.95 129.45 L23.0 129.45 Q30.1 126.95 40.2 126.95 50.25 126.95 57.4 129.45 L57.45 129.45 M57.05 130.1 L57.1 130.1 Q50.1 127.65 40.2 127.65 30.25 127.65 23.25 130.1 L23.3 130.1 Q12.45 133.75 13.45 139.85 12.45 145.8 23.25 149.55 30.25 152.0 40.2 152.0 50.1 152.0 57.1 149.55 67.95 145.8 66.95 139.85 67.95 133.75 57.05 130.1" fill="#9d9da1" fill-opacity="0.05882353" fill-rule="evenodd" stroke="none"/>
    <path d="M57.05 130.1 Q67.95 133.75 66.95 139.85 67.95 145.8 57.1 149.55 50.1 152.0 40.2 152.0 30.25 152.0 23.25 149.55 12.45 145.8 13.45 139.85 12.45 133.75 23.3 130.1 L23.25 130.1 Q30.25 127.65 40.2 127.65 50.1 127.65 57.1 130.1 L57.05 130.1 M56.75 130.8 L56.8 130.8 Q49.95 128.4 40.2 128.4 30.45 128.4 23.6 130.8 L23.65 130.8 Q13.45 134.2 14.3 139.85 13.45 145.35 23.6 148.85 30.45 151.25 40.2 151.25 49.95 151.25 56.8 148.85 66.9 145.35 66.05 139.85 66.9 134.2 56.75 130.8" fill="#9d9da1" fill-opacity="0.12156863" fill-rule="evenodd" stroke="none"/>
    <path d="M56.75 130.8 Q66.9 134.2 66.05 139.85 66.9 145.35 56.8 148.85 49.95 151.25 40.2 151.25 30.45 151.25 23.6 148.85 13.45 145.35 14.3 139.85 13.45 134.2 23.65 130.8 L23.6 130.8 Q30.45 128.4 40.2 128.4 49.95 128.4 56.8 130.8 L56.75 130.8 M56.45 131.45 L56.45 131.5 Q49.75 129.15 40.2 129.15 30.65 129.15 23.9 131.5 L23.95 131.45 Q14.45 134.65 15.2 139.85 14.45 144.95 23.9 148.2 30.65 150.5 40.2 150.55 49.75 150.5 56.45 148.2 65.95 144.95 65.25 139.85 65.95 134.65 56.45 131.45" fill="#9d9da1" fill-opacity="0.18039216" fill-rule="evenodd" stroke="none"/>
    <path d="M56.45 131.45 Q65.95 134.65 65.25 139.85 65.95 144.95 56.45 148.2 49.75 150.5 40.2 150.55 30.65 150.5 23.9 148.2 14.45 144.95 15.2 139.85 14.45 134.65 23.95 131.45 L23.9 131.5 Q30.65 129.15 40.2 129.15 49.75 129.15 56.45 131.5 L56.45 131.45 M64.35 139.85 Q64.9 135.1 56.15 132.15 49.5 129.85 40.2 129.85 30.85 129.85 24.25 132.15 L24.3 132.15 Q15.5 135.1 16.05 139.85 15.5 144.5 24.25 147.55 30.85 149.8 40.2 149.8 49.5 149.8 56.15 147.55 64.9 144.5 64.35 139.85" fill="#9d9da1" fill-opacity="0.24313726" fill-rule="evenodd" stroke="none"/>
    <path d="M64.35 139.85 Q64.9 144.5 56.15 147.55 49.5 149.8 40.2 149.8 30.85 149.8 24.25 147.55 15.5 144.5 16.05 139.85 15.5 135.1 24.3 132.15 L24.25 132.15 Q30.85 129.85 40.2 129.85 49.5 129.85 56.15 132.15 64.9 135.1 64.35 139.85 M63.5 139.85 Q63.9 135.55 55.8 132.8 49.35 130.55 40.2 130.6 31.05 130.55 24.55 132.8 L24.6 132.8 Q16.5 135.55 16.9 139.85 16.45 144.05 24.55 146.85 31.05 149.1 40.2 149.1 49.35 149.1 55.8 146.85 63.95 144.05 63.5 139.85" fill="#9d9da1" fill-opacity="0.30588236" fill-rule="evenodd" stroke="none"/>
    <path d="M63.5 139.85 Q63.95 144.05 55.8 146.85 49.35 149.1 40.2 149.1 31.05 149.1 24.55 146.85 16.45 144.05 16.9 139.85 16.5 135.55 24.6 132.8 L24.55 132.8 Q31.05 130.55 40.2 130.6 49.35 130.55 55.8 132.8 63.9 135.55 63.5 139.85 M62.6 139.85 Q62.9 135.95 55.5 133.5 49.15 131.3 40.2 131.3 31.25 131.3 24.9 133.5 L24.95 133.5 Q17.5 135.95 17.75 139.85 17.5 143.65 24.9 146.2 31.25 148.35 40.2 148.35 49.15 148.35 55.5 146.2 62.9 143.65 62.6 139.85" fill="#9d9da1" fill-opacity="0.3647059" fill-rule="evenodd" stroke="none"/>
    <path d="M62.6 139.85 Q62.9 143.65 55.5 146.2 49.15 148.35 40.2 148.35 31.25 148.35 24.9 146.2 17.5 143.65 17.75 139.85 17.5 135.95 24.95 133.5 L24.9 133.5 Q31.25 131.3 40.2 131.3 49.15 131.3 55.5 133.5 62.9 135.95 62.6 139.85 M55.15 145.5 Q61.9 143.15 61.8 139.85 61.9 136.45 55.15 134.15 48.95 132.05 40.2 132.05 31.4 132.05 25.2 134.15 18.45 136.45 18.65 139.85 18.5 143.15 25.2 145.5 31.4 147.6 40.2 147.65 48.95 147.6 55.15 145.5" fill="#9d9da1" fill-opacity="0.42745098" fill-rule="evenodd" stroke="none"/>
    <path d="M55.15 145.5 Q48.95 147.6 40.2 147.65 31.4 147.6 25.2 145.5 18.5 143.15 18.65 139.85 18.45 136.45 25.2 134.15 31.4 132.05 40.2 132.05 48.95 132.05 55.15 134.15 61.9 136.45 61.8 139.85 61.9 143.15 55.15 145.5" fill="#9d9da1" fill-opacity="0.49019608" fill-rule="evenodd" stroke="none"/>
  </g>
</svg>
