<?xml version="1.0" encoding="UTF-8" standalone="no"?>
<svg xmlns:xlink="http://www.w3.org/1999/xlink" height="71.15px" width="33.8px" xmlns="http://www.w3.org/2000/svg">
  <g transform="matrix(1.0, 0.0, 0.0, 1.0, -102.55, -375.9)">
    <path d="M130.9 446.55 Q129.1 443.0 127.25 441.2 125.5 439.35 123.6 438.6 121.75 437.9 119.75 437.55 L115.6 436.75 Q113.5 436.1 111.0 434.65 108.55 433.15 105.7 430.15 104.2 428.35 103.6 425.75 102.95 423.15 103.05 420.65 103.15 418.15 103.8 416.75 104.3 415.65 105.1 415.45 L106.85 414.75 Q107.8 414.25 108.85 412.5 109.85 410.5 109.9 408.55 L110.1 404.45 Q110.15 402.3 110.95 399.55 111.8 396.8 114.15 393.2 117.9 387.65 123.4 383.25 128.85 378.9 135.85 376.4 L130.9 446.55" fill="#fff7f3" fill-rule="evenodd" stroke="none"/>
    <path d="M135.85 376.4 Q128.85 378.9 123.4 383.25 117.9 387.65 114.15 393.2 111.8 396.8 110.95 399.55 110.15 402.3 110.1 404.45 L109.9 408.55 Q109.85 410.5 108.85 412.5 107.8 414.25 106.85 414.75 L105.1 415.45 Q104.3 415.65 103.8 416.75 103.15 418.15 103.05 420.65 102.95 423.15 103.6 425.75 104.2 428.35 105.7 430.15 108.55 433.15 111.0 434.65 113.5 436.1 115.6 436.75 L119.75 437.55 Q121.75 437.9 123.6 438.6 125.5 439.35 127.25 441.2 129.1 443.0 130.9 446.55" fill="none" stroke="#7f5c40" stroke-linecap="round" stroke-linejoin="round" stroke-width="1.0"/>
  </g>
</svg>
