<?xml version="1.0" encoding="UTF-8" standalone="no"?>
<svg xmlns:xlink="http://www.w3.org/1999/xlink" height="63.7px" width="60.0px" xmlns="http://www.w3.org/2000/svg">
  <g transform="matrix(1.0, 0.0, 0.0, 1.0, -107.15, -380.15)">
    <path d="M117.75 392.5 Q116.55 393.6 115.3 395.35 114.15 397.1 113.25 399.1 112.35 401.1 112.25 402.85 112.15 404.5 113.2 405.5 111.2 405.6 110.1 404.2 109.0 402.8 108.75 400.65 108.4 398.4 108.7 395.9 109.05 393.4 109.75 391.25 110.5 389.15 111.5 388.0 L113.6 386.05 Q112.35 386.6 111.05 387.1 108.7 388.05 107.15 388.2 109.75 385.05 113.15 383.3 116.5 381.55 119.9 380.9 L125.8 380.15 130.1 380.2 134.7 380.85 Q136.9 381.3 138.55 382.35 140.05 383.3 141.0 383.6 L143.0 384.2 145.85 384.8 Q149.15 385.65 151.7 387.35 154.15 389.05 156.35 391.55 158.45 394.15 160.75 397.6 L163.25 400.6 165.3 402.8 Q166.15 404.0 166.5 406.2 L166.95 409.95 167.15 414.1 Q167.15 416.25 166.7 417.85 165.95 420.35 163.65 422.3 L158.85 425.85 Q156.25 427.5 154.25 429.15 L147.45 434.85 Q144.0 437.65 141.05 440.75 138.75 442.95 136.35 443.3 133.85 443.65 132.1 443.3 L130.3 442.8 129.0 443.35 125.4 443.85 Q123.0 443.9 119.6 442.75 116.2 441.65 111.9 438.55 L115.0 438.45 116.8 437.8 119.2 435.95 119.95 435.25 117.1 436.5 Q114.5 437.55 111.9 437.75 109.45 437.95 107.55 436.95 112.2 436.35 115.15 434.85 118.05 433.4 119.6 431.15 121.2 428.9 121.85 426.1 122.55 423.35 122.8 420.2 121.95 411.6 122.9 405.85 121.55 407.2 121.05 408.35 120.5 409.5 121.45 410.95 120.05 410.0 118.7 407.65 117.45 405.2 116.7 402.3 115.95 399.3 116.1 396.65 116.3 393.95 117.75 392.5" fill="#85411e" fill-rule="evenodd" stroke="none"/>
  </g>
</svg>
