<?xml version="1.0" encoding="UTF-8" standalone="no"?>
<svg xmlns:xlink="http://www.w3.org/1999/xlink" height="94.15px" width="56.0px" xmlns="http://www.w3.org/2000/svg">
  <g transform="matrix(1.0, 0.0, 0.0, 1.0, -102.55, -421.7)">
    <path d="M103.05 422.2 Q103.3 423.05 104.15 423.45 L105.9 423.6 Q106.8 423.5 107.25 422.75" fill="none" stroke="#ff97c6" stroke-linecap="round" stroke-linejoin="round" stroke-width="1.0"/>
    <path d="M146.0 476.35 Q145.5 478.45 145.75 481.6 145.95 484.7 146.5 487.85 147.1 490.95 147.85 493.05 148.25 494.2 148.3 496.6 L148.2 501.95 147.5 507.7 146.25 512.45 Q145.5 514.4 144.45 514.75 L141.3 515.2 137.0 515.35 133.0 514.95 Q131.3 514.65 130.9 513.95 130.15 512.15 131.0 511.5 131.85 510.8 133.45 510.3 135.7 509.35 136.65 507.55 137.65 505.75 137.9 503.7 L138.3 500.05 Q138.6 497.0 137.95 494.4 L136.2 488.85 135.15 485.85 133.6 481.5 132.15 477.1 Q131.55 475.1 131.5 474.1 L146.0 476.35" fill="#fff7f3" fill-rule="evenodd" stroke="none"/>
    <path d="M131.5 474.1 Q131.55 475.1 132.15 477.1 L133.6 481.5 135.15 485.85 136.2 488.85 137.95 494.4 Q138.6 497.0 138.3 500.05 L137.9 503.7 Q137.65 505.75 136.65 507.55 135.7 509.35 133.45 510.3 131.85 510.8 131.0 511.5 130.15 512.15 130.9 513.95 131.3 514.65 133.0 514.95 L137.0 515.35 141.3 515.2 144.45 514.75 Q145.5 514.4 146.25 512.45 L147.5 507.7 148.2 501.95 148.3 496.6 Q148.25 494.2 147.85 493.05 147.1 490.95 146.5 487.85 145.95 484.7 145.75 481.6 145.5 478.45 146.0 476.35" fill="none" stroke="#7f5c40" stroke-linecap="round" stroke-linejoin="round" stroke-width="1.0"/>
    <path d="M143.05 491.0 L145.75 490.2 146.65 489.7 147.2 493.05 147.85 495.65 Q148.9 500.4 148.55 504.65 148.15 508.9 146.8 511.7 145.5 514.45 143.75 514.9 L140.7 515.15 136.45 515.05 132.55 514.5 Q130.9 514.15 130.55 513.5 129.9 511.85 130.75 511.3 131.6 510.75 133.15 510.35 135.4 509.6 136.4 508.05 137.4 506.5 137.75 504.7 L138.25 501.4 Q138.7 498.7 138.15 496.35 137.6 493.95 136.65 491.3 L143.05 491.0" fill="#000000" fill-rule="evenodd" stroke="none"/>
    <path d="M136.4 493.4 L137.8 493.65 141.0 493.95 144.65 493.5 Q146.4 493.0 147.3 491.5" fill="none" stroke="#a3a3a3" stroke-linecap="round" stroke-linejoin="round" stroke-width="1.5"/>
    <path d="M137.05 497.35 L138.45 497.65 141.7 497.95 145.35 497.5 Q147.1 496.95 148.0 495.5" fill="none" stroke="#a3a3a3" stroke-linecap="round" stroke-linejoin="round" stroke-width="1.0"/>
    <path d="M125.55 470.4 Q127.55 468.1 130.8 466.85 134.05 465.65 137.55 465.35 141.0 465.05 143.65 465.4 146.45 465.8 147.9 467.05 149.4 468.35 150.2 470.2 L151.7 474.15 Q152.45 476.3 153.7 478.4 154.9 480.55 157.3 482.35 155.45 484.35 152.4 486.25 149.3 488.15 145.5 489.55 141.75 490.95 137.95 491.45 L130.95 491.2 Q127.75 490.45 125.7 488.1 127.35 485.8 128.0 483.55 128.6 481.25 128.5 478.7 128.35 476.1 127.8 472.9 L125.55 470.4" fill="#106189" fill-rule="evenodd" stroke="none"/>
    <path d="M127.8 472.9 Q128.35 476.1 128.5 478.7 128.6 481.25 128.0 483.55 127.35 485.8 125.7 488.1 127.75 490.45 130.95 491.2 L137.95 491.45 Q141.75 490.95 145.5 489.55 149.3 488.15 152.4 486.25 155.45 484.35 157.3 482.35 154.9 480.55 153.7 478.4 152.45 476.3 151.7 474.15 L150.2 470.2 Q149.4 468.35 147.9 467.05 146.45 465.8 143.65 465.4 141.0 465.05 137.55 465.35 134.05 465.65 130.8 466.85 127.55 468.1 125.55 470.4" fill="none" stroke="#6c91ad" stroke-linecap="round" stroke-linejoin="round" stroke-width="1.0"/>
    <path d="M135.8 480.6 L138.5 481.05 Q141.6 483.15 144.1 483.5 L148.35 483.3 151.0 482.05 151.95 481.25 153.55 480.85 Q153.25 482.45 152.0 483.3 150.75 484.2 148.9 484.55 L145.0 484.9 141.4 484.35 Q139.45 483.75 137.85 482.8 136.3 481.8 135.8 480.6" fill="#6c91ad" fill-rule="evenodd" stroke="none"/>
    <path d="M127.35 474.1 L133.8 473.5 141.35 472.7 Q145.2 472.4 148.65 472.65 152.15 472.95 154.65 474.25 157.1 475.55 158.05 478.35 155.2 479.65 151.25 480.2 L142.9 480.85 134.35 480.75 127.0 480.4 Q126.15 478.3 126.4 476.4 126.6 475.05 127.35 474.1" fill="#ffffff" fill-rule="evenodd" stroke="none"/>
    <path d="M127.35 474.1 L133.8 473.5 141.35 472.7 Q145.2 472.4 148.65 472.65 152.15 472.95 154.65 474.25 157.1 475.55 158.05 478.35 155.2 479.65 151.25 480.2 L142.9 480.85 134.35 480.75 127.0 480.4 Q126.15 478.3 126.4 476.4 126.6 475.05 127.35 474.1 L127.55 473.9 128.1 473.35" fill="none" stroke="#877a7e" stroke-linecap="round" stroke-linejoin="round" stroke-width="1.0"/>
  </g>
</svg>
