<?xml version="1.0" encoding="UTF-8" standalone="no"?>
<svg xmlns:xlink="http://www.w3.org/1999/xlink" height="38.0px" width="46.0px" xmlns="http://www.w3.org/2000/svg">
  <g transform="matrix(1.0, 0.0, 0.0, 1.0, 37.45, 42.5)">
    <path d="M1.45 -10.45 Q-5.15 -5.0 -14.45 -5.0 -23.75 -5.0 -30.35 -10.45 -36.95 -15.85 -36.95 -23.5 -36.95 -31.15 -30.35 -36.6 -23.75 -42.0 -14.45 -42.0 -5.15 -42.0 1.45 -36.6 8.05 -31.15 8.05 -23.5 8.05 -15.85 1.45 -10.45" fill="#999999" fill-rule="evenodd" stroke="none"/>
    <path d="M1.45 -10.45 Q-5.15 -5.0 -14.45 -5.0 -23.75 -5.0 -30.35 -10.45 -36.95 -15.85 -36.95 -23.5 -36.95 -31.15 -30.35 -36.6 -23.75 -42.0 -14.45 -42.0 -5.15 -42.0 1.45 -36.6 8.05 -31.15 8.05 -23.5 8.05 -15.85 1.45 -10.45 Z" fill="none" stroke="#ffffff" stroke-linecap="round" stroke-linejoin="round" stroke-width="1.0"/>
  </g>
</svg>
